<svg width="60" height="60" viewBox="0 0 60 60" fill="none" xmlns="http://www.w3.org/2000/svg">
<path d="M59.1075 29.5538C59.1075 34.9485 57.6622 40.0073 55.1328 44.3623C55.0377 44.5272 54.9363 44.692 54.8349 44.8568C54.6003 45.2498 54.3531 45.6429 54.0932 46.0233C53.9854 46.1817 53.8776 46.3402 53.7572 46.4987C49.9029 52.0202 44.1975 56.1407 37.554 58.0108C37.4145 58.0489 37.2687 58.0869 37.1292 58.125C34.714 58.7652 32.1719 59.1075 29.5538 59.1075C19.3412 59.1075 10.3331 53.9283 5.03974 46.0486C4.53894 45.3196 4.07617 44.5589 3.65144 43.7855C1.32492 39.5635 0 34.714 0 29.5538C0 13.2301 13.2301 0 29.5538 0C45.8774 0 59.1075 13.2301 59.1075 29.5538Z" fill="#F7F5FF"/>
<path d="M16.8854 25.5258C16.8854 25.5258 13.7189 8.72729 26.0114 5.6521C38.3039 2.57691 39.0437 20.0233 39.0437 20.0233C39.0437 20.0233 52.4209 22.5685 52.5084 35.5767C52.6174 51.8345 36.9042 49.1016 36.9042 49.1016L22.0221 43.04C22.0221 43.04 7.11464 34.9219 16.8854 25.5258Z" fill="#FFAF45"/>
<path d="M53.7575 46.4989C49.9032 52.0204 44.1978 56.1409 37.5543 58.011C37.4148 58.049 37.269 58.0871 37.1295 58.1251C34.7143 58.7654 32.1722 59.1077 29.5541 59.1077C19.3415 59.1077 10.3333 53.9285 5.04004 46.0488C9.00843 40.6223 13.9848 36.5145 17.37 35.0564C22.378 32.9011 30.3211 31.4557 37.6557 33.554C37.6747 33.5604 37.7001 33.5604 37.7254 33.5667C39.9315 34.2006 42.0742 35.1515 44.071 36.5018C48.3881 39.4179 51.5324 42.8031 53.7575 46.4989Z" fill="#F74D76"/>
<path d="M23.749 28.4527L23.7503 28.6321L23.9012 32.0173L24.0089 34.6715C24.0089 34.6715 23.782 35.289 26.8718 35.0887C31.0132 34.8047 32.3476 33.0252 32.3476 33.0252L32.5239 26.8032L31.2687 27.0422L23.749 28.4527Z" fill="#FC8165"/>
<path d="M23.75 28.6319L23.9009 32.0171C25.913 31.7724 29.5758 30.9014 31.0554 27.7362C31.1689 27.4788 31.2443 27.2474 31.269 27.0547L23.7627 28.5799L23.75 28.6319Z" fill="black"/>
<path d="M22.4369 12.43C22.4369 12.43 18.5858 21.2441 19.9735 26.1964C21.3611 31.148 25.8728 30.3689 28.5721 29.4117C31.2713 28.4544 32.5246 26.7993 32.5246 26.7993C32.5246 26.7993 35.0464 27.6544 36.7326 25.3095C38.4189 22.9646 37.3805 20.2717 35.9409 19.6549C34.5012 19.0381 32.789 20.0777 32.789 20.0777L34.131 17.516C34.131 17.516 28.4852 4.49763 22.4369 12.43Z" fill="#FC8165"/>
<path d="M23.633 11.1249C23.633 11.1249 23.3547 15.8147 28.0718 17.946C32.7895 20.0772 35.9413 19.6544 35.9413 19.6544L35.6352 13.5383L29.7295 7.12354L24.4501 8.80598L23.633 11.1249Z" fill="#FFAF45"/>
<path d="M32.4697 18.7241L32.4881 21.3949L34.8634 19.0519L32.4697 18.7241Z" fill="#FFAF45"/>
<path d="M54.8345 44.8566C54.6 45.2497 54.3528 45.6427 54.0928 46.0231C53.9851 46.1816 53.8773 46.34 53.7569 46.4985C49.9026 52.02 44.1972 56.1406 37.5536 58.0107C37.4142 58.0487 37.2684 58.0867 37.1289 58.1248L37.5346 33.5347C37.5346 33.5347 37.579 33.541 37.6551 33.5537C37.6741 33.56 37.6994 33.56 37.7248 33.5664C39.1828 33.8136 48.7361 35.7027 53.8646 43.2211C54.2133 43.7219 54.5303 44.2734 54.8345 44.8566Z" fill="#F74D76"/>
<path d="M27.9122 38.1854C26.7192 38.186 25.9699 37.1895 25.6104 36.3609C24.9746 37.0519 23.7568 38.1797 22.9403 37.7068C22.7286 37.5838 22.5891 37.3885 22.5372 37.1413C22.3565 36.2855 23.3194 34.9314 23.4297 34.7793C23.5064 34.6747 23.6377 34.6253 23.7657 34.6595C23.8113 34.6709 28.4092 35.8196 32.2394 33.0278C32.3168 32.972 32.4138 32.9529 32.5063 32.977C32.5982 33.0011 32.675 33.0658 32.7143 33.152C32.8246 33.3935 33.7596 35.5324 32.6363 36.2228C31.8756 36.6893 31.0958 36.1714 30.6419 35.7479C30.3484 36.5606 29.6289 37.9978 28.1734 38.1689C28.0847 38.1803 27.9972 38.1854 27.9122 38.1854ZM25.98 35.5495C26.0047 35.5825 26.0238 35.6199 26.0345 35.6611C26.0567 35.7454 26.5937 37.7131 28.0999 37.5401C29.6524 37.3581 30.1849 35.0823 30.1899 35.0589C30.2172 34.939 30.3117 34.8452 30.4315 34.8192C30.5532 34.7939 30.6768 34.8389 30.751 34.9365C30.7599 34.9479 31.6537 36.0808 32.3035 35.6826C32.7288 35.4208 32.5209 34.4408 32.28 33.7713C30.0568 35.2617 27.6809 35.578 25.98 35.5495ZM23.824 35.3232C23.4842 35.8329 23.0747 36.619 23.1578 37.0107C23.173 37.0824 23.2021 37.1255 23.2592 37.1578C23.6262 37.3708 24.7065 36.4941 25.4837 35.5413C24.7147 35.4912 24.1258 35.3872 23.824 35.3232Z" fill="white"/>
<path d="M21.3415 15.6493C21.2065 15.6493 21.0816 15.5625 21.0391 15.4268C20.9865 15.2601 21.0797 15.082 21.247 15.03L23.0037 14.481C23.1697 14.4284 23.3485 14.5216 23.4005 14.6889C23.4525 14.8557 23.3593 15.0338 23.1926 15.0858L21.4359 15.6348C21.4049 15.6449 21.3732 15.6493 21.3415 15.6493Z" fill="black"/>
<path d="M32.9694 24.1912C32.8838 24.1912 32.7982 24.157 32.7361 24.0885C32.6175 23.9598 32.6258 23.7589 32.7551 23.6403L35.4727 21.1401C35.6014 21.0222 35.803 21.0298 35.9209 21.1591C36.0395 21.2878 36.0312 21.4881 35.9019 21.6067L33.1843 24.1069C33.1234 24.1633 33.0461 24.1912 32.9694 24.1912Z" fill="black"/>
<path d="M35.7219 23.8615C35.6794 23.8615 35.6363 23.8526 35.5944 23.8349L33.9728 23.123C33.8131 23.0526 33.7396 22.8656 33.8099 22.7052C33.8803 22.5455 34.0667 22.4732 34.2277 22.5423L35.8493 23.2542C36.009 23.3246 36.0826 23.5116 36.0122 23.672C35.9602 23.7911 35.8442 23.8615 35.7219 23.8615Z" fill="black"/>
<path d="M21.8848 20.0953C21.8633 20.0953 21.8417 20.0934 21.8202 20.089C21.649 20.0535 21.5387 19.8855 21.5742 19.7143L21.8981 18.1542L21.261 17.4195C21.1463 17.2877 21.1609 17.0867 21.2927 16.972C21.4246 16.8572 21.6249 16.8718 21.7403 17.0037L22.4801 17.8569C22.5447 17.9317 22.5714 18.0319 22.5511 18.1289L22.1954 19.843C22.1637 19.992 22.0319 20.0953 21.8848 20.0953Z" fill="black"/>
<path d="M27.2002 20.3658C27.1787 20.3658 27.1571 20.3639 27.1356 20.3595C26.9644 20.324 26.8541 20.156 26.8896 19.9848L27.2136 18.4247L26.5765 17.69C26.4617 17.5575 26.4763 17.3578 26.6082 17.2424C26.7407 17.1283 26.9403 17.1416 27.0557 17.2741L27.7955 18.1274C27.8602 18.2022 27.8862 18.3024 27.8665 18.3994L27.5109 20.1135C27.4792 20.2631 27.3473 20.3658 27.2002 20.3658Z" fill="black"/>
<path d="M22.9372 23.9657C22.7908 23.9657 22.6589 23.863 22.6272 23.714C22.037 20.8962 23.4019 19.4762 23.4602 19.4172C23.5832 19.2923 23.7835 19.2911 23.9084 19.4147C24.0326 19.537 24.0339 19.7373 23.9122 19.8616C23.864 19.9117 22.7312 21.1174 23.2472 23.584C23.2833 23.7558 23.173 23.9232 23.0019 23.9593C22.9803 23.9631 22.9588 23.9657 22.9372 23.9657Z" fill="black"/>
<path d="M25.8002 26.6769C25.6119 26.6769 25.1618 26.5894 24.223 25.5504C24.1139 25.4299 24.0746 25.2664 24.1177 25.1136C24.1621 24.9545 24.2883 24.8296 24.4544 24.7802C26.7162 24.1044 27.0123 24.3269 27.1543 24.4334C27.2665 24.5184 27.4364 24.7231 27.3115 25.1447C27.139 25.7222 26.4195 26.6369 25.8566 26.675C25.842 26.6756 25.823 26.6769 25.8002 26.6769ZM24.8727 25.3177C25.3774 25.8426 25.7121 26.0423 25.8135 26.0423C25.8705 26.036 26.0823 25.913 26.3422 25.5884C26.5672 25.307 26.6801 25.0604 26.7124 24.9349C26.5393 24.9196 25.9745 25.0008 24.8727 25.3177Z" fill="black"/>
<path d="M15.2376 44.7173C15.2052 44.7547 12.1776 48.0011 12.7519 53.837C12.57 53.7197 12.3944 53.5968 12.2194 53.4668C12.1693 53.4345 12.1256 53.3952 12.0755 53.3565C11.7034 47.5618 14.7431 44.3217 14.7824 44.278C14.9047 44.1531 15.1013 44.1499 15.2325 44.2666C15.3574 44.3896 15.3599 44.5931 15.2376 44.7173Z" fill="white"/>
</svg>
