<svg width="1009" height="650" viewBox="0 0 1009 650" fill="none" xmlns="http://www.w3.org/2000/svg">
<rect x="320.598" y="0.000793457" width="688.401" height="650" fill="#4395FF"/>
<path d="M14.0235 340.261C6.27855 332.385 6.27854 319.616 14.0235 311.741L320.598 0.000765848L639.23 324.001L318.632 650.001L14.0235 340.261Z" fill="#3982E0"/>
<path d="M882 483.878H282V484.178H882V483.878Z" fill="#EBEBEB"/>
<path d="M821.881 503.193H782.135V503.493H821.881V503.193Z" fill="#EBEBEB"/>
<path d="M679.464 506.45H669.032V506.75H679.464V506.45Z" fill="#EBEBEB"/>
<path d="M780.934 492.05H757.903V492.35H780.934V492.05Z" fill="#EBEBEB"/>
<path d="M396.782 494.066H344.951V494.366H396.782V494.066Z" fill="#EBEBEB"/>
<path d="M415.067 494.066H407.467V494.366H415.067V494.066Z" fill="#EBEBEB"/>
<path d="M552.176 499.133H439.765V499.433H552.176V499.133Z" fill="#EBEBEB"/>
<path d="M566.417 430.36H334.698C330.922 430.36 327.849 427.287 327.849 423.51V97.792C327.849 94.0156 330.922 90.9424 334.698 90.9424H566.417C570.192 90.9424 573.265 94.0156 573.265 97.792V423.51C573.265 427.287 570.192 430.36 566.417 430.36ZM334.698 91.2436C331.086 91.2436 328.149 94.1812 328.149 97.7932V423.512C328.149 427.124 331.086 430.061 334.698 430.061H566.417C570.028 430.061 572.965 427.124 572.965 423.512V97.792C572.965 94.1812 570.028 91.2424 566.417 91.2424L334.698 91.2436Z" fill="#EBEBEB"/>
<path d="M825.972 430.36H594.255C590.478 430.36 587.406 427.287 587.406 423.51V97.792C587.406 94.0156 590.479 90.9424 594.255 90.9424H825.972C829.75 90.9424 832.822 94.0156 832.822 97.792V423.51C832.823 427.287 829.75 430.36 825.972 430.36ZM594.255 91.2436C590.644 91.2436 587.706 94.1812 587.706 97.7932V423.512C587.706 427.124 590.644 430.061 594.255 430.061H825.972C829.584 430.061 832.522 427.124 832.522 423.512V97.792C832.522 94.1812 829.584 91.2424 825.972 91.2424L594.255 91.2436Z" fill="#EBEBEB"/>
<path d="M443.264 188.76H376.652L377.672 179.756H444.284L443.264 188.76Z" fill="#F5F5F5"/>
<path d="M438.494 230.858H371.883L372.903 221.854H439.514L438.494 230.858Z" fill="#F5F5F5"/>
<path d="M433.725 272.956H367.113L368.134 263.951H434.745L433.725 272.956Z" fill="#F5F5F5"/>
<path d="M428.957 315.054H362.345L363.365 306.05H429.977L428.957 315.054Z" fill="#F5F5F5"/>
<path d="M424.186 357.152H357.576L358.596 348.148H425.208L424.186 357.152Z" fill="#F5F5F5"/>
<path d="M419.418 399.25H352.807L353.827 390.245H420.438L419.418 399.25Z" fill="#F5F5F5"/>
<path d="M414.649 441.348H348.037L349.057 432.344H415.669L414.649 441.348Z" fill="#F5F5F5"/>
<path d="M347.768 484.181H337.338L373.856 161.836H384.287L347.768 484.181Z" fill="#EBEBEB"/>
<path d="M415.643 484.181H405.212L441.731 161.836H452.161L415.643 484.181Z" fill="#EBEBEB"/>
<path d="M815.208 143.36H689.573V484.181H815.208V143.36Z" fill="#F5F5F5"/>
<path d="M808.331 150.843H696.45V206.438H808.331V150.843Z" fill="#EBEBEB"/>
<path d="M745.038 171.84H710.439V206.439H745.038V171.84Z" fill="#F0F0F0"/>
<path d="M782.089 181.812H757.464V206.438H782.089V181.812Z" fill="#F0F0F0"/>
<path d="M808.331 212.271H696.45V267.866H808.331V212.271Z" fill="#EBEBEB"/>
<path d="M727.095 233.267H710.439V267.866H727.095V233.267Z" fill="#F0F0F0"/>
<path d="M782.089 253.687H745.038V267.866H782.089V253.687Z" fill="#F0F0F0"/>
<path d="M773.973 232.528H738V253.686H773.973V232.528Z" fill="#F0F0F0"/>
<path d="M808.331 273.699H696.45V329.294H808.331V273.699Z" fill="#EBEBEB"/>
<path d="M745.037 294.695H738V329.294H745.037V294.695Z" fill="#F0F0F0"/>
<path d="M800.664 282.47H757.464V329.294H800.664V282.47Z" fill="#F0F0F0"/>
<path d="M808.331 335.126H696.45V390.72H808.331V335.126Z" fill="#EBEBEB"/>
<path d="M745.038 356.122H710.439V390.72H745.038V356.122Z" fill="#F0F0F0"/>
<path d="M782.089 366.095H757.464V390.72H782.089V366.095Z" fill="#F0F0F0"/>
<path d="M808.331 396.554H696.45V452.148H808.331V396.554Z" fill="#EBEBEB"/>
<path d="M745.038 417.55H710.439V452.148H745.038V417.55Z" fill="#F0F0F0"/>
<path d="M782.089 427.523H757.464V452.148H782.089V427.523Z" fill="#F0F0F0"/>
<path d="M745.038 126.219H707.143V143.36H745.038V126.219Z" fill="#F0F0F0"/>
<path d="M779.064 134.789H759.561V143.36H779.064V134.789Z" fill="#F0F0F0"/>
<path d="M398.836 484.182H507.644V386.605H398.836V484.182Z" fill="#EBEBEB"/>
<path d="M469.777 484.182H507.644V386.605H469.777V484.182Z" fill="#E0E0E0"/>
<path d="M377.183 388.616H485.99V309.188H377.183V388.616Z" fill="#F5F5F5"/>
<path d="M448.123 388.616H485.99V309.188H448.123V388.616Z" fill="#EBEBEB"/>
<path d="M402.721 309.187H507.644V270.311H402.721V309.187Z" fill="#FAFAFA"/>
<path d="M471.128 309.187H507.644V270.311H471.128V309.187Z" fill="#F0F0F0"/>
<path d="M509.449 126.219H360.812V134.789H509.449V126.219Z" fill="#F0F0F0"/>
<path d="M393.468 114.104H371.884V126.219H393.468V114.104Z" fill="#F5F5F5"/>
<path d="M421.324 103.343H398.448V126.219H421.324V103.343Z" fill="#F0F0F0"/>
<path d="M441.002 114.78H429.564V126.219H441.002V114.78Z" fill="#EBEBEB"/>
<path d="M460.368 120.701C460.368 123.971 457.717 126.622 454.447 126.622C451.177 126.622 448.526 123.971 448.526 120.701C448.526 117.431 451.177 114.78 454.447 114.78C457.717 114.78 460.368 117.431 460.368 120.701Z" fill="#F5F5F5"/>
<path d="M467.857 126.219L475.047 103.343H486.918L493.477 126.622L467.857 126.219Z" fill="#EBEBEB"/>
<path d="M407.467 146.95C440.97 75.6112 559.938 85.6756 605.847 135.844C651.757 186.011 666.683 218.163 708.097 199.424C749.511 180.684 802.319 185.696 805.349 245.22C808.379 304.745 759.853 375.136 682.841 395.958C605.828 416.781 605.847 490.469 503.921 475.6C448.349 467.493 447.083 407.368 454.931 357.639C462.779 307.91 368.612 229.683 407.467 146.95Z" fill="#407BFF"/>
<path opacity="0.9" d="M407.467 146.95C440.97 75.6112 559.938 85.6756 605.847 135.844C651.757 186.011 666.683 218.163 708.097 199.424C749.511 180.684 802.319 185.696 805.349 245.22C808.379 304.745 759.853 375.136 682.841 395.958C605.828 416.781 605.847 490.469 503.921 475.6C448.349 467.493 447.083 407.368 454.931 357.639C462.779 307.91 368.612 229.683 407.467 146.95Z" fill="white"/>
<path d="M582 538.073C710.498 538.073 814.667 531.99 814.667 524.486C814.667 516.981 710.498 510.898 582 510.898C453.501 510.898 349.333 516.981 349.333 524.486C349.333 531.99 453.501 538.073 582 538.073Z" fill="#F5F5F5"/>
<path d="M675.147 167.048V522.812C675.147 525.74 672.799 528.014 669.871 528.014H504.3C502.978 528.014 501.829 527.519 500.989 526.679C500.112 525.827 499.581 524.616 499.581 523.245V166.614C499.581 164.291 501.298 162.254 503.621 162.254H550.644C551.967 162.254 553.177 163.119 553.672 164.367L555.624 169.161C556.119 170.397 557.317 171.261 558.651 171.261H616.188C617.523 171.261 618.721 170.433 619.215 169.198L621.167 164.38C621.661 163.132 622.86 162.255 624.195 162.255H670.539C673.096 162.254 675.147 164.477 675.147 167.048Z" fill="#407BFF"/>
<path opacity="0.6" d="M521.411 176.583H523.857V173.322H521.411V176.583Z" fill="white"/>
<path opacity="0.6" d="M517.424 176.584H519.871V172.234H517.424V176.584Z" fill="white"/>
<path opacity="0.6" d="M513.437 176.584H515.884V171.147H513.437V176.584Z" fill="white"/>
<path opacity="0.6" d="M509.45 176.584H511.897V170.059H509.45V176.584Z" fill="white"/>
<path opacity="0.6" d="M652.732 172.132H651.282V175.394H652.732V172.132Z" fill="white"/>
<path opacity="0.6" d="M653.728 176.583H665.282V170.941H653.728V176.583Z" fill="white"/>
<g opacity="0.1">
<path d="M578.565 171.255L528.024 360.573V360.584L527.461 362.711V362.722L526.549 366.132V366.143L525.975 368.27L499.585 467.126V347.483L549.036 162.251H550.645C551.973 162.251 553.177 163.118 553.673 164.367L555.619 169.161C556.115 170.399 557.318 171.254 558.647 171.254L578.565 171.255Z" fill="white"/>
<path d="M675.149 267.939V387.582L643.626 505.661L642.861 508.53L637.662 528.012H605.723L610.921 508.542L611.754 505.414L615.93 489.771L616.763 486.641L618.439 480.384L619.272 477.256L620.937 470.998L621.77 467.87L648.049 369.452V369.441L649.265 364.894V364.883L675.149 267.939Z" fill="white"/>
<path d="M595.874 171.255L545.647 359.391L545.344 360.516L542.598 370.826L542.294 371.951L500.99 526.684C500.112 525.828 499.584 524.613 499.584 523.24V505.042L535.114 371.95L535.417 370.824L538.163 360.515L538.466 359.39L588.694 171.254L595.874 171.255Z" fill="white"/>
</g>
<path opacity="0.3" d="M675.147 185.444H499.581V512.26H675.147V185.444Z" fill="white"/>
<path d="M641.364 329.056C644.741 329.056 647.479 326.318 647.479 322.941V226.398C647.479 223.02 644.741 220.283 641.364 220.283C637.987 220.283 635.249 223.02 635.249 226.398V322.941C635.249 326.318 637.986 329.056 641.364 329.056Z" fill="#407BFF"/>
<path opacity="0.3" d="M641.364 326.656C639.316 326.656 637.649 324.989 637.649 322.941V226.398C637.649 224.35 639.316 222.683 641.364 222.683C643.413 222.683 645.079 224.35 645.079 226.398V322.941C645.078 324.989 643.413 326.656 641.364 326.656Z" fill="black"/>
<path d="M650.125 237.331C650.91 232.497 647.627 227.942 642.794 227.158C637.96 226.373 633.405 229.656 632.621 234.49C631.836 239.323 635.119 243.878 639.953 244.663C644.786 245.447 649.341 242.164 650.125 237.331Z" fill="#407BFF"/>
<path d="M605.364 329.056C608.741 329.056 611.479 326.318 611.479 322.941V226.398C611.479 223.02 608.741 220.283 605.364 220.283C601.987 220.283 599.249 223.02 599.249 226.398V322.941C599.249 326.318 601.986 329.056 605.364 329.056Z" fill="#407BFF"/>
<path opacity="0.3" d="M605.364 326.656C603.316 326.656 601.649 324.989 601.649 322.941V226.398C601.649 224.35 603.316 222.683 605.364 222.683C607.413 222.683 609.079 224.35 609.079 226.398V322.941C609.078 324.989 607.413 326.656 605.364 326.656Z" fill="black"/>
<path d="M614.125 309.332C614.91 304.498 611.627 299.944 606.794 299.159C601.96 298.375 597.405 301.658 596.621 306.491C595.836 311.325 599.119 315.88 603.953 316.664C608.786 317.449 613.341 314.166 614.125 309.332Z" fill="#407BFF"/>
<path d="M569.363 329.056C572.74 329.056 575.478 326.318 575.478 322.941V226.398C575.478 223.02 572.74 220.283 569.363 220.283C565.986 220.283 563.248 223.02 563.248 226.398V322.941C563.249 326.318 565.986 329.056 569.363 329.056Z" fill="#407BFF"/>
<path opacity="0.3" d="M569.364 326.656C567.316 326.656 565.649 324.989 565.649 322.941V226.398C565.649 224.35 567.316 222.683 569.364 222.683C571.413 222.683 573.079 224.35 573.079 226.398V322.941C573.078 324.989 571.413 326.656 569.364 326.656Z" fill="black"/>
<path d="M578.124 261.333C578.909 256.499 575.626 251.945 570.792 251.16C565.958 250.376 561.404 253.658 560.619 258.492C559.835 263.326 563.117 267.881 567.951 268.665C572.785 269.45 577.34 266.167 578.124 261.333Z" fill="#407BFF"/>
<path d="M533.363 329.056C536.74 329.056 539.478 326.318 539.478 322.941V226.398C539.478 223.02 536.74 220.283 533.363 220.283C529.986 220.283 527.248 223.02 527.248 226.398V322.941C527.249 326.318 529.986 329.056 533.363 329.056Z" fill="#407BFF"/>
<path opacity="0.3" d="M533.364 326.656C531.316 326.656 529.649 324.989 529.649 322.941V226.398C529.649 224.35 531.316 222.683 533.364 222.683C535.413 222.683 537.079 224.35 537.079 226.398V322.941C537.078 324.989 535.413 326.656 533.364 326.656Z" fill="black"/>
<path d="M542.124 297.334C542.909 292.5 539.626 287.946 534.792 287.161C529.958 286.377 525.404 289.659 524.619 294.493C523.835 299.327 527.117 303.882 531.951 304.666C536.785 305.451 541.34 302.168 542.124 297.334Z" fill="#407BFF"/>
<path opacity="0.6" d="M650.125 237.331C650.91 232.497 647.627 227.942 642.794 227.158C637.96 226.373 633.405 229.656 632.621 234.49C631.836 239.323 635.119 243.878 639.953 244.663C644.786 245.447 649.341 242.164 650.125 237.331Z" fill="white"/>
<path opacity="0.6" d="M641.364 242.378C637.799 242.378 634.897 239.477 634.897 235.911C634.897 232.346 637.797 229.444 641.364 229.444C644.93 229.444 647.831 232.346 647.831 235.911C647.829 239.477 644.929 242.378 641.364 242.378Z" fill="white"/>
<path opacity="0.6" d="M614.125 309.332C614.91 304.498 611.627 299.944 606.794 299.159C601.96 298.375 597.405 301.658 596.621 306.491C595.836 311.325 599.119 315.88 603.953 316.664C608.786 317.449 613.341 314.166 614.125 309.332Z" fill="white"/>
<path opacity="0.6" d="M605.364 314.378C601.799 314.378 598.897 311.477 598.897 307.911C598.897 304.344 601.797 301.444 605.364 301.444C608.93 301.444 611.831 304.344 611.831 307.911C611.829 311.477 608.929 314.378 605.364 314.378Z" fill="white"/>
<path opacity="0.6" d="M578.124 261.333C578.909 256.499 575.626 251.945 570.792 251.16C565.958 250.376 561.404 253.658 560.619 258.492C559.835 263.326 563.117 267.881 567.951 268.665C572.785 269.45 577.34 266.167 578.124 261.333Z" fill="white"/>
<path opacity="0.6" d="M569.364 266.378C565.799 266.378 562.897 263.477 562.897 259.911C562.897 256.346 565.797 253.444 569.364 253.444C572.929 253.444 575.831 256.346 575.831 259.911C575.829 263.477 572.929 266.378 569.364 266.378Z" fill="white"/>
<path opacity="0.6" d="M542.124 297.334C542.909 292.5 539.626 287.946 534.792 287.161C529.958 286.377 525.404 289.659 524.619 294.493C523.835 299.327 527.117 303.882 531.951 304.666C536.785 305.451 541.34 302.168 542.124 297.334Z" fill="white"/>
<path opacity="0.6" d="M533.364 302.378C529.799 302.378 526.897 299.477 526.897 295.911C526.897 292.346 529.797 289.444 533.364 289.444C536.929 289.444 539.831 292.346 539.831 295.911C539.829 299.477 536.929 302.378 533.364 302.378Z" fill="white"/>
<path d="M663.358 499.433H511.37C509.547 499.433 508.068 497.955 508.068 496.132V354.178C508.068 352.355 509.547 350.877 511.37 350.877H663.359C665.182 350.877 666.66 352.355 666.66 354.178V496.132C666.659 497.955 665.182 499.433 663.358 499.433Z" fill="#407BFF"/>
<path opacity="0.3" d="M663.358 499.433H511.37C509.547 499.433 508.068 497.955 508.068 496.132V354.178C508.068 352.355 509.547 350.877 511.37 350.877H663.359C665.182 350.877 666.66 352.355 666.66 354.178V496.132C666.659 497.955 665.182 499.433 663.358 499.433Z" fill="black"/>
<path opacity="0.6" d="M573.054 447.169V459.939L579.63 460.558C580.518 464.839 582.214 468.819 584.535 472.354L580.311 477.455L589.341 486.487L594.443 482.263C597.978 484.582 601.957 486.279 606.238 487.167L606.857 493.743H619.627L620.247 487.167C624.528 486.279 628.507 484.583 632.043 482.263L637.145 486.487L646.175 477.455L641.951 472.354C644.271 468.819 645.966 464.84 646.855 460.558L653.43 459.939V447.169L646.855 446.549C645.967 442.269 644.271 438.289 641.951 434.753L646.175 429.651L637.145 420.621L632.044 424.845C628.509 422.525 624.529 420.829 620.248 419.941L619.629 413.365H606.858L606.239 419.941C601.959 420.829 597.978 422.524 594.443 424.845L589.342 420.621L580.312 429.651L584.536 434.753C582.216 438.289 580.518 442.268 579.631 446.549L573.054 447.169ZM613.242 436.265C622.791 436.265 630.531 444.005 630.531 453.554C630.531 463.102 622.791 470.842 613.242 470.842C603.695 470.842 595.955 463.102 595.955 453.554C595.955 444.007 603.695 436.265 613.242 436.265Z" fill="white"/>
<path opacity="0.4" d="M521.296 410.497V420.505L526.449 420.989C527.145 424.343 528.474 427.462 530.292 430.233L526.983 434.23L534.058 441.306L538.056 437.997C540.826 439.815 543.945 441.145 547.299 441.84L547.783 446.993H557.79L558.275 441.84C561.63 441.145 564.749 439.815 567.519 437.997L571.516 441.306L578.592 434.23L575.283 430.233C577.101 427.462 578.43 424.343 579.126 420.989L584.279 420.505V410.497L579.126 410.012C578.43 406.658 577.101 403.539 575.283 400.768L578.592 396.771L571.516 389.694L567.519 393.004C564.749 391.187 561.63 389.858 558.275 389.162L557.79 384.009H547.783L547.299 389.162C543.945 389.858 540.825 391.187 538.055 393.004L534.058 389.694L526.983 396.771L530.292 400.768C528.474 403.539 527.145 406.656 526.449 410.012L521.296 410.497ZM552.789 401.954C560.271 401.954 566.336 408.018 566.336 415.5C566.336 422.982 560.271 429.048 552.789 429.048C545.307 429.048 539.242 422.984 539.242 415.5C539.242 408.018 545.307 401.954 552.789 401.954Z" fill="white"/>
<path opacity="0.2" d="M577.108 379.601V388.007L581.436 388.415C582.02 391.233 583.137 393.852 584.663 396.179L581.883 399.537L587.826 405.48L591.184 402.7C593.511 404.226 596.13 405.344 598.948 405.927L599.356 410.255H607.761L608.169 405.927C610.986 405.342 613.606 404.225 615.933 402.699L619.29 405.479L625.234 399.536L622.453 396.178C623.98 393.851 625.096 391.232 625.68 388.414L630.009 388.006L630.008 379.6L625.68 379.193C625.096 376.376 623.979 373.756 622.452 371.429L625.233 368.072L619.289 362.128L615.932 364.908C613.605 363.382 610.985 362.265 608.168 361.68L607.76 357.353H599.355L598.947 361.68C596.129 362.265 593.51 363.382 591.183 364.908L587.825 362.128L581.882 368.072L584.662 371.429C583.136 373.756 582.018 376.376 581.434 379.193L577.108 379.601ZM603.558 372.426C609.843 372.426 614.937 377.52 614.937 383.805C614.937 390.089 609.843 395.183 603.558 395.183C597.275 395.183 592.18 390.088 592.18 383.805C592.18 377.52 597.275 372.426 603.558 372.426Z" fill="white"/>
<path opacity="0.6" d="M562.427 412.918L555.371 405.862L545.731 408.444L543.149 418.083L550.205 425.139L559.843 422.556L562.427 412.918Z" fill="white"/>
<path opacity="0.8" d="M614.801 441.29L603.4 446.073L601.842 458.337L611.685 465.819L623.086 461.036L624.643 448.77L614.801 441.29Z" fill="white"/>
<path opacity="0.4" d="M610.645 387.897V379.713L603.559 375.621L596.472 379.713V387.897L603.559 391.988L610.645 387.897Z" fill="white"/>
<path d="M775.43 310.133L788.196 320.502C788.196 320.502 791.319 320.567 792.299 321.598C793.279 322.629 797.048 330.291 796.513 331.336C795.977 332.381 789.678 334.446 788.35 333.21C787.021 331.974 784.715 324.885 784.759 324.129L768.445 313.186L775.43 310.133Z" fill="#B97964"/>
<path d="M782.508 314.692L779.652 320.92C779.652 320.92 762.096 312.7 758.292 307.912C757.32 306.676 755.976 304.708 754.524 302.464C752.136 298.756 749.436 294.292 747.564 291.16C746.172 288.82 745.236 287.224 745.236 287.224L755.172 271.552C757.344 273.22 763.992 300.004 765.18 301.444C766.368 302.884 782.508 314.692 782.508 314.692Z" fill="#263238"/>
<path opacity="0.2" d="M754.524 302.464C752.136 298.756 749.436 294.292 747.564 291.16L752.184 279.76C752.184 279.76 754.692 292.84 754.524 302.464Z" fill="black"/>
<path d="M673.592 250.659L660.131 241.089C660.131 241.089 658.53 238.408 657.149 238.065C655.768 237.723 647.245 238.238 646.602 239.22C645.959 240.203 647.281 246.699 649.012 247.242C650.742 247.786 658.044 246.282 658.68 245.868L672.353 255.314L673.592 250.659Z" fill="#B97964"/>
<path d="M779.82 519.15L772.288 520.481L769.198 510.209L766.379 500.783L775.065 497.75L777.587 509.079L779.82 519.15Z" fill="#B97964"/>
<path opacity="0.2" d="M777.628 509.312L769.235 510.417L766.397 500.886L775.074 497.801L777.628 509.312Z" fill="black"/>
<path d="M729.529 519.341H721.881L720.624 509.078L719.488 499.498L728.568 498.118L729.082 509.374L729.529 519.341Z" fill="#B97964"/>
<path opacity="0.2" d="M729.082 510.047L720.624 509.675L719.488 499.797L728.568 498.267L729.082 510.047Z" fill="black"/>
<path d="M778.337 501.072L765.954 503.255C753.457 472.121 744.569 446.133 738.291 424.566C734.91 412.929 732.231 402.581 730.207 393.399L730.728 427.292V503.74H718.241C687.65 358.54 709.329 324.785 709.329 324.785L745.926 318.668C747.317 324.13 748.369 333.053 748.991 339.216L750.642 351.351L764.948 425.238L778.337 501.072Z" fill="#407BFF"/>
<path d="M764.011 501.725L779.372 496.634L779.165 503.166L766.46 507.219L764.011 501.725Z" fill="#407BFF"/>
<path opacity="0.6" d="M764.011 501.725L779.372 496.634L779.165 503.166L766.46 507.219L764.011 501.725Z" fill="white"/>
<path d="M716.599 502.436L732.611 500.092L731.27 506.49L718.056 508.271L716.599 502.436Z" fill="#407BFF"/>
<path opacity="0.6" d="M716.599 502.436L732.611 500.092L731.27 506.49L718.056 508.271L716.599 502.436Z" fill="white"/>
<path opacity="0.2" d="M739.976 430.266C739.399 428.333 738.785 426.432 738.241 424.566C735.176 414.004 733.128 404.504 730.728 395.978V395.955L729.478 380.258C729.478 380.258 737.305 363.011 734.377 350.877C734.648 351.567 739.829 364.787 737.794 377.996C737.794 377.996 736.81 401.835 739.976 430.266Z" fill="black"/>
<path d="M741.029 255.797C740.929 255.864 740.818 255.929 740.71 255.972C739.226 256.761 737.548 257.482 735.724 257.656C730.618 258.155 727.319 257.036 725.402 254.505C725.392 254.504 725.392 254.504 725.392 254.504C722.735 250.737 722.736 244.676 724.109 237.544C724.729 234.272 725.573 231.465 726.772 229.352C726.786 229.33 726.797 229.247 726.811 229.227C726.868 229.143 726.918 229.022 726.974 228.938C728.737 225.996 731.254 224.271 734.965 223.887C736.248 223.757 737.682 223.778 739.277 223.962C753.313 225.64 752.814 249.188 741.029 255.797Z" fill="#B97964"/>
<path opacity="0.2" d="M740.709 255.971C739.226 256.76 737.573 257.285 735.749 257.458C730.643 257.957 727.365 256.674 725.453 254.11C727.815 254.966 731.065 255.593 734.441 254.538C736.568 253.882 738.738 254.643 740.709 255.971Z" fill="black"/>
<path d="M741.761 267.449C743.021 271.371 737.993 273.512 737.993 273.512C729.151 270.72 727.131 266.362 727.131 266.362C733.849 261.975 730.775 251.732 730.775 251.732L732.285 252.299L742.59 253.284C742.59 253.284 740.313 258.942 740.061 260.206C740.063 260.217 740.052 260.23 740.053 260.241C738.78 266.844 741.761 267.449 741.761 267.449Z" fill="#B97964"/>
<path d="M726.778 229.257C726.778 229.257 724.726 238.988 733.492 244.421C733.492 244.421 736.163 255.154 742.033 256.065C750.036 257.307 758.599 246.803 757.332 234.806C755.689 219.248 732.99 215.045 726.778 229.257Z" fill="#263238"/>
<path d="M729.142 240.984C729.344 239.451 730.913 237.036 733.25 237.696C735.671 238.379 736.246 244.638 730.006 245.208C729.11 245.29 728.718 244.184 729.142 240.984Z" fill="#B97964"/>
<path d="M721.072 517.892H729.609C729.972 517.893 730.288 518.147 730.367 518.502L732.12 526.419C732.27 527.128 731.817 527.824 731.109 527.974C731.014 527.994 730.917 528.004 730.821 528.003C727.326 527.946 727.044 527.732 722.657 527.732C719.955 527.732 711.801 528.015 708.069 528.015C704.337 528.015 703.851 524.328 705.377 523.989C712.23 522.496 717.388 520.426 719.581 518.458C719.986 518.084 720.52 517.881 721.072 517.892Z" fill="#263238"/>
<path d="M718.132 519.453C717.528 519.501 716.924 519.341 716.424 519C716.09 518.726 715.924 518.297 715.984 517.87C715.978 517.619 716.119 517.389 716.346 517.282C717.33 516.773 720.203 518.537 720.519 518.741C720.593 518.78 720.635 518.862 720.621 518.945C720.61 519.032 720.547 519.104 720.462 519.126C719.699 519.32 718.918 519.43 718.132 519.453ZM716.808 517.61C716.715 517.601 716.62 517.622 716.537 517.666C716.481 517.666 716.412 517.745 716.401 517.914C716.365 518.198 716.471 518.482 716.685 518.673C717.682 519.125 718.813 519.182 719.851 518.831C718.924 518.232 717.891 517.818 716.808 517.61Z" fill="#407BFF"/>
<path d="M720.405 519.136H720.303C719.387 518.638 717.611 516.682 717.792 515.744C717.857 515.421 718.141 515.188 718.47 515.189C718.793 515.147 719.118 515.246 719.364 515.46C720.394 516.297 720.609 518.853 720.619 518.978C720.621 519.054 720.582 519.128 720.517 519.17C720.477 519.171 720.438 519.159 720.405 519.136ZM718.618 515.528H718.516C718.245 515.528 718.222 515.686 718.211 515.742C718.098 516.32 719.229 517.8 720.144 518.49C720.085 517.478 719.718 516.507 719.093 515.709C718.961 515.594 718.793 515.529 718.618 515.528Z" fill="#407BFF"/>
<path d="M771.995 517.892H780.531C780.895 517.893 781.209 518.147 781.289 518.502L783.042 526.419C783.192 527.128 782.738 527.824 782.03 527.974C781.935 527.994 781.838 528.004 781.741 528.003C778.247 527.946 777.966 527.732 773.577 527.732C770.875 527.732 762.721 528.015 758.989 528.015C755.257 528.015 754.771 524.328 756.297 523.989C763.151 522.496 768.308 520.426 770.502 518.458C770.909 518.084 771.443 517.881 771.995 517.892Z" fill="#263238"/>
<path d="M769.055 519.453C768.45 519.501 767.848 519.341 767.347 519C767.014 518.726 766.847 518.297 766.906 517.87C766.9 517.619 767.041 517.389 767.268 517.282C768.252 516.773 771.125 518.537 771.442 518.741C771.516 518.78 771.558 518.862 771.544 518.945C771.533 519.032 771.47 519.104 771.385 519.126C770.622 519.32 769.841 519.43 769.055 519.453ZM767.731 517.61C767.638 517.601 767.543 517.622 767.46 517.666C767.404 517.666 767.335 517.745 767.324 517.914C767.288 518.198 767.394 518.482 767.608 518.673C768.605 519.125 769.736 519.182 770.774 518.831C769.847 518.232 768.814 517.818 767.731 517.61Z" fill="#407BFF"/>
<path d="M771.327 519.136H771.225C770.31 518.638 768.534 516.682 768.715 515.744C768.78 515.421 769.064 515.188 769.393 515.189C769.716 515.147 770.041 515.246 770.287 515.46C771.317 516.297 771.531 518.853 771.542 518.978C771.543 519.054 771.505 519.128 771.44 519.17C771.399 519.171 771.36 519.159 771.327 519.136ZM769.541 515.528H769.439C769.167 515.528 769.145 515.686 769.133 515.742C769.02 516.32 770.15 517.8 771.067 518.49C771.007 517.478 770.641 516.507 770.016 515.709C769.884 515.594 769.716 515.529 769.541 515.528Z" fill="#407BFF"/>
<path d="M709.329 324.922C709.329 324.922 702.346 282.384 714.346 263.312C714.346 263.312 738.311 261.822 755.172 271.553C755.172 271.553 748.205 290.493 747.168 324.921L709.329 324.922Z" fill="#263238"/>
<path opacity="0.2" d="M707.143 292.367C706.627 286.595 708.296 281.039 708.584 276.143C712.988 272.471 716.473 267.149 716.473 267.149C716.473 267.149 718.655 284.382 707.143 292.367Z" fill="black"/>
<path d="M717.315 263.23C717.315 263.23 693.565 260.446 689.993 258.948C687.756 258.01 670.3 246.603 670.3 246.603L666.207 252.698C666.207 252.698 684.067 267.122 687.087 268.779C694.169 272.668 710.083 278.154 710.083 278.154C710.083 278.154 719.698 271.47 717.315 263.23Z" fill="#263238"/>
<path d="M752.184 227.134C752.184 227.134 760.33 220.205 768.419 224.562C776.508 228.92 767.088 245.708 769.451 250.852C771.815 255.996 776.941 255.616 770.472 259.002C764.003 262.389 770.268 265.192 770.268 265.192C770.268 265.192 764.479 267.155 764.003 262.389C763.526 257.622 761.441 253.679 759.568 252.863C757.694 252.047 762.743 242.999 760.991 238.524C759.239 234.05 754.159 234.43 754.159 234.43L752.184 227.134Z" fill="#263238"/>
<path d="M739.276 223.961C739.276 223.961 729 217.523 724.162 222.1C716.695 229.164 727.338 239.316 738.61 244.128L739.276 223.961Z" fill="#263238"/>
<path d="M521.437 354.028L437.267 260.309C440.25 253.726 439.665 245.76 435.229 239.698C430.308 232.971 422.307 230.216 414.868 231.594C413.754 231.801 413.28 233.132 414.036 233.974L425.076 246.267C425.507 246.747 425.65 247.421 425.449 248.034L423.058 255.362C422.857 255.975 422.345 256.436 421.714 256.569L414.172 258.162C413.541 258.296 412.885 258.082 412.455 257.602L401.413 245.309C400.656 244.466 399.282 244.798 398.958 245.884C396.979 252.507 398.381 259.966 403.337 265.485C408.971 271.758 417.587 273.726 425.107 271.221L509.278 364.94C506.293 371.523 506.88 379.488 511.315 385.551C516.237 392.278 524.239 395.033 531.677 393.654C532.791 393.448 533.265 392.117 532.509 391.275L521.469 378.982C521.038 378.502 520.895 377.828 521.095 377.214L523.487 369.886C523.687 369.273 524.2 368.812 524.831 368.679L532.373 367.086C533.004 366.953 533.659 367.167 534.09 367.647L545.131 379.94C545.889 380.783 547.263 380.452 547.587 379.365C549.565 372.742 548.164 365.283 543.208 359.764C537.573 353.492 528.957 351.522 521.437 354.028Z" fill="#407BFF"/>
<path opacity="0.7" d="M521.437 354.028L437.267 260.309C440.25 253.726 439.665 245.76 435.229 239.698C430.308 232.971 422.307 230.216 414.868 231.594C413.754 231.801 413.28 233.132 414.036 233.974L425.076 246.267C425.507 246.747 425.65 247.421 425.449 248.034L423.058 255.362C422.857 255.975 422.345 256.436 421.714 256.569L414.172 258.162C413.541 258.296 412.885 258.082 412.455 257.602L401.413 245.309C400.656 244.466 399.282 244.798 398.958 245.884C396.979 252.507 398.381 259.966 403.337 265.485C408.971 271.758 417.587 273.726 425.107 271.221L509.278 364.94C506.293 371.523 506.88 379.488 511.315 385.551C516.237 392.278 524.239 395.033 531.677 393.654C532.791 393.448 533.265 392.117 532.509 391.275L521.469 378.982C521.038 378.502 520.895 377.828 521.095 377.214L523.487 369.886C523.687 369.273 524.2 368.812 524.831 368.679L532.373 367.086C533.004 366.953 533.659 367.167 534.09 367.647L545.131 379.94C545.889 380.783 547.263 380.452 547.587 379.365C549.565 372.742 548.164 365.283 543.208 359.764C537.573 353.492 528.957 351.522 521.437 354.028Z" fill="white"/>
<path d="M426.343 243.587C426.343 243.587 401.358 246.866 398.115 251.322C394.871 255.78 394.691 259.916 409.467 264.155L413.791 261.006C413.791 261.006 407.665 258.664 408.385 257.223C409.107 255.782 426.343 256.322 426.343 256.322V243.587Z" fill="#E4897B"/>
<path d="M435.732 243.268L432.252 255.412L426.408 256.3L414.168 258.16L413.808 253.264L413.1 243.592C413.1 243.592 425.124 241.168 435.732 243.268Z" fill="#407BFF"/>
<path opacity="0.2" d="M429.564 248.404L426.408 256.3L414.168 258.16L413.808 253.264C420.024 248.428 429.564 248.404 429.564 248.404Z" fill="black"/>
<path d="M427.158 519.077L436.89 520.097L437.382 514.457L438.714 499.109L428.982 498.077L427.506 515.033L427.158 519.077Z" fill="#E4897B"/>
<path d="M378.582 517.841H388.014L388.098 515.705L388.11 515.441L388.59 501.761L388.602 501.485L388.794 496.241H379.35L378.582 517.841Z" fill="#E4897B"/>
<path opacity="0.2" d="M428.982 498.077L427.506 515.033L437.382 514.457L438.714 499.109L428.982 498.077Z" fill="black"/>
<path opacity="0.2" d="M378.642 516.641H378.654L388.098 515.441H388.11L388.602 502.241H388.59L379.134 502.997L378.654 516.227L378.642 516.641Z" fill="black"/>
<path d="M389.322 517.274H377.862C377.476 517.276 377.142 517.545 377.058 517.922L375.198 526.322C375.038 527.074 375.52 527.812 376.272 527.972C376.373 527.993 376.476 528.003 376.578 528.002C380.286 527.942 382.986 527.714 387.642 527.714C390.51 527.714 399.162 528.014 403.122 528.014C407.082 528.014 407.598 524.102 405.978 523.742C398.706 522.158 393.234 519.962 390.906 517.874C390.474 517.478 389.908 517.263 389.322 517.274Z" fill="#263238"/>
<path d="M437.922 516.974H426.462C426.076 516.976 425.742 517.245 425.658 517.622L423.798 526.022C423.639 526.774 424.12 527.512 424.872 527.672C424.973 527.693 425.076 527.703 425.178 527.702C428.886 527.642 431.586 527.414 436.242 527.414C439.11 527.414 447.762 527.714 451.722 527.714C455.682 527.714 456.198 523.802 454.578 523.442C447.306 521.858 441.834 519.662 439.506 517.574C439.074 517.178 438.508 516.963 437.922 516.974Z" fill="#263238"/>
<path d="M439.608 513.041H425.772C425.772 513.041 421.802 393.42 406.838 353.196C408.672 427.996 391.044 514.241 391.044 514.241H377.376C377.376 514.241 383.622 446.715 383.622 417.186C383.622 364.857 369.27 339.298 383.244 305.441H433.308C445.567 379.3 450.288 431.441 439.608 513.041Z" fill="#263238"/>
<path d="M441.16 509.141L440.484 513.041H424.134V509.441L441.16 509.141Z" fill="#407BFF"/>
<path d="M392.614 510.641L391.044 514.241H377.334L376.434 510.641H392.614Z" fill="#407BFF"/>
<path d="M476.431 247.659C476.064 247.958 475.692 248.24 475.309 248.489C473.025 250.02 470.411 250.738 467.857 250.706C467.187 250.701 466.516 250.643 465.857 250.538C462.378 249.968 459.208 247.994 457.377 244.816C456.618 243.528 456.079 242.018 455.849 240.326C454.894 233.675 458.275 229.323 463.403 221.511C464.482 219.812 465.935 218.382 467.664 217.362C473.719 213.736 481.569 215.718 485.185 221.769C490.314 230.216 483.058 242.115 476.431 247.659Z" fill="#E4897B"/>
<path opacity="0.2" d="M467.857 250.706C467.186 250.701 466.516 250.643 465.857 250.538C462.378 249.968 459.208 247.994 457.376 244.816C458.977 243.759 460.601 243.264 460.601 243.264C460.601 243.264 465.592 245.894 467.857 250.706Z" fill="black"/>
<path d="M445.567 249.25C446.773 255.341 456.739 260.805 456.739 260.805C456.739 260.805 463.531 263.444 463.653 260.8C460.734 257.786 460.273 255.04 461.08 252.561C461.551 251.118 462.459 249.773 463.558 248.512C464.128 247.844 464.763 247.209 465.409 246.598L460.363 230.028C457.777 236.582 452.119 247.966 445.567 249.25Z" fill="#E4897B"/>
<path d="M489.346 222.909C488.326 217.212 485.447 216.954 485.447 216.954C485.17 212.416 474.466 207.832 467.467 209.302C460.469 210.772 455.688 216.969 453.772 222.657C450.98 230.942 452.664 241.227 452.664 241.227C452.666 241.228 452.669 241.23 452.669 241.23C458.334 245.544 464.243 246.342 466.038 243.143C467.833 239.944 472.264 238.846 472.264 238.846C474.96 241.191 479.232 238.866 479.232 238.866C479.232 238.866 484.073 237.194 484.903 232.466C485.732 227.74 490.205 227.71 489.346 222.909Z" fill="#263238"/>
<path d="M472.041 236.157C471.28 238.12 471.289 239.982 472.068 241.336C473.115 243.116 475.711 241.707 477.161 239.29C478.432 237.138 479.482 233.56 477.573 232.72C475.662 231.88 473.003 233.746 472.041 236.157Z" fill="#E4897B"/>
<path d="M473.272 209.253C483.797 206.111 492.267 223.388 491.85 232.546C491.512 239.985 483.699 239.082 483.699 239.082C483.699 239.082 488.01 238.796 487.595 233.568C487.595 233.568 485.727 239.966 481.539 235.769C477.352 231.573 482.312 221.565 482.312 221.565L473.272 209.253Z" fill="#263238"/>
<path opacity="0.2" d="M405.684 402.1C403.836 383.44 400.392 367.564 400.392 367.564C386.22 349.756 393.96 333.316 393.96 333.316C395.856 344.752 406.836 353.2 406.836 353.2C407.232 369.292 406.728 385.912 405.684 402.1Z" fill="black"/>
<path d="M445.543 246.512C445.543 246.512 448.587 244.257 454.206 247.58C459.824 250.902 461.675 257.26 461.675 257.26L445.543 246.512Z" fill="#407BFF"/>
<path d="M438.714 329.057C438.714 329.057 438.714 299.86 469.239 264.521C469.239 264.521 455.532 245.386 435.732 243.263C435.732 243.263 399.179 255.812 379.267 309.254L438.714 329.057Z" fill="#407BFF"/>
<path opacity="0.6" d="M469.236 264.52C466.008 268.264 463.116 271.936 460.536 275.512C455.436 282.58 451.524 289.276 448.536 295.372C438.72 315.364 438.72 329.056 438.72 329.056L379.272 309.256C399.18 255.808 435.732 243.268 435.732 243.268C455.532 245.392 469.236 264.52 469.236 264.52Z" fill="white"/>
<path d="M439.08 324.868C438.948 325.852 438.864 326.668 438.816 327.316L380.076 307.144C380.364 306.388 380.664 305.644 380.964 304.912L439.08 324.868Z" fill="#407BFF"/>
<path d="M440.112 318.928C439.932 319.78 439.764 320.572 439.632 321.316C419.28 313.456 396.108 304.684 382.992 300.148C383.316 299.404 383.652 298.684 383.988 297.964C398.616 303.004 423.936 312.676 440.112 318.928Z" fill="#407BFF"/>
<path d="M441.66 312.904C441.42 313.708 441.204 314.488 441 315.232C424.848 308.248 400.5 297.988 386.268 293.284C386.64 292.552 387.012 291.844 387.384 291.136C401.88 295.96 425.688 305.98 441.66 312.904Z" fill="#407BFF"/>
<path d="M443.664 306.748C443.388 307.54 443.112 308.308 442.86 309.052C427.092 301.444 404.472 291.04 389.916 286.6C390.324 285.88 390.744 285.172 391.164 284.488C405.972 289.072 428.1 299.236 443.664 306.748Z" fill="#407BFF"/>
<path d="M446.148 300.544C445.812 301.3 445.5 302.044 445.212 302.788C430.128 294.724 409.188 284.356 393.948 280.096C394.416 279.388 394.896 278.68 395.376 277.996C410.82 282.448 431.292 292.576 446.148 300.544Z" fill="#407BFF"/>
<path d="M449.076 294.268C448.704 295.012 448.344 295.756 447.996 296.488C433.812 288.124 414.516 277.936 398.448 273.76C398.976 273.052 399.504 272.368 400.044 271.684C416.232 276.076 435.108 286.024 449.076 294.268Z" fill="#407BFF"/>
<path d="M452.448 288.004C452.028 288.736 451.632 289.456 451.236 290.164C438.072 281.668 420.3 271.78 403.488 267.556C404.088 266.86 404.688 266.188 405.312 265.528C422.136 269.956 439.5 279.616 452.448 288.004Z" fill="#407BFF"/>
<path d="M456.192 281.872C455.748 282.544 455.328 283.216 454.908 283.888C442.812 275.38 426.468 265.864 409.152 261.532C409.836 260.86 410.508 260.212 411.18 259.588C428.256 264.148 444.264 273.496 456.192 281.872Z" fill="#407BFF"/>
<path d="M460.368 275.74C459.9 276.4 459.444 277.048 458.988 277.684C448.008 269.296 433.032 260.2 415.596 255.688C416.388 255.04 417.156 254.416 417.912 253.828C434.94 258.568 449.556 267.484 460.368 275.74Z" fill="#407BFF"/>
<path d="M464.94 269.704C464.436 270.34 463.944 270.964 463.464 271.6C453.624 263.464 440.04 254.836 423.012 250.12C423.936 249.496 424.824 248.932 425.676 248.404C442.104 253.312 455.268 261.736 464.94 269.704Z" fill="#407BFF"/>
<path d="M469.236 264.52C468.912 264.892 468.6 265.264 468.288 265.636C459.672 257.944 447.66 249.928 431.784 244.996C433.26 244.264 434.376 243.796 435.036 243.532C447.744 247.84 457.92 254.068 465.816 260.416C465.816 260.416 465.828 260.416 465.828 260.428C468.036 262.84 469.236 264.52 469.236 264.52Z" fill="#407BFF"/>
<path opacity="0.2" d="M460.536 275.512C455.436 282.58 451.524 289.276 448.536 295.372C448.152 279.988 459.624 271.6 459.624 271.6L460.536 275.512Z" fill="black"/>
<path d="M469.239 273.548V310.538L483.561 336.304L489.456 342.867C489.456 342.867 482.573 347.12 480.673 344.387C478.775 341.655 476.875 336.304 476.875 336.304C476.875 336.304 462.647 317.194 460.418 312.624C458.19 308.055 457.377 280.456 457.377 280.456L469.239 273.548Z" fill="#E4897B"/>
<path d="M469.24 264.521C471.494 270.762 471.476 292.029 471.476 292.029L455.488 293.428L454.206 285.028C454.206 285.028 454.322 277.414 459.706 269.892C463.366 264.777 469.24 264.521 469.24 264.521Z" fill="#407BFF"/>
</svg>
