<svg width="1009" height="650" viewBox="0 0 1009 650" fill="none" xmlns="http://www.w3.org/2000/svg">
<rect x="320.598" y="0.000793457" width="688.401" height="650" fill="#3982E0"/>
<path d="M14.0235 340.261C6.27855 332.385 6.27854 319.616 14.0235 311.741L320.598 0.000765848L639.23 324.001L318.632 650.001L14.0235 340.261Z" fill="#4395FF"/>
<g clip-path="url(#clip0_163_2145)">
<path d="M815.146 503.193H776.058V503.493H815.146V503.193Z" fill="#EBEBEB"/>
<path d="M675.088 506.449H664.83V506.75H675.088V506.449Z" fill="#EBEBEB"/>
<path d="M774.877 492.049H752.228V492.35H774.877V492.049Z" fill="#EBEBEB"/>
<path d="M397.09 494.065H346.118V494.366H397.09V494.065Z" fill="#EBEBEB"/>
<path d="M415.072 494.065H407.598V494.366H415.072V494.065Z" fill="#EBEBEB"/>
<path d="M549.91 499.133H439.361V499.433H549.91V499.133Z" fill="#EBEBEB"/>
<path d="M563.914 430.36H336.035C332.321 430.36 329.299 427.287 329.299 423.51V97.7917C329.299 94.0153 332.321 90.9421 336.035 90.9421H563.914C567.627 90.9421 570.649 94.0153 570.649 97.7917V423.51C570.649 427.287 567.627 430.36 563.914 430.36ZM336.035 91.2433C332.483 91.2433 329.594 94.1809 329.594 97.7929V423.511C329.594 427.123 332.483 430.061 336.035 430.061H563.914C567.465 430.061 570.354 427.123 570.354 423.511V97.7917C570.354 94.1809 567.465 91.2421 563.914 91.2421L336.035 91.2433Z" fill="#EBEBEB"/>
<path d="M819.169 430.36H591.291C587.577 430.36 584.556 427.287 584.556 423.51V97.7917C584.556 94.0153 587.578 90.9421 591.291 90.9421H819.169C822.884 90.9421 825.905 94.0153 825.905 97.7917V423.51C825.906 427.287 822.884 430.36 819.169 430.36ZM591.291 91.2433C587.74 91.2433 584.851 94.1809 584.851 97.7929V423.511C584.851 427.123 587.74 430.061 591.291 430.061H819.169C822.721 430.061 825.61 427.123 825.61 423.511V97.7917C825.61 94.1809 822.721 91.2421 819.169 91.2421L591.291 91.2433Z" fill="#EBEBEB"/>
<path d="M874.268 483.877H284.21V484.178H874.268V483.877Z" fill="#EBEBEB"/>
<path d="M523.917 408.534H381.595V146.565L383.045 145.149C401.84 126.781 426.6 116.664 452.756 116.664C452.755 116.664 452.757 116.664 452.756 116.664C478.913 116.665 503.671 126.78 522.466 145.149L523.917 146.566V408.534ZM391.036 398.934H514.476V150.684C497.634 134.921 475.795 126.264 452.756 126.264C429.716 126.264 407.878 134.921 391.036 150.684V398.934Z" fill="#E0E0E0"/>
<path d="M516.264 193.199V185.999H456.296V125.021H449.215V185.999H389.247V193.199H449.215V258.978H389.247V266.178H449.215V331.956H389.247V339.156H449.215V400.135H456.296V339.156H516.264V331.956H456.296V266.178H516.264V258.978H456.296V193.199H516.264Z" fill="#F5F5F5"/>
<path d="M528.637 413.334H376.874V144.605L378.256 143.199C419.336 101.429 486.175 101.429 527.254 143.199L528.636 144.605V413.334H528.637ZM386.315 403.734H519.196V148.608C482.159 112.415 423.352 112.414 386.315 148.608V403.734Z" fill="#EBEBEB"/>
<path d="M774.766 408.534H632.444V146.565L633.894 145.149C652.689 126.781 677.449 116.664 703.605 116.664C703.606 116.664 703.604 116.664 703.606 116.664C729.763 116.665 754.521 126.78 773.317 145.149L774.766 146.566V408.534ZM641.885 398.934H765.325V150.684C748.484 134.921 726.644 126.264 703.605 126.264C680.565 126.264 658.727 134.921 641.885 150.684V398.934Z" fill="#E0E0E0"/>
<path d="M767.114 193.199V185.999H707.145V125.021H700.064V185.999H640.097V193.199H700.064V258.978H640.097V266.178H700.064V331.956H640.097V339.156H700.064V400.135H707.145V339.156H767.114V331.956H707.145V266.178H767.114V258.978H707.145V193.199H767.114Z" fill="#F5F5F5"/>
<path d="M779.486 413.334H627.723V144.605L629.105 143.199C670.184 101.429 737.024 101.429 778.103 143.199L779.485 144.605L779.486 413.334ZM637.164 403.734H770.045V148.608C733.008 112.415 674.201 112.414 637.164 148.608V403.734Z" fill="#EBEBEB"/>
<path d="M580.629 462.621H604.328C605.189 462.621 605.885 463.33 605.885 464.203V468.354C605.885 469.228 605.189 469.937 604.328 469.937H580.629C579.769 469.937 579.073 469.228 579.073 468.354V464.203C579.073 463.329 579.769 462.621 580.629 462.621Z" fill="#EBEBEB"/>
<path d="M552.507 462.621H576.206C577.065 462.621 577.763 463.33 577.763 464.203V468.354C577.763 469.228 577.065 469.937 576.206 469.937H552.507C551.647 469.937 550.951 469.228 550.951 468.354V464.203C550.951 463.329 551.648 462.621 552.507 462.621Z" fill="#F5F5F5"/>
<path d="M565.033 453.553H588.732C589.591 453.553 590.288 454.261 590.288 455.136V459.287C590.288 460.161 589.591 460.87 588.732 460.87H565.033C564.172 460.87 563.476 460.161 563.476 459.287V455.136C563.476 454.263 564.172 453.553 565.033 453.553Z" fill="#F5F5F5"/>
<path d="M536.97 453.553H560.669C561.529 453.553 562.225 454.261 562.225 455.136V459.287C562.225 460.161 561.529 460.87 560.669 460.87H536.97C536.109 460.87 535.413 460.161 535.413 459.287V455.136C535.413 454.263 536.109 453.553 536.97 453.553Z" fill="#F0F0F0"/>
<path d="M381.585 458.087H405.284C406.143 458.087 406.841 458.795 406.841 459.67V463.821C406.841 464.694 406.143 465.403 405.284 465.403H381.585C380.726 465.403 380.028 464.694 380.028 463.821V459.67C380.028 458.795 380.725 458.087 381.585 458.087Z" fill="#F0F0F0"/>
<path d="M353.463 458.087H377.162C378.021 458.087 378.719 458.795 378.719 459.67V463.821C378.719 464.694 378.022 465.403 377.162 465.403H353.463C352.603 465.403 351.906 464.694 351.906 463.821V459.67C351.906 458.795 352.604 458.087 353.463 458.087Z" fill="#F5F5F5"/>
<path d="M365.989 449.02H389.688C390.548 449.02 391.244 449.729 391.244 450.603V454.753C391.244 455.628 390.548 456.336 389.688 456.336H365.989C365.13 456.336 364.432 455.628 364.432 454.753V450.603C364.432 449.729 365.128 449.02 365.989 449.02Z" fill="#F5F5F5"/>
<path d="M337.924 449.02H361.623C362.484 449.02 363.18 449.729 363.18 450.603V454.753C363.18 455.628 362.484 456.336 361.623 456.336H337.924C337.064 456.336 336.368 455.628 336.368 454.753V450.603C336.368 449.729 337.065 449.02 337.924 449.02Z" fill="#F5F5F5"/>
<path d="M364.633 112.465H388.332C389.192 112.465 389.888 113.175 389.888 114.048V118.199C389.888 119.074 389.192 119.782 388.332 119.782H364.633C363.772 119.782 363.076 119.074 363.076 118.199V114.048C363.076 113.175 363.774 112.465 364.633 112.465Z" fill="#F5F5F5"/>
<path d="M377.157 103.399H400.856C401.717 103.399 402.413 104.107 402.413 104.982V109.133C402.413 110.007 401.717 110.716 400.856 110.716H377.157C376.298 110.716 375.601 110.007 375.601 109.133V104.982C375.601 104.107 376.298 103.399 377.157 103.399Z" fill="#F5F5F5"/>
<path d="M349.094 103.399H372.793C373.654 103.399 374.35 104.107 374.35 104.982V109.133C374.35 110.007 373.654 110.716 372.793 110.716H349.094C348.235 110.716 347.538 110.007 347.538 109.133V104.982C347.538 104.107 348.235 103.399 349.094 103.399Z" fill="#F0F0F0"/>
<path d="M789.468 120.658H813.167C814.026 120.658 814.723 121.367 814.723 122.241V126.391C814.723 127.266 814.026 127.974 813.167 127.974H789.468C788.609 127.974 787.911 127.266 787.911 126.391V122.241C787.911 121.366 788.607 120.658 789.468 120.658Z" fill="#F0F0F0"/>
<path d="M773.87 111.591H797.569C798.429 111.591 799.126 112.299 799.126 113.173V117.324C799.126 118.198 798.429 118.907 797.569 118.907H773.87C773.011 118.907 772.313 118.198 772.313 117.324V113.173C772.313 112.3 773.011 111.591 773.87 111.591Z" fill="#F5F5F5"/>
<path d="M705.352 413.122H634.744V484.92H705.352V413.122Z" fill="#F5F5F5"/>
<path d="M748.724 413.122H705.353V484.92H748.724V413.122Z" fill="#EBEBEB"/>
<path d="M722.703 413.122V440.296L723.824 439.259L725.806 440.519L727.54 439.259L729.77 440.519L732.124 439.259L733.609 440.519L735.337 439.594V413.122H722.703Z" fill="#E0E0E0"/>
<path opacity="0.7" d="M722.703 413.122V440.296L723.824 439.259L725.806 440.519L727.54 439.259L729.77 440.519L732.124 439.259L733.609 440.519L735.337 439.594V413.122H722.703Z" fill="#E0E0E0"/>
<path d="M771.295 442.167H729.251V484.919H771.295V442.167Z" fill="#F5F5F5"/>
<path d="M797.121 442.167H771.295V484.919H797.121V442.167Z" fill="#E6E6E6"/>
<path d="M763.262 454.186H721.218L729.251 442.167H771.295L763.262 454.186Z" fill="#E6E6E6"/>
<path d="M778.903 454.186H804.729L797.121 442.167H771.295L778.903 454.186Z" fill="#F5F5F5"/>
<path d="M633.764 442.167H591.72V484.919H633.764V442.167Z" fill="#F5F5F5"/>
<path d="M659.59 442.167H633.764V484.919H659.59V442.167Z" fill="#E6E6E6"/>
<path d="M625.731 431.436H583.687L591.72 442.167H633.764L625.731 431.436Z" fill="#E6E6E6"/>
<path d="M641.372 431.436H667.198L659.59 442.167H633.764L641.372 431.436Z" fill="#EBEBEB"/>
<path d="M573.549 533.457C699.918 533.457 802.36 527.373 802.36 519.869C802.36 512.365 699.918 506.281 573.549 506.281C447.179 506.281 344.737 512.365 344.737 519.869C344.737 527.373 447.179 533.457 573.549 533.457Z" fill="#F5F5F5"/>
<path d="M659.951 300.147H503.465C501.478 300.147 499.861 301.791 499.861 303.811V308.535C499.861 310.555 501.478 312.199 503.465 312.199H659.951C661.939 312.199 663.555 310.555 663.555 308.535V303.811C663.555 301.791 661.939 300.147 659.951 300.147Z" fill="#407BFF"/>
<path opacity="0.8" d="M659.951 300.147H503.465C501.478 300.147 499.861 301.791 499.861 303.811V308.535C499.861 310.555 501.478 312.199 503.465 312.199H659.951C661.939 312.199 663.555 310.555 663.555 308.535V303.811C663.555 301.791 661.939 300.147 659.951 300.147Z" fill="white"/>
<path d="M659.951 318.773H503.465C497.913 318.773 493.396 314.181 493.396 308.535V303.811C493.396 298.165 497.913 293.573 503.465 293.573H659.951C665.504 293.573 670.021 298.165 670.021 303.811V308.535C670.02 314.181 665.502 318.773 659.951 318.773ZM503.465 295.764C499.101 295.764 495.551 299.374 495.551 303.811V308.535C495.551 312.972 499.101 316.582 503.465 316.582H659.951C664.315 316.582 667.866 312.972 667.866 308.535V303.811C667.866 299.374 664.316 295.764 659.951 295.764H503.465Z" fill="#263238"/>
<g opacity="0.3">
<path d="M659.951 318.773H503.465C497.913 318.773 493.396 314.181 493.396 308.535V303.811C493.396 298.165 497.913 293.573 503.465 293.573H659.951C665.504 293.573 670.021 298.165 670.021 303.811V308.535C670.02 314.181 665.502 318.773 659.951 318.773ZM503.465 295.764C499.101 295.764 495.551 299.374 495.551 303.811V308.535C495.551 312.972 499.101 316.582 503.465 316.582H659.951C664.315 316.582 667.866 312.972 667.866 308.535V303.811C667.866 299.374 664.316 295.764 659.951 295.764H503.465Z" fill="white"/>
</g>
<path d="M623.977 300.147H503.465C501.478 300.147 499.861 301.791 499.861 303.811V308.535C499.861 310.555 501.478 312.199 503.465 312.199H612.125L623.977 300.147Z" fill="#407BFF"/>
<path d="M733.116 318.773H686.058C685.208 318.773 684.396 318.418 683.811 317.791L674.915 308.262C673.774 307.041 673.781 305.121 674.932 303.907L683.814 294.537C684.399 293.921 685.203 293.573 686.045 293.573H733.117C734.828 293.573 736.215 294.983 736.215 296.723V315.623C736.214 317.363 734.827 318.773 733.116 318.773Z" fill="#407BFF"/>
<path d="M700.125 298.708V300.961L694.641 313.722H690.928L696.224 301.539H691.33V303.984H688.292V298.708H700.125Z" fill="white"/>
<path d="M712.676 310.891V313.722H701.518V311.471L707.213 306C707.817 305.416 708.224 304.911 708.435 304.488C708.647 304.066 708.752 303.648 708.752 303.233C708.752 302.633 708.551 302.172 708.15 301.851C707.749 301.528 707.162 301.367 706.389 301.367C705.742 301.367 705.158 301.493 704.638 301.743C704.117 301.995 703.682 302.369 703.33 302.868L700.841 301.237C701.417 300.366 702.211 299.683 703.225 299.19C704.237 298.696 705.398 298.45 706.705 298.45C707.803 298.45 708.762 298.631 709.584 298.996C710.406 299.361 711.046 299.875 711.504 300.54C711.96 301.205 712.188 301.987 712.188 302.89C712.188 303.705 712.021 304.469 711.683 305.183C711.344 305.898 710.692 306.714 709.721 307.629L706.324 310.889H712.676V310.891Z" fill="white"/>
<path d="M715.069 305.691C714.388 304.941 714.047 303.936 714.047 302.678C714.047 301.419 714.388 300.413 715.069 299.663C715.751 298.913 716.634 298.538 717.717 298.538C718.799 298.538 719.678 298.913 720.353 299.663C721.028 300.414 721.365 301.419 721.365 302.678C721.365 303.936 721.027 304.94 720.353 305.691C719.678 306.441 718.799 306.816 717.717 306.816C716.634 306.816 715.752 306.441 715.069 305.691ZM718.845 304.458C719.119 304.056 719.256 303.464 719.256 302.678C719.256 301.89 719.119 301.298 718.845 300.897C718.57 300.497 718.195 300.297 717.717 300.297C717.253 300.297 716.88 300.5 716.598 300.908C716.316 301.314 716.177 301.905 716.177 302.678C716.177 303.449 716.316 304.04 716.598 304.445C716.879 304.853 717.252 305.058 717.717 305.058C718.195 305.058 718.571 304.858 718.845 304.458ZM726.512 298.708H729.023L718.94 313.722H716.431L726.512 298.708ZM725.848 313.391C725.292 313.054 724.86 312.573 724.551 311.943C724.242 311.314 724.087 310.584 724.087 309.756C724.087 308.928 724.242 308.198 724.551 307.568C724.86 306.939 725.292 306.456 725.848 306.12C726.404 305.786 727.033 305.616 727.735 305.616C728.818 305.616 729.7 305.992 730.383 306.742C731.064 307.492 731.406 308.498 731.406 309.756C731.406 311.015 731.064 312.018 730.383 312.768C729.701 313.52 728.818 313.894 727.735 313.894C727.033 313.894 726.404 313.726 725.848 313.391ZM728.864 311.524C729.139 311.117 729.275 310.527 729.275 309.756C729.275 308.982 729.138 308.393 728.864 307.986C728.591 307.578 728.214 307.376 727.736 307.376C727.272 307.376 726.9 307.576 726.619 307.976C726.338 308.375 726.196 308.969 726.196 309.756C726.196 310.541 726.337 311.135 726.619 311.537C726.9 311.937 727.272 312.137 727.736 312.137C728.214 312.136 728.591 311.932 728.864 311.524Z" fill="white"/>
<path d="M785.373 189.877L775.042 190.051C773.734 187.194 772.183 184.479 770.416 181.924L775.73 172.912C772.997 169.48 769.917 166.349 766.543 163.57L757.681 168.973C755.17 167.177 752.498 165.6 749.688 164.269L749.86 153.765C745.86 152.2 741.666 151.036 737.316 150.343L732.291 159.541C730.77 159.406 729.233 159.323 727.677 159.323C726.121 159.323 724.585 159.406 723.063 159.541L718.038 150.343C713.688 151.036 709.494 152.2 705.494 153.765L705.665 164.269C702.855 165.599 700.184 167.177 697.672 168.973L688.81 163.57C685.435 166.349 682.356 169.48 679.622 172.912L684.937 181.924C683.17 184.477 681.619 187.194 680.31 190.051L669.98 189.877C668.441 193.944 667.296 198.209 666.615 202.632L675.661 207.742C675.527 209.289 675.446 210.852 675.446 212.434C675.446 214.017 675.527 215.579 675.661 217.126L666.615 222.235C667.296 226.659 668.441 230.923 669.98 234.99L680.31 234.816C681.618 237.673 683.17 240.389 684.937 242.943L679.622 251.955C682.356 255.385 685.435 258.517 688.81 261.297L697.672 255.893C700.184 257.689 702.855 259.266 705.665 260.597L705.494 271.102C709.494 272.667 713.688 273.831 718.038 274.523L723.063 265.325C724.584 265.461 726.121 265.543 727.677 265.543C729.233 265.543 730.77 265.461 732.291 265.325L737.316 274.523C741.666 273.831 745.86 272.667 749.86 271.102L749.688 260.597C752.498 259.267 755.17 257.689 757.681 255.893L766.543 261.297C769.917 258.517 772.997 255.387 775.73 251.955L770.416 242.943C772.183 240.389 773.733 237.672 775.042 234.816L785.373 234.99C786.912 230.923 788.056 226.659 788.737 222.235L779.692 217.126C779.825 215.579 779.906 214.017 779.906 212.434C779.906 210.851 779.825 209.289 779.692 207.742L788.737 202.632C788.056 198.208 786.912 193.943 785.373 189.877Z" fill="#407BFF"/>
<path opacity="0.4" d="M785.373 189.877L775.042 190.051C773.734 187.194 772.183 184.479 770.416 181.924L775.73 172.912C772.997 169.48 769.917 166.349 766.543 163.57L757.681 168.973C755.17 167.177 752.498 165.6 749.688 164.269L749.86 153.765C745.86 152.2 741.666 151.036 737.316 150.343L732.291 159.541C730.77 159.406 729.233 159.323 727.677 159.323C726.121 159.323 724.585 159.406 723.063 159.541L718.038 150.343C713.688 151.036 709.494 152.2 705.494 153.765L705.665 164.269C702.855 165.599 700.184 167.177 697.672 168.973L688.81 163.57C685.435 166.349 682.356 169.48 679.622 172.912L684.937 181.924C683.17 184.477 681.619 187.194 680.31 190.051L669.98 189.877C668.441 193.944 667.296 198.209 666.615 202.632L675.661 207.742C675.527 209.289 675.446 210.852 675.446 212.434C675.446 214.017 675.527 215.579 675.661 217.126L666.615 222.235C667.296 226.659 668.441 230.923 669.98 234.99L680.31 234.816C681.618 237.673 683.17 240.389 684.937 242.943L679.622 251.955C682.356 255.385 685.435 258.517 688.81 261.297L697.672 255.893C700.184 257.689 702.855 259.266 705.665 260.597L705.494 271.102C709.494 272.667 713.688 273.831 718.038 274.523L723.063 265.325C724.584 265.461 726.121 265.543 727.677 265.543C729.233 265.543 730.77 265.461 732.291 265.325L737.316 274.523C741.666 273.831 745.86 272.667 749.86 271.102L749.688 260.597C752.498 259.267 755.17 257.689 757.681 255.893L766.543 261.297C769.917 258.517 772.997 255.387 775.73 251.955L770.416 242.943C772.183 240.389 773.733 237.672 775.042 234.816L785.373 234.99C786.912 230.923 788.056 226.659 788.737 222.235L779.692 217.126C779.825 215.579 779.906 214.017 779.906 212.434C779.906 210.851 779.825 209.289 779.692 207.742L788.737 202.632C788.056 198.208 786.912 193.943 785.373 189.877Z" fill="white"/>
<path opacity="0.2" d="M727.677 243.945C744.791 243.945 758.665 229.837 758.665 212.434C758.665 195.031 744.791 180.923 727.677 180.923C710.562 180.923 696.688 195.031 696.688 212.434C696.688 229.837 710.562 243.945 727.677 243.945Z" fill="black"/>
<path d="M744.164 218.977C745.636 217.351 745.644 214.75 744.183 213.113C744.156 213.079 744.131 213.045 744.103 213.012C744.087 212.995 744.076 212.975 744.059 212.958C740.821 209.665 737.583 206.373 734.345 203.08C730.447 199.116 724.396 205.266 728.295 209.231C729.099 210.048 729.904 210.867 730.708 211.684C725.208 211.684 719.71 211.684 714.211 211.684C708.707 211.684 708.697 220.383 714.211 220.383C719.71 220.383 725.209 220.383 730.708 220.383C729.904 221.2 729.099 222.018 728.295 222.835C724.397 226.799 730.446 232.951 734.345 228.987C737.583 225.694 740.821 222.401 744.059 219.108C744.079 219.088 744.091 219.064 744.111 219.043C744.13 219.022 744.147 218.999 744.164 218.977Z" fill="#407BFF"/>
<path opacity="0.4" d="M744.164 218.977C745.636 217.351 745.644 214.75 744.183 213.113C744.156 213.079 744.131 213.045 744.103 213.012C744.087 212.995 744.076 212.975 744.059 212.958C740.821 209.665 737.583 206.373 734.345 203.08C730.447 199.116 724.396 205.266 728.295 209.231C729.099 210.048 729.904 210.867 730.708 211.684C725.208 211.684 719.71 211.684 714.211 211.684C708.707 211.684 708.697 220.383 714.211 220.383C719.71 220.383 725.209 220.383 730.708 220.383C729.904 221.2 729.099 222.018 728.295 222.835C724.397 226.799 730.446 232.951 734.345 228.987C737.583 225.694 740.821 222.401 744.059 219.108C744.079 219.088 744.091 219.064 744.111 219.043C744.13 219.022 744.147 218.999 744.164 218.977Z" fill="black"/>
<path d="M744.164 215.377C745.636 213.751 745.644 211.15 744.183 209.513C744.156 209.479 744.131 209.445 744.103 209.412C744.087 209.395 744.076 209.375 744.059 209.358C740.821 206.065 737.583 202.773 734.345 199.48C730.447 195.516 724.396 201.666 728.295 205.631C729.099 206.448 729.904 207.267 730.708 208.084C725.208 208.084 719.71 208.084 714.211 208.084C708.707 208.084 708.697 216.783 714.211 216.783C719.71 216.783 725.209 216.783 730.708 216.783C729.904 217.6 729.099 218.418 728.295 219.235C724.397 223.199 730.446 229.351 734.345 225.387C737.583 222.094 740.821 218.801 744.059 215.508C744.079 215.488 744.091 215.464 744.111 215.443C744.13 215.422 744.147 215.399 744.164 215.377Z" fill="#407BFF"/>
<path d="M743.467 145.927C746.104 146.581 748.692 147.381 751.241 148.327C751.884 148.566 752.161 147.523 751.523 147.286C748.974 146.338 746.386 145.539 743.749 144.886C743.086 144.721 742.803 145.762 743.467 145.927Z" fill="#407BFF"/>
<path d="M679.532 164.489C692.545 151.455 709.412 144.306 727.677 144.046C728.36 144.036 728.361 142.956 727.677 142.966C709.14 143.231 691.993 150.493 678.781 163.726C678.293 164.213 679.044 164.977 679.532 164.489Z" fill="#407BFF"/>
<path d="M656.223 224.927C656.874 222.385 657.316 219.839 657.566 217.305L669.185 214.264C669.231 212.767 669.235 211.275 669.172 209.793L657.494 206.904C656.919 201.717 655.546 196.701 653.462 192.027L662.032 183.483C661.335 182.167 660.592 180.879 659.803 179.619L648.286 183.049C645.292 178.918 641.658 175.248 637.487 172.205L640.713 160.432C639.471 159.653 638.188 158.927 636.882 158.237L628.596 167.062C626.3 166.045 623.9 165.193 621.4 164.53C618.901 163.867 616.396 163.419 613.904 163.165L610.914 151.349C609.442 151.303 607.974 151.299 606.517 151.362L603.676 163.237C598.574 163.822 593.641 165.219 589.045 167.338L580.642 158.623C579.349 159.331 578.082 160.087 576.842 160.889L580.218 172.601C576.154 175.645 572.546 179.34 569.553 183.581L557.976 180.301C557.21 181.564 556.496 182.868 555.817 184.197L564.497 192.622C563.498 194.957 562.66 197.398 562.007 199.939C561.356 202.481 560.914 205.027 560.664 207.562L549.044 210.603C548.999 212.099 548.994 213.592 549.057 215.074L560.735 217.962C561.31 223.15 562.683 228.166 564.767 232.84L556.197 241.384C556.894 242.699 557.636 243.988 558.426 245.248L569.943 241.816C572.937 245.947 576.571 249.617 580.742 252.66L577.516 264.433C578.758 265.213 580.041 265.938 581.347 266.628L589.633 257.803C591.929 258.82 594.329 259.672 596.829 260.334C599.328 260.998 601.833 261.445 604.324 261.7L607.314 273.515C608.786 273.561 610.254 273.565 611.711 273.502L614.552 261.627C619.654 261.042 624.586 259.645 629.183 257.526L637.585 266.241C638.879 265.533 640.146 264.777 641.385 263.975L638.01 252.263C642.075 249.219 645.682 245.524 648.675 241.283L660.252 244.563C661.019 243.3 661.732 241.996 662.41 240.667L653.732 232.243C654.734 229.909 655.572 227.469 656.223 224.927Z" fill="#407BFF"/>
<path opacity="0.2" d="M656.223 224.927C656.874 222.385 657.316 219.839 657.566 217.305L669.185 214.264C669.231 212.767 669.235 211.275 669.172 209.793L657.494 206.904C656.919 201.717 655.546 196.701 653.462 192.027L662.032 183.483C661.335 182.167 660.592 180.879 659.803 179.619L648.286 183.049C645.292 178.918 641.658 175.248 637.487 172.205L640.713 160.432C639.471 159.653 638.188 158.927 636.882 158.237L628.596 167.062C626.3 166.045 623.9 165.193 621.4 164.53C618.901 163.867 616.396 163.419 613.904 163.165L610.914 151.349C609.442 151.303 607.974 151.299 606.517 151.362L603.676 163.237C598.574 163.822 593.641 165.219 589.045 167.338L580.642 158.623C579.349 159.331 578.082 160.087 576.842 160.889L580.218 172.601C576.154 175.645 572.546 179.34 569.553 183.581L557.976 180.301C557.21 181.564 556.496 182.868 555.817 184.197L564.497 192.622C563.498 194.957 562.66 197.398 562.007 199.939C561.356 202.481 560.914 205.027 560.664 207.562L549.044 210.603C548.999 212.099 548.994 213.592 549.057 215.074L560.735 217.962C561.31 223.15 562.683 228.166 564.767 232.84L556.197 241.384C556.894 242.699 557.636 243.988 558.426 245.248L569.943 241.816C572.937 245.947 576.571 249.617 580.742 252.66L577.516 264.433C578.758 265.213 580.041 265.938 581.347 266.628L589.633 257.803C591.929 258.82 594.329 259.672 596.829 260.334C599.328 260.998 601.833 261.445 604.324 261.7L607.314 273.515C608.786 273.561 610.254 273.565 611.711 273.502L614.552 261.627C619.654 261.042 624.586 259.645 629.183 257.526L637.585 266.241C638.879 265.533 640.146 264.777 641.385 263.975L638.01 252.263C642.075 249.219 645.682 245.524 648.675 241.283L660.252 244.563C661.019 243.3 661.732 241.996 662.41 240.667L653.732 232.243C654.734 229.909 655.572 227.469 656.223 224.927Z" fill="white"/>
<path opacity="0.3" d="M609.115 243.808C626.155 243.808 639.969 229.761 639.969 212.434C639.969 195.106 626.155 181.06 609.115 181.06C592.075 181.06 578.261 195.106 578.261 212.434C578.261 229.761 592.075 243.808 609.115 243.808Z" fill="black"/>
<path d="M623.955 218.502C625.279 217.039 625.286 214.698 623.972 213.225C623.947 213.195 623.924 213.163 623.9 213.133C623.886 213.118 623.876 213.1 623.861 213.084C620.946 210.121 618.032 207.157 615.118 204.195C611.61 200.627 606.165 206.161 609.675 209.73C610.398 210.466 611.123 211.201 611.846 211.938C606.897 211.938 601.948 211.938 596.999 211.938C592.045 211.938 592.037 219.767 596.999 219.767C601.948 219.767 606.898 219.767 611.846 219.767C611.123 220.503 610.399 221.238 609.675 221.975C606.166 225.543 611.609 231.079 615.118 227.511C618.032 224.548 620.947 221.584 623.861 218.621C623.878 218.603 623.89 218.581 623.907 218.562C623.923 218.543 623.939 218.523 623.955 218.502Z" fill="#407BFF"/>
<path opacity="0.4" d="M623.955 218.502C625.279 217.039 625.286 214.698 623.972 213.225C623.947 213.195 623.924 213.163 623.9 213.133C623.886 213.118 623.876 213.1 623.861 213.084C620.946 210.121 618.032 207.157 615.118 204.195C611.61 200.627 606.165 206.161 609.675 209.73C610.398 210.466 611.123 211.201 611.846 211.938C606.897 211.938 601.948 211.938 596.999 211.938C592.045 211.938 592.037 219.767 596.999 219.767C601.948 219.767 606.898 219.767 611.846 219.767C611.123 220.503 610.399 221.238 609.675 221.975C606.166 225.543 611.609 231.079 615.118 227.511C618.032 224.548 620.947 221.584 623.861 218.621C623.878 218.603 623.89 218.581 623.907 218.562C623.923 218.543 623.939 218.523 623.955 218.502Z" fill="black"/>
<path d="M623.955 215.262C625.279 213.799 625.286 211.458 623.972 209.983C623.947 209.953 623.924 209.922 623.9 209.892C623.886 209.877 623.876 209.859 623.861 209.843C620.946 206.88 618.032 203.916 615.118 200.953C611.61 197.386 606.165 202.92 609.675 206.489C610.398 207.225 611.123 207.96 611.846 208.697C606.897 208.697 601.948 208.697 596.999 208.697C592.045 208.697 592.037 216.526 596.999 216.526C601.948 216.526 606.898 216.526 611.846 216.526C611.123 217.261 610.399 217.997 609.675 218.734C606.166 222.301 611.609 227.838 615.118 224.269C618.032 221.307 620.947 218.343 623.861 215.38C623.878 215.362 623.89 215.34 623.907 215.321C623.923 215.303 623.939 215.283 623.955 215.262Z" fill="#407BFF"/>
<path d="M609.115 277.713C593.36 277.474 578.745 271.864 566.814 261.389C566.298 260.937 565.544 261.697 566.063 262.152C578.21 272.818 593.068 278.549 609.116 278.793C609.8 278.802 609.8 277.722 609.115 277.713Z" fill="#407BFF"/>
<path d="M627.501 274.977C623.584 276.144 619.612 276.949 615.553 277.389C614.88 277.462 614.873 278.542 615.553 278.469C619.707 278.019 623.773 277.212 627.783 276.017C628.438 275.823 628.16 274.78 627.501 274.977Z" fill="#407BFF"/>
<path d="M546.096 192.895L537.147 193.045C536.014 190.571 534.67 188.218 533.141 186.006L537.743 178.2C535.376 175.228 532.709 172.516 529.785 170.109L522.109 174.79C519.934 173.235 517.62 171.868 515.186 170.716L515.335 161.616C511.871 160.261 508.238 159.252 504.47 158.652L500.117 166.619C498.799 166.501 497.468 166.431 496.12 166.431C494.773 166.431 493.441 166.503 492.123 166.619L487.771 158.652C484.003 159.252 480.37 160.26 476.906 161.615L477.054 170.715C474.621 171.867 472.307 173.233 470.132 174.789L462.455 170.107C459.532 172.515 456.865 175.227 454.498 178.199L459.1 186.005C457.571 188.217 456.226 190.57 455.093 193.044L446.145 192.894C444.812 196.416 443.821 200.111 443.231 203.943L451.066 208.368C450.95 209.709 450.879 211.062 450.879 212.433C450.879 213.803 450.949 215.157 451.066 216.497L443.231 220.923C443.821 224.754 444.812 228.448 446.145 231.97L455.093 231.82C456.226 234.294 457.571 236.647 459.1 238.859L454.498 246.665C456.865 249.637 459.532 252.349 462.455 254.757L470.132 250.077C472.307 251.632 474.621 252.999 477.054 254.151L476.906 263.25C480.37 264.605 484.003 265.614 487.771 266.214L492.123 258.247C493.441 258.365 494.773 258.436 496.12 258.436C497.468 258.436 498.799 258.364 500.117 258.247L504.47 266.214C508.238 265.614 511.87 264.606 515.335 263.25L515.186 254.151C517.62 252.999 519.934 251.632 522.109 250.077L529.785 254.757C532.709 252.349 535.377 249.637 537.743 246.665L533.141 238.859C534.67 236.647 536.014 234.294 537.147 231.82L546.096 231.97C547.428 228.448 548.421 224.753 549.011 220.921L541.176 216.496C541.292 215.155 541.361 213.802 541.361 212.431C541.361 211.061 541.292 209.707 541.176 208.367L549.011 203.941C548.421 200.112 547.429 196.419 546.096 192.895Z" fill="#407BFF"/>
<path opacity="0.3" d="M546.096 192.895L537.147 193.045C536.014 190.571 534.67 188.218 533.141 186.006L537.743 178.2C535.376 175.228 532.709 172.516 529.785 170.109L522.109 174.79C519.934 173.235 517.62 171.868 515.186 170.716L515.335 161.616C511.871 160.261 508.238 159.252 504.47 158.652L500.117 166.619C498.799 166.501 497.468 166.431 496.12 166.431C494.773 166.431 493.441 166.503 492.123 166.619L487.771 158.652C484.003 159.252 480.37 160.26 476.906 161.615L477.054 170.715C474.621 171.867 472.307 173.233 470.132 174.789L462.455 170.107C459.532 172.515 456.865 175.227 454.498 178.199L459.1 186.005C457.571 188.217 456.226 190.57 455.093 193.044L446.145 192.894C444.812 196.416 443.821 200.111 443.231 203.943L451.066 208.368C450.95 209.709 450.879 211.062 450.879 212.433C450.879 213.803 450.949 215.157 451.066 216.497L443.231 220.923C443.821 224.754 444.812 228.448 446.145 231.97L455.093 231.82C456.226 234.294 457.571 236.647 459.1 238.859L454.498 246.665C456.865 249.637 459.532 252.349 462.455 254.757L470.132 250.077C472.307 251.632 474.621 252.999 477.054 254.151L476.906 263.25C480.37 264.605 484.003 265.614 487.771 266.214L492.123 258.247C493.441 258.365 494.773 258.436 496.12 258.436C497.468 258.436 498.799 258.364 500.117 258.247L504.47 266.214C508.238 265.614 511.87 264.606 515.335 263.25L515.186 254.151C517.62 252.999 519.934 251.632 522.109 250.077L529.785 254.757C532.709 252.349 535.377 249.637 537.743 246.665L533.141 238.859C534.67 236.647 536.014 234.294 537.147 231.82L546.096 231.97C547.428 228.448 548.421 224.753 549.011 220.921L541.176 216.496C541.292 215.155 541.361 213.802 541.361 212.431C541.361 211.061 541.292 209.707 541.176 208.367L549.011 203.941C548.421 200.112 547.429 196.419 546.096 192.895Z" fill="white"/>
<path opacity="0.4" d="M496.121 249.879C516.459 249.879 532.946 233.114 532.946 212.434C532.946 191.754 516.459 174.989 496.121 174.989C475.784 174.989 459.297 191.754 459.297 212.434C459.297 233.114 475.784 249.879 496.121 249.879Z" fill="black"/>
<path d="M508.574 218.028C509.751 216.729 509.758 214.647 508.589 213.336C508.568 213.31 508.548 213.282 508.526 213.256C508.513 213.243 508.504 213.226 508.491 213.213C505.901 210.579 503.311 207.945 500.72 205.311C497.602 202.14 492.762 207.059 495.881 210.232C496.524 210.886 497.167 211.54 497.81 212.194C493.411 212.194 489.011 212.194 484.613 212.194C480.209 212.194 480.202 219.153 484.613 219.153C489.012 219.153 493.412 219.153 497.81 219.153C497.167 219.807 496.524 220.461 495.881 221.115C492.762 224.285 497.6 229.207 500.72 226.036C503.311 223.402 505.901 220.768 508.491 218.134C508.507 218.118 508.517 218.098 508.533 218.082C508.547 218.064 508.56 218.046 508.574 218.028Z" fill="#407BFF"/>
<path opacity="0.4" d="M508.574 218.028C509.751 216.729 509.758 214.647 508.589 213.336C508.568 213.31 508.548 213.282 508.526 213.256C508.513 213.243 508.504 213.226 508.491 213.213C505.901 210.579 503.311 207.945 500.72 205.311C497.602 202.14 492.762 207.059 495.881 210.232C496.524 210.886 497.167 211.54 497.81 212.194C493.411 212.194 489.011 212.194 484.613 212.194C480.209 212.194 480.202 219.153 484.613 219.153C489.012 219.153 493.412 219.153 497.81 219.153C497.167 219.807 496.524 220.461 495.881 221.115C492.762 224.285 497.6 229.207 500.72 226.036C503.311 223.402 505.901 220.768 508.491 218.134C508.507 218.118 508.517 218.098 508.533 218.082C508.547 218.064 508.56 218.046 508.574 218.028Z" fill="black"/>
<path d="M508.574 215.148C509.751 213.849 509.758 211.767 508.589 210.456C508.568 210.43 508.548 210.402 508.526 210.376C508.513 210.363 508.504 210.346 508.491 210.333C505.901 207.699 503.311 205.065 500.72 202.431C497.602 199.26 492.762 204.179 495.881 207.352C496.524 208.006 497.167 208.66 497.81 209.314C493.411 209.314 489.011 209.314 484.613 209.314C480.209 209.314 480.202 216.273 484.613 216.273C489.012 216.273 493.412 216.273 497.81 216.273C497.167 216.927 496.524 217.581 495.881 218.235C492.762 221.405 497.6 226.327 500.72 223.156C503.311 220.522 505.901 217.888 508.491 215.254C508.507 215.238 508.517 215.218 508.533 215.202C508.547 215.184 508.56 215.166 508.574 215.148Z" fill="#407BFF"/>
<path d="M449.584 178.878C460.667 163.679 477.523 154.917 496.122 154.617C496.805 154.606 496.806 153.526 496.122 153.537C477.116 153.843 459.984 162.814 448.666 178.332C448.26 178.891 449.181 179.431 449.584 178.878Z" fill="#407BFF"/>
<path d="M503.633 155.109C506.103 155.452 508.539 155.944 510.95 156.587C511.612 156.763 511.894 155.722 511.232 155.545C508.821 154.902 506.385 154.41 503.915 154.067C503.247 153.973 502.958 155.014 503.633 155.109Z" fill="#407BFF"/>
<path d="M461.957 269.754C461.957 269.754 473.409 294.041 478.408 301.051C482.744 307.134 498.653 322.099 498.653 322.099L503.044 321.615C504.43 321.461 505.764 322.192 506.404 323.451L506.9 324.429C507.099 324.821 507.369 325.17 507.698 325.457L508.486 326.145C509.643 327.156 509.989 328.833 509.326 330.232L508.73 331.491C508.273 332.454 507.401 333.145 506.372 333.36L501.661 334.344C500.44 334.6 499.179 334.149 498.385 333.171L494.374 328.235C494.374 328.235 473.213 312.453 467.776 305.579C463.397 300.042 454.84 280.386 454.84 280.386L461.957 269.754Z" fill="#CE7A63"/>
<path d="M523.675 389.728C523.675 370.794 508.581 355.446 489.961 355.446C471.341 355.446 456.248 370.794 456.248 389.728H523.675Z" fill="#407BFF"/>
<path opacity="0.5" d="M523.675 389.728C523.675 370.794 508.581 355.446 489.961 355.446C471.341 355.446 456.248 370.794 456.248 389.728H523.675Z" fill="white"/>
<g opacity="0.3">
<path d="M515.394 378.653C514.117 379.211 512.661 378.658 511.992 377.418C507.592 369.281 499.19 364.146 489.961 364.146C480.733 364.146 472.33 369.281 467.931 377.418C467.26 378.656 465.805 379.211 464.528 378.653C463.111 378.032 462.481 376.303 463.219 374.924C468.528 365.009 478.738 358.746 489.961 358.746C501.183 358.746 511.393 365.009 516.704 374.924C517.44 376.302 516.811 378.032 515.394 378.653Z" fill="black"/>
</g>
<path d="M517.931 288.245C510.436 313.755 502.94 339.264 495.445 364.774C496.603 365.038 497.739 365.376 498.839 365.8C505.08 344.561 511.32 323.322 517.561 302.082C518.822 297.788 520.084 293.495 521.345 289.2C521.999 286.978 518.583 286.027 517.931 288.245Z" fill="#263238"/>
<g opacity="0.5">
<path d="M517.931 288.245C510.436 313.755 502.94 339.264 495.445 364.774C496.603 365.038 497.739 365.376 498.839 365.8C505.08 344.561 511.32 323.322 517.561 302.082C518.822 297.788 520.084 293.495 521.345 289.2C521.999 286.978 518.583 286.027 517.931 288.245Z" fill="white"/>
</g>
<path d="M505.832 345.144C511.287 326.576 516.743 308.009 522.199 289.441C523.179 286.104 518.055 284.678 517.078 288.006C511.622 306.574 506.167 325.141 500.711 343.709C499.73 347.045 504.854 348.472 505.832 345.144Z" fill="#263238"/>
<path d="M536.041 514.979H443.984V399.172C443.984 393.955 448.143 389.727 453.273 389.727H526.754C531.884 389.727 536.042 393.955 536.042 399.172L536.041 514.979Z" fill="#407BFF"/>
<path opacity="0.7" d="M536.041 514.979H443.984V399.172C443.984 393.955 448.143 389.727 453.273 389.727H526.754C531.884 389.727 536.042 393.955 536.042 399.172L536.041 514.979Z" fill="white"/>
<path d="M492.369 488.401L498.269 511.201L508.22 508.402L503.973 484.001L492.369 488.401Z" fill="#CE7A63"/>
<path d="M510.169 505.942C510.061 505.948 509.96 505.888 509.912 505.789C509.865 505.69 509.885 505.57 509.962 505.492C510.099 505.353 513.201 502.2 515.092 502.204C515.442 502.2 515.782 502.335 516.037 502.581C516.36 502.841 516.486 503.281 516.352 503.679C516.071 504.371 514.784 504.99 513.474 505.353C512.391 505.648 511.286 505.845 510.169 505.942ZM510.886 505.378C512.912 505.081 515.565 504.329 515.866 503.496C515.913 503.391 515.938 503.22 515.667 502.955C515.515 502.795 515.3 502.714 515.083 502.735C514.916 502.734 514.749 502.757 514.589 502.805C513.207 503.418 511.95 504.291 510.886 505.378Z" fill="#407BFF"/>
<path d="M510.034 505.965C509.945 505.936 509.878 505.86 509.86 505.767C509.838 505.629 509.346 502.661 510.387 501.168C510.684 500.73 511.143 500.435 511.66 500.35C512.366 500.23 512.675 500.524 512.779 500.807C513.326 501.949 511.417 504.973 510.31 505.89C510.282 505.915 510.246 505.929 510.208 505.929C510.156 505.962 510.094 505.974 510.034 505.965ZM511.621 500.877C511.305 500.961 511.029 501.159 510.844 501.435C510.306 502.576 510.125 503.857 510.325 505.107C511.42 503.959 512.593 501.683 512.334 500.975C512.297 500.915 512.219 500.74 511.76 500.825L511.621 500.877Z" fill="#407BFF"/>
<path d="M508.692 504.741L497.194 507.927C496.761 508.047 496.467 508.456 496.487 508.912L496.957 518.999C496.992 519.894 497.735 520.591 498.615 520.555C498.728 520.551 498.84 520.534 498.95 520.505C503.076 519.283 506.699 518.032 511.862 516.61C517.952 514.925 516.606 516.094 523.793 514.213C528.123 513.076 527.576 507.871 525.681 508.133C517.023 509.381 515.465 507.051 511.418 504.899C510.559 504.508 509.589 504.451 508.692 504.741Z" fill="#263238"/>
<path d="M382.125 482.837L372.635 504.347L382.108 508.523L393.873 486.823L382.125 482.837Z" fill="#CE7A63"/>
<path d="M385.143 507.855C385.056 507.79 385.013 507.679 385.037 507.571C385.062 507.463 385.151 507.384 385.26 507.372C385.452 507.351 389.814 506.879 391.282 508.09C391.558 508.311 391.737 508.632 391.785 508.986C391.875 509.395 391.701 509.819 391.352 510.042C390.705 510.402 389.321 510.06 388.078 509.507C387.054 509.044 386.072 508.491 385.143 507.855ZM386.049 507.874C387.809 508.937 390.339 510.045 391.087 509.59C391.19 509.538 391.314 509.421 391.268 509.043C391.249 508.822 391.131 508.621 390.948 508.499C390.818 508.391 390.675 508.303 390.521 508.237C389.067 507.831 387.549 507.707 386.049 507.874Z" fill="#407BFF"/>
<path d="M385.024 507.785C384.972 507.706 384.967 507.604 385.012 507.52C385.081 507.399 386.53 504.774 388.261 504.277C388.763 504.126 389.303 504.19 389.757 504.454C390.382 504.811 390.441 505.237 390.346 505.524C390.067 506.763 386.713 507.897 385.285 507.903C385.248 507.904 385.21 507.892 385.182 507.868C385.121 507.861 385.064 507.832 385.024 507.785ZM389.402 504.84C389.104 504.703 388.766 504.681 388.453 504.778C387.33 505.321 386.398 506.203 385.782 507.304C387.342 507.111 389.661 506.088 389.897 505.372C389.905 505.302 389.953 505.115 389.543 504.889L389.402 504.84Z" fill="#407BFF"/>
<path d="M384.736 505.977L373.821 501.113C373.409 500.929 372.928 501.06 372.662 501.429L366.797 509.579C366.272 510.298 366.419 511.314 367.126 511.848C367.217 511.917 367.315 511.975 367.418 512.023C371.383 513.707 374.975 515.047 379.872 517.237C385.652 519.815 383.882 519.865 390.635 522.993C394.707 524.873 397.497 520.474 395.861 519.467C388.352 514.908 388.578 512.1 386.76 507.841C386.333 506.987 385.612 506.323 384.736 505.977Z" fill="#263238"/>
<path d="M466.879 222.726C466.879 222.726 474.962 220.199 472.931 216.451C471.168 213.197 468.181 217.115 468.181 217.115L466.879 222.726Z" fill="#263238"/>
<path opacity="0.6" d="M466.879 222.726C466.879 222.726 474.962 220.199 472.931 216.451C471.168 213.197 468.181 217.115 468.181 217.115L466.879 222.726Z" fill="black"/>
<path d="M461.073 250.261L459.506 257.876L448.373 254.004L451.708 245.269L461.073 250.261Z" fill="#CE7A63"/>
<path opacity="0.2" d="M460.293 254.053C457.355 252.222 457.045 249.651 457.045 249.651L458.883 249.093L461.074 250.26L460.293 254.053Z" fill="black"/>
<path d="M473.412 230.974C473.474 231.654 473.171 232.236 472.723 232.272C472.276 232.307 471.83 231.757 471.787 231.094C471.745 230.43 472.028 229.831 472.478 229.803C472.929 229.774 473.343 230.295 473.412 230.974Z" fill="#263238"/>
<path d="M472.129 233.099L475.926 238.159C475.926 238.159 474.273 239.568 471.741 238.851L472.129 233.099Z" fill="#BA4D3C"/>
<path d="M446.732 230.296C447.158 239.377 447.142 243.235 451.672 248.017C458.633 252.954 469.609 252.865 471.913 243.87C473.991 235.777 472.947 222.318 464.077 218.406C457.752 215.621 450.428 218.436 447.718 224.695C446.957 226.455 446.619 228.372 446.732 230.296Z" fill="#CE7A63"/>
<path d="M472.44 224.925C472.322 224.951 472.226 225.034 472.181 225.144C471.89 225.996 471.201 226.651 470.332 226.903C470.141 226.944 470.019 227.13 470.059 227.322C470.105 227.514 470.297 227.637 470.49 227.599C471.598 227.304 472.483 226.485 472.856 225.407C472.927 225.223 472.833 225.015 472.647 224.941H472.646C472.58 224.917 472.508 224.911 472.44 224.925Z" fill="#263238"/>
<path d="M442.565 256.787L444.829 254.121C446.231 252.469 448.487 251.869 450.505 252.61L458.191 255.431C459.709 255.988 460.883 257.232 461.369 258.797L462.239 261.597L442.565 256.787Z" fill="#407BFF"/>
<path opacity="0.5" d="M442.565 256.787L444.829 254.121C446.231 252.469 448.487 251.869 450.505 252.61L458.191 255.431C459.709 255.988 460.883 257.232 461.369 258.797L462.239 261.597L442.565 256.787Z" fill="white"/>
<path d="M459.011 325.533C459.011 325.533 485.369 392.574 491.974 415.801C497.35 434.703 508.219 493.001 508.219 493.001L491.679 497.28C491.679 497.28 477.31 440.029 471.065 421.402C465.778 405.633 452.169 374.333 440.898 362.242C438.993 360.198 433.652 357.906 431.812 355.803C428.015 351.461 423.643 340.284 422.446 334.602C421.9 332.011 422.446 324.003 422.446 324.003L459.011 325.533Z" fill="#263238"/>
<path d="M459.011 325.533C459.011 325.533 452.701 345.863 449.982 352.402C448.512 355.939 444.839 362.677 443.394 366.226C436.623 382.84 425.888 417.46 419.705 434.009C413.62 450.297 390.976 497.281 390.976 497.281L376.028 490.602C376.028 490.602 395.194 443.494 400.417 427.363C405.499 411.67 413.094 379.381 415.131 362.989C415.76 357.929 415.478 347.68 415.955 342.603C416.395 337.921 418.708 324.003 418.708 324.003L459.011 325.533Z" fill="#263238"/>
<path d="M418.307 325.641L461.538 331.77L471.472 270.96C472.2 266.503 469.462 262.218 465.161 261.083L446.005 256.03C438.955 254.17 431.811 258.697 430.347 265.953L418.307 325.641Z" fill="#407BFF"/>
<path opacity="0.2" d="M467.561 294.892L469.473 283.195L461.593 276.394L467.561 294.892Z" fill="black"/>
<path d="M376.029 486.451L373.816 491.701L391.076 499.801L393.583 494.851L376.029 486.451Z" fill="#407BFF"/>
<path d="M489.621 494.327L491.188 499.812L509.582 494.933L508.43 489.489L489.621 494.327Z" fill="#407BFF"/>
<path d="M465.813 236.136C465.813 236.136 468.162 233.065 466.452 228.108C464.741 223.152 474.68 212.806 468.378 209.757C464.443 207.853 463.289 213.202 463.289 213.202C463.289 213.202 460.878 209.367 457.418 210.964C455.405 211.893 455.945 214.605 455.945 214.605C455.945 214.605 441.707 216.897 444.67 230.311C444.67 230.311 443.231 239.295 449.961 245.946C449.961 245.946 455.091 244.039 459.318 246.715C459.318 246.715 459.838 241.179 465.813 236.136Z" fill="#263238"/>
<path d="M445.977 232.38C445.977 232.38 441.507 228.711 441.157 224.938C440.807 221.165 444.737 227.551 445.977 232.38Z" fill="#263238"/>
<path d="M465.095 232.769C466.476 234.035 467.3 235.791 467.387 237.646C467.482 240.108 465.124 240.757 463.087 239.589C461.242 238.53 458.991 235.978 459.865 233.734C460.739 231.489 463.39 231.239 465.095 232.769Z" fill="#CE7A63"/>
<path opacity="0.6" d="M424.862 342.465C426.583 355.617 435.251 368.497 440.099 374.824C441.267 371.634 442.376 368.723 443.394 366.225C428.65 354.069 424.862 342.465 424.862 342.465Z" fill="black"/>
<path d="M468.667 265.531C468.667 265.531 479.579 284.871 484.867 290.267C489.438 294.931 507.095 305.712 507.095 305.712L513.091 305.602C514.078 305.584 515.012 306.047 515.607 306.847C515.974 307.342 516.477 307.714 517.052 307.918L517.571 308.103C518.959 308.596 519.811 310.015 519.608 311.495L519.248 314.118C519.084 315.317 518.255 316.312 517.12 316.675L512.293 318.22C511.283 318.543 510.181 318.317 509.373 317.62L503.389 312.457C503.389 312.457 481.298 302.817 475.468 297.393C471.097 293.325 462.55 277.185 462.55 277.185L468.667 265.531Z" fill="#CE7A63"/>
<path d="M470.426 263.969L482.105 279.498L467.168 288.723L458.015 272.55C456.407 269.709 457.117 266.095 459.677 264.101L461.412 262.75C464.231 260.554 468.268 261.1 470.426 263.969Z" fill="#407BFF"/>
</g>
<defs>
<clipPath id="clip0_163_2145">
<rect width="590.058" height="600" fill="white" transform="translate(284.21 24.9998)"/>
</clipPath>
</defs>
</svg>
