<svg width="1009" height="650" viewBox="0 0 1009 650" fill="none" xmlns="http://www.w3.org/2000/svg">
<rect x="320.598" y="0.000793457" width="688.401" height="650" fill="#4395FF"/>
<path d="M14.0235 340.261C6.27855 332.385 6.27854 319.616 14.0235 311.741L320.598 0.000765848L639.23 324.001L318.632 650.001L14.0235 340.261Z" fill="#3982E0"/>
<path d="M652.741 470.112C641.741 451.422 632.989 430.399 628.528 409.064C624.067 387.729 623.557 364.728 630.747 341.959C656.28 368.843 685.902 391.686 688.918 470.113" fill="white"/>
<path d="M652.741 470.112C641.741 451.422 632.989 430.399 628.528 409.064C624.067 387.729 623.557 364.728 630.747 341.959C656.28 368.843 685.902 391.686 688.918 470.113" stroke="#5FBCDD" stroke-miterlimit="10" stroke-linejoin="round"/>
<path d="M630.747 341.958C626.195 367.803 637.175 427.734 660.543 470.308" stroke="#5FBCDD" stroke-miterlimit="10" stroke-linejoin="round"/>
<path d="M630.747 341.958C635.046 368.804 650.678 426.511 669.716 470.308" stroke="#5FBCDD" stroke-miterlimit="10" stroke-linejoin="round"/>
<path d="M630.747 341.958C644.674 374.196 665.911 423.746 679.086 470.308" stroke="#5FBCDD" stroke-miterlimit="10" stroke-linejoin="round"/>
<path d="M630.747 341.958C659.438 377.452 676.475 426.454 684.537 470.308" stroke="#5FBCDD" stroke-miterlimit="10" stroke-linejoin="round"/>
<path d="M681.98 470.309C678.405 450.709 679.949 435.619 683.878 415.524C693.089 368.409 725.271 324.534 746.654 300.875C766.725 359.854 755.997 396.417 735.71 470.309" fill="white"/>
<path d="M681.98 470.309C678.405 450.709 679.949 435.619 683.878 415.524C693.089 368.409 725.271 324.534 746.654 300.875C766.725 359.854 755.997 396.417 735.71 470.309" stroke="#5FBCDD" stroke-miterlimit="10" stroke-linejoin="round"/>
<path d="M746.654 300.875C746.654 300.875 688.181 374.559 688.884 470.309" stroke="#5FBCDD" stroke-miterlimit="10" stroke-linejoin="round"/>
<path d="M696.749 470.309C709.338 355.56 746.654 300.875 746.654 300.875" stroke="#5FBCDD" stroke-miterlimit="10" stroke-linejoin="round"/>
<path d="M708.535 470.309C723.524 359.871 746.653 300.875 746.653 300.875" stroke="#5FBCDD" stroke-miterlimit="10" stroke-linejoin="round"/>
<path d="M718.805 470.309C739.593 365.049 746.654 300.875 746.654 300.875" stroke="#5FBCDD" stroke-miterlimit="10" stroke-linejoin="round"/>
<path d="M729.52 470.309C754.149 365.076 746.654 300.875 746.654 300.875" stroke="#5FBCDD" stroke-miterlimit="10" stroke-linejoin="round"/>
<path d="M743.121 470.309C749.738 411.816 775.188 375.227 813.085 341.882C823.915 385.482 822.634 430.603 806.695 470.112" fill="white"/>
<path d="M743.121 470.309C749.738 411.816 775.188 375.227 813.085 341.882C823.915 385.482 822.634 430.603 806.695 470.112" stroke="#5FBCDD" stroke-miterlimit="10" stroke-linejoin="round"/>
<path d="M813.085 341.882C813.085 341.882 765.6 393.007 752.404 470.112" stroke="#5FBCDD" stroke-miterlimit="10" stroke-linejoin="round"/>
<path d="M813.085 341.882C813.085 341.882 781.404 397.783 764.317 470.112" stroke="#5FBCDD" stroke-miterlimit="10" stroke-linejoin="round"/>
<path d="M813.085 341.882C813.085 341.882 793.995 397.783 776.908 470.112" stroke="#5FBCDD" stroke-miterlimit="10" stroke-linejoin="round"/>
<path d="M813.085 341.882C813.085 341.882 806.586 397.783 789.498 470.112" stroke="#5FBCDD" stroke-miterlimit="10" stroke-linejoin="round"/>
<path d="M813.085 341.882C813.085 341.882 818.098 397.783 801.011 470.112" stroke="#5FBCDD" stroke-miterlimit="10" stroke-linejoin="round"/>
<path d="M695.083 181.479C695.303 179.767 695.335 178.004 695.145 176.213C694.955 174.422 694.553 172.705 693.977 171.078L689.339 172.268C688.769 170.773 688.003 169.383 687.078 168.123L690.599 164.869C688.441 162.074 685.648 159.818 682.462 158.296L680.02 162.422C678.594 161.782 677.074 161.325 675.492 161.082L675.68 156.297C673.968 156.077 672.205 156.045 670.414 156.235C668.622 156.426 666.906 156.827 665.279 157.403L666.469 162.041C664.973 162.611 663.584 163.377 662.323 164.302L659.069 160.781C656.273 162.939 654.018 165.731 652.496 168.918L656.622 171.36C655.983 172.787 655.526 174.306 655.283 175.888L650.498 175.7C650.277 177.412 650.245 179.175 650.436 180.966C650.626 182.757 651.028 184.474 651.603 186.101L656.241 184.911C656.811 186.407 657.577 187.796 658.502 189.056L654.981 192.31C657.139 195.105 659.932 197.361 663.118 198.884L665.56 194.758C666.986 195.398 668.506 195.854 670.088 196.098L669.9 200.883C671.612 201.103 673.375 201.135 675.166 200.945C676.957 200.755 678.674 200.353 680.301 199.778L679.111 195.139C680.607 194.569 681.996 193.803 683.257 192.878L686.511 196.399C689.306 194.241 691.562 191.449 693.084 188.262L688.958 185.821C689.598 184.394 690.054 182.875 690.298 181.293L695.083 181.479ZM673.935 189.361C667.986 189.993 662.65 185.683 662.017 179.733C661.385 173.784 665.695 168.448 671.645 167.816C677.594 167.184 682.93 171.494 683.563 177.443C684.194 183.393 679.884 188.729 673.935 189.361ZM673.629 186.488C669.266 186.952 665.354 183.791 664.89 179.428C664.426 175.065 667.587 171.153 671.95 170.689C676.313 170.225 680.225 173.386 680.689 177.749C681.153 182.112 677.992 186.024 673.629 186.488Z" fill="#D9ECF9"/>
<path d="M700.26 133.445C699.885 132.379 699.384 131.339 698.744 130.348C698.105 129.357 697.364 128.472 696.548 127.69L694.187 129.752C693.413 129.046 692.556 128.459 691.643 127.995L692.742 125.055C690.657 124.057 688.359 123.561 686.048 123.61L685.836 126.742C684.814 126.789 683.791 126.969 682.794 127.293L681.494 124.44C680.428 124.816 679.388 125.316 678.397 125.955C677.406 126.594 676.521 127.335 675.739 128.151L677.801 130.512C677.095 131.286 676.508 132.143 676.044 133.055L673.104 131.956C672.106 134.041 671.609 136.339 671.659 138.65L674.791 138.862C674.838 139.884 675.018 140.908 675.342 141.904L672.489 143.204C672.864 144.27 673.365 145.31 674.005 146.301C674.644 147.292 675.385 148.178 676.201 148.959L678.562 146.897C679.336 147.603 680.193 148.19 681.105 148.654L680.006 151.594C682.091 152.592 684.389 153.088 686.7 153.039L686.912 149.907C687.934 149.861 688.958 149.68 689.954 149.356L691.254 152.209C692.32 151.834 693.36 151.333 694.351 150.694C695.342 150.055 696.227 149.314 697.009 148.498L694.946 146.137C695.653 145.363 696.239 144.506 696.703 143.593L699.643 144.692C700.641 142.607 701.138 140.31 701.088 137.998L697.956 137.786C697.91 136.764 697.729 135.741 697.405 134.744L700.26 133.445ZM690.219 144.285C686.927 146.408 682.538 145.46 680.415 142.168C678.292 138.876 679.24 134.487 682.532 132.364C685.824 130.241 690.213 131.189 692.336 134.481C694.459 137.773 693.511 142.162 690.219 144.285ZM689.194 142.695C686.78 144.252 683.561 143.557 682.005 141.143C680.449 138.729 681.144 135.51 683.557 133.954C685.971 132.397 689.19 133.092 690.746 135.506C692.303 137.92 691.608 141.139 689.194 142.695Z" fill="#D9ECF9"/>
<path d="M318.173 284.98C318.671 283.327 318.991 281.593 319.097 279.795C319.203 277.997 319.088 276.237 318.786 274.538L314.015 274.952C313.698 273.383 313.169 271.887 312.463 270.492L316.47 267.858C314.799 264.747 312.413 262.064 309.519 260.04L306.434 263.711C305.131 262.846 303.707 262.147 302.186 261.648L303.155 256.958C301.502 256.46 299.768 256.14 297.97 256.035C296.171 255.93 294.412 256.044 292.713 256.346L293.127 261.117C291.558 261.435 290.062 261.963 288.667 262.669L286.033 258.663C282.922 260.334 280.239 262.719 278.215 265.614L281.886 268.699C281.021 270.002 280.322 271.426 279.823 272.947L275.133 271.978C274.635 273.631 274.315 275.364 274.209 277.163C274.103 278.961 274.218 280.721 274.52 282.42L279.291 282.006C279.609 283.575 280.137 285.071 280.843 286.466L276.837 289.1C278.508 292.211 280.894 294.894 283.788 296.918L286.873 293.247C288.175 294.112 289.6 294.811 291.121 295.31L290.152 300C291.805 300.498 293.539 300.818 295.337 300.924C297.136 301.03 298.895 300.914 300.594 300.613L300.18 295.842C301.749 295.524 303.245 294.996 304.64 294.29L307.274 298.296C310.385 296.625 313.068 294.24 315.092 291.345L311.421 288.26C312.286 286.957 312.985 285.533 313.484 284.012L318.173 284.98ZM296.019 289.293C290.046 288.942 285.488 283.816 285.839 277.843C286.19 271.87 291.316 267.312 297.289 267.663C303.262 268.013 307.82 273.14 307.469 279.112C307.118 285.086 301.991 289.643 296.019 289.293ZM296.2 286.206C291.932 285.955 288.676 282.293 288.926 278.025C289.177 273.757 292.839 270.501 297.107 270.751C301.375 271.002 304.631 274.664 304.381 278.932C304.13 283.199 300.468 286.456 296.2 286.206Z" fill="#D9ECF9"/>
<path d="M343.193 233.008C361.691 233.008 376.686 218.013 376.686 199.515C376.686 181.017 361.691 166.022 343.193 166.022C324.696 166.022 309.7 181.017 309.7 199.515C309.7 218.013 324.696 233.008 343.193 233.008Z" fill="white" stroke="#D9ECF9" stroke-width="1.5" stroke-miterlimit="10" stroke-linejoin="round"/>
<path d="M343.193 228.391C359.141 228.391 372.069 215.463 372.069 199.515C372.069 183.567 359.141 170.639 343.193 170.639C327.246 170.639 314.317 183.567 314.317 199.515C314.317 215.463 327.246 228.391 343.193 228.391Z" fill="#D9ECF9"/>
<path d="M333.58 178.039L343.193 199.515L358.279 192.778" stroke="white" stroke-width="1.5" stroke-miterlimit="10" stroke-linejoin="round"/>
<path d="M525.886 221.748H399.153C396.085 221.748 393.598 219.261 393.598 216.193V132.261C393.598 129.193 396.085 126.706 399.153 126.706H525.886C528.954 126.706 531.441 129.193 531.441 132.261V216.194C531.441 219.261 528.954 221.748 525.886 221.748Z" fill="white" stroke="#D9ECF9" stroke-width="1.5" stroke-miterlimit="10" stroke-linejoin="round"/>
<path d="M525.886 126.706H399.153C396.085 126.706 393.598 129.193 393.598 132.261V142.59H531.441V132.261C531.441 129.193 528.954 126.706 525.886 126.706Z" fill="#D9ECF9"/>
<path opacity="0.55" d="M424.953 152.864H404.026V173.791H424.953V152.864Z" fill="white" stroke="#92D5F7" stroke-miterlimit="10" stroke-linejoin="round"/>
<path opacity="0.55" d="M455.816 152.864H434.889V173.791H455.816V152.864Z" fill="white" stroke="#92D5F7" stroke-miterlimit="10" stroke-linejoin="round"/>
<path opacity="0.55" d="M486.68 152.864H465.753V173.791H486.68V152.864Z" fill="white" stroke="#92D5F7" stroke-miterlimit="10" stroke-linejoin="round"/>
<path opacity="0.55" d="M517.544 152.864H496.617V173.791H517.544V152.864Z" fill="white" stroke="#92D5F7" stroke-miterlimit="10" stroke-linejoin="round"/>
<path opacity="0.55" d="M424.953 183.176H404.026V204.103H424.953V183.176Z" fill="white" stroke="#92D5F7" stroke-miterlimit="10" stroke-linejoin="round"/>
<path opacity="0.55" d="M455.816 183.176H434.889V204.103H455.816V183.176Z" fill="white" stroke="#92D5F7" stroke-miterlimit="10" stroke-linejoin="round"/>
<path opacity="0.55" d="M486.68 183.176H465.753V204.103H486.68V183.176Z" fill="white" stroke="#92D5F7" stroke-miterlimit="10" stroke-linejoin="round"/>
<path opacity="0.55" d="M517.544 183.176H496.617V204.103H517.544V183.176Z" fill="white" stroke="#92D5F7" stroke-miterlimit="10" stroke-linejoin="round"/>
<path opacity="0.55" d="M406.415 157.851C406.415 157.851 411.074 162.824 414.091 168.249C418.303 160.818 425.667 152.341 425.667 152.341C425.667 152.341 418.255 155.773 414.091 163.336C410.827 159.999 406.415 157.851 406.415 157.851Z" fill="#92D5F7"/>
<path d="M865.533 275.337H786.964C784.325 275.337 782.186 273.198 782.186 270.559V151.866C782.186 149.227 784.325 147.088 786.964 147.088H865.533C868.172 147.088 870.311 149.227 870.311 151.866V270.558C870.311 273.197 868.172 275.337 865.533 275.337Z" fill="white" stroke="#D9ECF9" stroke-width="1.5" stroke-miterlimit="10" stroke-linejoin="round"/>
<path d="M865.533 147.088H786.964C784.325 147.088 782.186 149.227 782.186 151.866V160.75H870.311V151.866C870.311 149.227 868.172 147.088 865.533 147.088Z" fill="#D9ECF9"/>
<path opacity="0.55" d="M809.155 169.588H791.155V187.588H809.155V169.588Z" fill="white" stroke="#92D5F7" stroke-miterlimit="10" stroke-linejoin="round"/>
<path opacity="0.55" d="M835.703 169.588H817.703V187.588H835.703V169.588Z" fill="white" stroke="#92D5F7" stroke-miterlimit="10" stroke-linejoin="round"/>
<path opacity="0.55" d="M862.251 169.588H844.251V187.588H862.251V169.588Z" fill="white" stroke="#92D5F7" stroke-miterlimit="10" stroke-linejoin="round"/>
<path opacity="0.55" d="M809.155 195.751H791.155V213.751H809.155V195.751Z" fill="white" stroke="#92D5F7" stroke-miterlimit="10" stroke-linejoin="round"/>
<path opacity="0.55" d="M835.703 195.751H817.703V213.751H835.703V195.751Z" fill="white" stroke="#92D5F7" stroke-miterlimit="10" stroke-linejoin="round"/>
<path opacity="0.55" d="M862.251 195.751H844.251V213.751H862.251V195.751Z" fill="white" stroke="#92D5F7" stroke-miterlimit="10" stroke-linejoin="round"/>
<path opacity="0.55" d="M809.155 221.827H791.155V239.827H809.155V221.827Z" fill="white" stroke="#92D5F7" stroke-miterlimit="10" stroke-linejoin="round"/>
<path opacity="0.55" d="M835.703 221.827H817.703V239.827H835.703V221.827Z" fill="white" stroke="#92D5F7" stroke-miterlimit="10" stroke-linejoin="round"/>
<path opacity="0.55" d="M862.251 221.827H844.251V239.827H862.251V221.827Z" fill="white" stroke="#92D5F7" stroke-miterlimit="10" stroke-linejoin="round"/>
<path opacity="0.55" d="M809.155 247.904H791.155V265.904H809.155V247.904Z" fill="white" stroke="#92D5F7" stroke-miterlimit="10" stroke-linejoin="round"/>
<path opacity="0.55" d="M835.703 247.904H817.703V265.904H835.703V247.904Z" fill="white" stroke="#92D5F7" stroke-miterlimit="10" stroke-linejoin="round"/>
<path opacity="0.55" d="M862.251 247.904H844.251V265.904H862.251V247.904Z" fill="white" stroke="#92D5F7" stroke-miterlimit="10" stroke-linejoin="round"/>
<path d="M793.21 173.878C793.21 173.878 797.218 178.156 799.813 182.822C803.436 176.43 809.77 169.139 809.77 169.139C809.77 169.139 803.395 172.091 799.813 178.596C797.005 175.725 793.21 173.878 793.21 173.878Z" fill="#92D5F7"/>
<path d="M846.567 201.626C846.567 201.626 850.575 205.904 853.17 210.57C856.793 204.178 863.127 196.887 863.127 196.887C863.127 196.887 856.752 199.839 853.17 206.344C850.362 203.474 846.567 201.626 846.567 201.626Z" fill="#92D5F7"/>
<path d="M904.664 351.824C905.162 350.171 905.482 348.437 905.588 346.639C905.694 344.841 905.578 343.081 905.277 341.382L900.506 341.796C900.188 340.227 899.66 338.731 898.954 337.336L902.96 334.702C901.289 331.591 898.904 328.908 896.009 326.884L892.924 330.555C891.621 329.69 890.197 328.991 888.676 328.492L889.645 323.802C887.992 323.304 886.258 322.984 884.46 322.879C882.662 322.774 880.902 322.888 879.203 323.19L879.617 327.961C878.048 328.279 876.552 328.807 875.157 329.513L872.523 325.507C869.412 327.178 866.729 329.563 864.705 332.458L868.376 335.542C867.511 336.845 866.812 338.269 866.313 339.79L861.623 338.821C861.125 340.474 860.805 342.208 860.699 344.006C860.593 345.804 860.708 347.564 861.01 349.263L865.781 348.849C866.099 350.418 866.627 351.914 867.333 353.309L863.327 355.943C864.998 359.054 867.383 361.737 870.278 363.761L873.363 360.09C874.665 360.955 876.09 361.654 877.611 362.153L876.642 366.843C878.295 367.341 880.029 367.661 881.827 367.767C883.625 367.872 885.385 367.757 887.084 367.456L886.67 362.685C888.239 362.367 889.735 361.839 891.13 361.133L893.764 365.139C896.875 363.468 899.558 361.083 901.582 358.188L897.911 355.104C898.776 353.801 899.475 352.377 899.974 350.856L904.664 351.824ZM882.51 356.137C876.537 355.786 871.979 350.66 872.33 344.687C872.681 338.714 877.807 334.156 883.78 334.507C889.753 334.857 894.311 339.984 893.96 345.957C893.609 351.929 888.483 356.487 882.51 356.137ZM882.691 353.049C878.423 352.799 875.166 349.136 875.417 344.868C875.667 340.6 879.33 337.344 883.598 337.594C887.866 337.844 891.122 341.507 890.872 345.775C890.622 350.043 886.959 353.3 882.691 353.049Z" fill="#D9ECF9"/>
<path d="M644.364 136.384C645.72 127.432 639.561 119.076 630.609 117.72C621.656 116.365 613.3 122.523 611.945 131.475C610.589 140.428 616.748 148.784 625.7 150.14C634.652 151.495 643.009 145.337 644.364 136.384Z" fill="#D9ECF9"/>
<path d="M638.366 143.526L628.161 133.918L621.26 141.075" stroke="white" stroke-width="1.5" stroke-miterlimit="10" stroke-linejoin="round"/>
<path d="M662.799 144.384C663.6 141.724 664.116 138.933 664.286 136.038C664.456 133.143 664.27 130.311 663.786 127.576L656.107 128.242C655.596 125.717 654.746 123.308 653.609 121.063L660.057 116.824C657.367 111.816 653.528 107.498 648.869 104.241L643.904 110.149C641.807 108.757 639.515 107.631 637.067 106.828L638.627 99.279C635.967 98.478 633.176 97.962 630.281 97.793C627.386 97.623 624.554 97.808 621.819 98.293L622.485 105.972C619.96 106.483 617.551 107.333 615.306 108.47L611.067 102.021C606.059 104.711 601.741 108.55 598.484 113.209L604.392 118.174C603 120.271 601.874 122.563 601.071 125.012L593.523 123.452C592.722 126.112 592.206 128.903 592.037 131.798C591.867 134.693 592.052 137.525 592.537 140.26L600.216 139.593C600.727 142.118 601.577 144.527 602.714 146.772L596.265 151.012C598.955 156.02 602.794 160.338 607.453 163.595L612.418 157.687C614.515 159.079 616.807 160.205 619.255 161.008L617.695 168.557C620.355 169.358 623.146 169.873 626.041 170.044C628.936 170.214 631.768 170.029 634.503 169.544L633.836 161.865C636.361 161.354 638.77 160.504 641.015 159.367L645.255 165.815C650.263 163.125 654.581 159.286 657.838 154.627L651.93 149.662C653.322 147.565 654.448 145.273 655.251 142.825L662.799 144.384ZM626.983 153.993C615.896 153.342 607.435 143.827 608.086 132.739C608.737 121.652 618.253 113.191 629.34 113.842C640.427 114.493 648.888 124.008 648.237 135.096C647.586 146.184 638.07 154.644 626.983 153.993Z" fill="#D9ECF9"/>
<path d="M515.303 97.449C515.303 98.801 514.207 99.898 512.854 99.898C511.502 99.898 510.406 98.802 510.406 97.449C510.406 96.097 511.502 95 512.854 95C514.206 95.001 515.303 96.097 515.303 97.449Z" stroke="#92D5F7" stroke-miterlimit="10" stroke-linejoin="round"/>
<path d="M749.625 147.088C749.625 148.44 748.529 149.537 747.176 149.537C745.824 149.537 744.728 148.441 744.728 147.088C744.728 145.736 745.824 144.64 747.176 144.64C748.529 144.64 749.625 145.736 749.625 147.088Z" stroke="#92D5F7" stroke-miterlimit="10" stroke-linejoin="round"/>
<path d="M269.897 213.76C269.897 215.112 268.801 216.209 267.448 216.209C266.095 216.209 265 215.113 265 213.76C265 212.408 266.096 211.311 267.448 211.311C268.8 211.311 269.897 212.407 269.897 213.76Z" stroke="#92D5F7" stroke-miterlimit="10" stroke-linejoin="round"/>
<path d="M728.421 403.617C728.421 404.969 727.325 406.066 725.972 406.066C724.619 406.066 723.524 404.97 723.524 403.617C723.524 402.264 724.62 401.168 725.972 401.168C727.324 401.168 728.421 402.265 728.421 403.617Z" stroke="#92D5F7" stroke-miterlimit="10" stroke-linejoin="round"/>
<path d="M885.593 297.66C885.593 299.012 884.497 300.109 883.144 300.109C881.791 300.109 880.696 299.013 880.696 297.66C880.696 296.308 881.792 295.211 883.144 295.211C884.496 295.211 885.593 296.308 885.593 297.66Z" stroke="#92D5F7" stroke-miterlimit="10" stroke-linejoin="round"/>
<path d="M369.332 117.429V122.462" stroke="#92D5F7" stroke-miterlimit="10" stroke-linejoin="round"/>
<path d="M371.849 119.945H366.815" stroke="#92D5F7" stroke-miterlimit="10" stroke-linejoin="round"/>
<path d="M797.3 117.429V122.462" stroke="#92D5F7" stroke-miterlimit="10" stroke-linejoin="round"/>
<path d="M799.816 119.945H794.783" stroke="#92D5F7" stroke-miterlimit="10" stroke-linejoin="round"/>
<path d="M565.967 170.18V175.213" stroke="#92D5F7" stroke-miterlimit="10" stroke-linejoin="round"/>
<path d="M568.483 172.696H563.45" stroke="#92D5F7" stroke-miterlimit="10" stroke-linejoin="round"/>
<path d="M341.798 403.617V408.65" stroke="#92D5F7" stroke-miterlimit="10" stroke-linejoin="round"/>
<path d="M344.314 406.134H339.281" stroke="#92D5F7" stroke-miterlimit="10" stroke-linejoin="round"/>
<path d="M432.225 117.429H453.689" stroke="#92D5F7" stroke-miterlimit="10" stroke-linejoin="round"/>
<path d="M545.194 147.088H566.658" stroke="#92D5F7" stroke-miterlimit="10" stroke-linejoin="round"/>
<path d="M741.672 203.729H763.136" stroke="#92D5F7" stroke-miterlimit="10" stroke-linejoin="round"/>
<path d="M852.394 394.224H873.858" stroke="#92D5F7" stroke-miterlimit="10" stroke-linejoin="round"/>
<path d="M272.172 234.855H284.513" stroke="#92D5F7" stroke-miterlimit="10" stroke-linejoin="round"/>
<path d="M731.965 187.296H744.306" stroke="#92D5F7" stroke-miterlimit="10" stroke-linejoin="round"/>
<path d="M876.974 379.88H889.315" stroke="#92D5F7" stroke-miterlimit="10" stroke-linejoin="round"/>
<path d="M278.18 241.909H299.644" stroke="#92D5F7" stroke-miterlimit="10" stroke-linejoin="round"/>
<path d="M449.73 112.198H460.462" stroke="#92D5F7" stroke-miterlimit="10" stroke-linejoin="round"/>
<path d="M411.156 382.33C421.575 362.203 435.488 345.23 445.907 325.103C463.139 291.815 472.2 250.204 465.589 218.74C409.942 256.076 391.842 334.325 393.842 396.701" fill="white"/>
<path d="M411.156 382.33C421.575 362.203 435.488 345.23 445.907 325.103C463.139 291.815 472.2 250.204 465.589 218.74C409.942 256.076 391.842 334.325 393.842 396.701" stroke="#5FBCDD" stroke-miterlimit="10" stroke-linejoin="round"/>
<path d="M465.589 218.74C455.096 262.996 431.272 312.305 411.238 358.559" stroke="#5FBCDD" stroke-miterlimit="10" stroke-linejoin="round"/>
<path d="M465.784 218.891C462.655 224.621 457.157 237.24 454.576 242.273C430.39 289.436 417.174 311.726 408.194 352.6" stroke="#5FBCDD" stroke-miterlimit="10" stroke-linejoin="round"/>
<path d="M465.784 218.891C435.583 249.222 410.508 305.708 401.528 346.582" stroke="#5FBCDD" stroke-miterlimit="10" stroke-linejoin="round"/>
<path d="M465.589 218.74C467.634 236.451 462.226 255.35 456.112 272.621C446.567 299.584 434.123 326.07 418.912 351.796" stroke="#5FBCDD" stroke-miterlimit="10" stroke-linejoin="round"/>
<path d="M427.639 355.433C427.568 294.111 416.211 216.083 369.571 182.772C352.978 239.094 353.429 320.151 393.456 377.566" fill="white"/>
<path d="M427.639 355.433C427.568 294.111 416.211 216.083 369.571 182.772C352.978 239.094 353.429 320.151 393.456 377.566" stroke="#5FBCDD" stroke-miterlimit="10" stroke-linejoin="round"/>
<path d="M369.571 182.772C371.585 205.071 374.801 227.667 376.815 249.966C379.646 281.323 382.518 312.871 392.937 342.596" stroke="#5FBCDD" stroke-miterlimit="10" stroke-linejoin="round"/>
<path d="M369.571 182.772C367.804 207.646 365.433 233.233 367.447 255.531C370.278 286.888 371.004 315.325 381.423 345.05" stroke="#5FBCDD" stroke-miterlimit="10" stroke-linejoin="round"/>
<path d="M369.563 183.042C387.169 232.842 391.046 299.424 406.039 345.642" stroke="#5FBCDD" stroke-miterlimit="10" stroke-linejoin="round"/>
<path d="M369.571 182.772C398.502 224.141 405.385 308.986 412.521 335.861" stroke="#5FBCDD" stroke-miterlimit="10" stroke-linejoin="round"/>
<path d="M369.571 182.772C381.503 190.59 413.836 244.681 422.419 339.745" stroke="#5FBCDD" stroke-miterlimit="10" stroke-linejoin="round"/>
<path d="M354.098 371.706C324.829 332.992 307.487 291.554 308.101 232.636C329.445 248.283 348.556 261.456 362.641 283.757C376.725 306.058 384.79 333.491 381.592 364.538" fill="white"/>
<path d="M354.098 371.706C324.829 332.992 307.487 291.554 308.101 232.636C329.445 248.283 348.556 261.456 362.641 283.757C376.725 306.058 384.79 333.491 381.592 364.538" stroke="#5FBCDD" stroke-miterlimit="10" stroke-linejoin="round"/>
<path d="M308.545 233.298C312.7 245.51 327.815 290.232 332.27 302.79C340.26 325.318 350.005 345.486 359.88 366.81" stroke="#5FBCDD" stroke-miterlimit="10" stroke-linejoin="round"/>
<path d="M308.545 233.298C314.973 247.84 332.878 281.911 339.408 296.351C349.106 317.793 356.492 339.635 366.366 360.959" stroke="#5FBCDD" stroke-miterlimit="10" stroke-linejoin="round"/>
<path d="M308.101 232.636C332.112 267.685 357.726 302.302 371.059 346.131" stroke="#5FBCDD" stroke-miterlimit="10" stroke-linejoin="round"/>
<path d="M308.101 232.636C312.932 261.556 318.099 285.83 326.568 310.523C335.389 336.245 346.259 360.262 363.118 380.113" stroke="#5FBCDD" stroke-miterlimit="10" stroke-linejoin="round"/>
<path d="M308.101 232.636C318.231 243.009 364.104 281.621 378.654 348.754" stroke="#5FBCDD" stroke-miterlimit="10" stroke-linejoin="round"/>
<path d="M365.339 459.315C365.301 459.315 365.264 459.312 365.227 459.306C342.867 455.925 327.531 430.62 319.647 384.094C313.808 349.632 314.471 315.713 314.479 315.374C314.488 314.967 314.821 314.641 315.229 314.641H464.968C465.376 314.641 465.709 314.967 465.718 315.374C465.725 315.713 466.389 349.632 460.55 384.094C452.667 430.62 437.331 455.925 414.97 459.306C414.933 459.312 414.895 459.315 414.858 459.315H365.339Z" fill="white"/>
<path d="M464.967 315.391C464.967 315.391 467.916 450.541 414.856 458.565H365.338C312.278 450.542 315.227 315.391 315.227 315.391H464.967ZM464.967 313.891H315.227C314.411 313.891 313.745 314.543 313.727 315.358C313.72 315.697 313.054 349.688 318.906 384.219C322.355 404.573 327.364 421.154 333.793 433.501C341.973 449.21 352.51 458.141 365.113 460.047C365.187 460.058 365.262 460.064 365.337 460.064H414.855C414.93 460.064 415.005 460.058 415.079 460.047C427.682 458.141 438.22 449.21 446.399 433.501C452.828 421.154 457.837 404.573 461.286 384.219C467.137 349.687 466.472 315.697 466.465 315.358C466.449 314.543 465.783 313.891 464.967 313.891Z" fill="#5FBCDD"/>
<mask id="mask0_163_3375" style="mask-type:luminance" maskUnits="userSpaceOnUse" x="315" y="315" width="150" height="144">
<path d="M464.967 315.391H315.227C315.227 315.391 312.278 450.541 365.338 458.565H414.856C467.916 450.541 464.967 315.391 464.967 315.391Z" fill="white"/>
</mask>
<g mask="url(#mask0_163_3375)">
<path d="M478.928 323.736H301.861V340.379H478.928V323.736Z" fill="#C2EEF9"/>
<path d="M478.928 346.448H301.861V353.077H478.928V346.448Z" fill="#C2EEF9"/>
</g>
<path d="M273.911 470.309H895.761" stroke="#5FBCDD" stroke-width="1.5" stroke-miterlimit="10" stroke-linejoin="round"/>
<path d="M663.143 256.268L701.274 218.137" stroke="#202944" stroke-width="5" stroke-miterlimit="10" stroke-linejoin="round"/>
<path d="M506.529 256.268L468.398 218.137" stroke="#202944" stroke-width="5" stroke-miterlimit="10" stroke-linejoin="round"/>
<path d="M682.412 432.156C735.931 378.637 735.931 291.865 682.412 238.345C628.893 184.826 542.121 184.826 488.602 238.345C435.082 291.865 435.082 378.637 488.602 432.156C542.121 485.675 628.893 485.675 682.412 432.156Z" fill="white" stroke="#4BB1DD" stroke-width="1.5" stroke-miterlimit="10"/>
<path d="M673.929 423.673C722.763 374.839 722.763 295.663 673.929 246.828C625.095 197.994 545.919 197.994 497.085 246.828C448.251 295.663 448.251 374.839 497.085 423.673C545.919 472.507 625.095 472.507 673.929 423.673Z" fill="#82CEF4"/>
<path d="M590.138 346.33C596.258 343.773 599.147 336.739 596.59 330.619C594.033 324.498 586.999 321.61 580.878 324.167C574.758 326.724 571.87 333.758 574.427 339.878C576.984 345.998 584.018 348.887 590.138 346.33Z" fill="#BDDFF4"/>
<path d="M592.561 352.004C601.821 348.117 606.178 337.46 602.291 328.2C598.405 318.94 587.748 314.584 578.487 318.471C569.227 322.357 564.87 333.014 568.757 342.274C572.643 351.534 583.3 355.89 592.561 352.004Z" stroke="#BDDFF4" stroke-width="1.5" stroke-miterlimit="10" stroke-linejoin="round"/>
<path d="M553.741 226.939L585.511 335.25L551.031 395.948" stroke="white" stroke-width="2.5" stroke-miterlimit="10" stroke-linejoin="round"/>
<path d="M585.511 232.807V214.7" stroke="white" stroke-width="1.5" stroke-miterlimit="10" stroke-linejoin="round"/>
<path d="M585.511 455.8V437.693" stroke="white" stroke-width="1.5" stroke-miterlimit="10" stroke-linejoin="round"/>
<path d="M528.763 236.96L525.223 230.829" stroke="white" stroke-width="1.5" stroke-miterlimit="10"/>
<path d="M645.799 439.671L642.259 433.54" stroke="white" stroke-width="1.5" stroke-miterlimit="10"/>
<path d="M487.221 278.502L481.09 274.962" stroke="white" stroke-width="1.5" stroke-miterlimit="10"/>
<path d="M689.932 395.538L683.802 391.998" stroke="white" stroke-width="1.5" stroke-miterlimit="10"/>
<path d="M642.259 236.96L645.799 230.829" stroke="white" stroke-width="1.5" stroke-miterlimit="10"/>
<path d="M525.223 439.671L528.763 433.54" stroke="white" stroke-width="1.5" stroke-miterlimit="10"/>
<path d="M683.802 278.502L689.932 274.962" stroke="white" stroke-width="1.5" stroke-miterlimit="10"/>
<path d="M481.09 395.538L487.221 391.998" stroke="white" stroke-width="1.5" stroke-miterlimit="10"/>
<path d="M687.954 335.25H706.061" stroke="white" stroke-width="1.5" stroke-miterlimit="10" stroke-linejoin="round"/>
<path d="M464.961 335.25H483.068" stroke="white" stroke-width="1.5" stroke-miterlimit="10" stroke-linejoin="round"/>
<path d="M510.246 200.596L450.857 259.985C434.457 243.585 434.457 216.996 450.857 200.596C467.257 184.197 493.846 184.197 510.246 200.596Z" fill="#57B9EA"/>
<path d="M455.057 204.796C461.867 197.986 470.922 194.236 480.552 194.236C484.178 194.236 487.723 194.768 491.097 195.794" stroke="white" stroke-width="1.5" stroke-miterlimit="10" stroke-linejoin="round"/>
<path d="M659.426 200.596L718.815 259.985C735.215 243.585 735.215 216.996 718.815 200.596C702.415 184.197 675.826 184.197 659.426 200.596Z" fill="#57B9EA"/>
<path d="M714.615 204.796C707.805 197.986 698.75 194.236 689.12 194.236C685.494 194.236 681.949 194.768 678.575 195.794" stroke="white" stroke-width="1.5" stroke-miterlimit="10" stroke-linejoin="round"/>
<path d="M418.615 332.201C413.858 330.039 408.155 330.615 403.722 333.291C398.735 336.302 397.763 342.39 393.189 345.541C391.482 346.717 389.397 347.163 387.428 347.807C385.458 348.451 383.436 349.421 382.398 351.215C381.112 353.437 381.642 356.392 380.268 358.561C378.126 361.944 372.655 361.637 370.272 364.855C369.101 366.436 368.949 368.593 369.415 370.505C371.568 379.346 385.65 379.597 392.948 379.811C397.787 379.953 402.63 379.851 407.47 379.749C413.612 379.62 419.77 379.488 425.875 378.742C428.614 378.407 431.42 377.544 434.169 377.539C436.431 377.534 438.152 375.333 438.959 373.323C440.146 370.366 438.466 366.806 435.754 365.133C434.571 364.403 433.17 363.914 432.331 362.805C431.341 361.496 431.407 359.684 431.678 358.065C431.949 356.446 432.378 354.779 431.965 353.191C431.425 351.117 429.581 349.664 428.561 347.779C426.96 344.82 427.511 341.059 425.935 338.087C424.874 336.086 422.979 334.685 421.146 333.354" fill="#22252D"/>
<path d="M402.813 503.673L421.364 455.289L423.52 456.149L404.969 504.533L402.813 503.673Z" fill="#95E0E8"/>
<path d="M438.663 470.67L439.283 465.752C439.283 465.752 434.454 461.854 430.899 459.68C427.345 457.507 423.52 456.149 423.52 456.149L404.97 504.533C404.97 504.533 412.316 505.434 420.775 498.944C425.417 495.382 429.088 493.784 429.088 493.784L438.663 470.67Z" fill="#0D0E11"/>
<path d="M458.214 459.078L439.283 465.753C439.283 465.753 436.061 466.975 432.911 475.858C429.761 484.741 429.088 493.784 429.088 493.784L457.415 494.073" fill="#FFA492"/>
<path d="M399.645 440.667L451.676 448.528C451.676 448.528 504.162 440.25 507.569 470.828C509.165 485.151 499.046 490.764 482.576 492.677C460.101 495.287 420.837 494.157 420.837 494.157L399.823 469.05" fill="#0A87CC"/>
<path d="M490.305 457.755C474.67 457.023 464.375 457.406 427.532 468.333" stroke="#183377" stroke-miterlimit="10" stroke-linejoin="round"/>
<path d="M443.918 507.595L425.368 455.289L423.212 456.149L441.762 508.455L443.918 507.595Z" fill="#95E0E8"/>
<path d="M408.068 470.67L407.448 465.752C407.448 465.752 412.277 461.854 415.832 459.68C419.386 457.507 423.211 456.149 423.211 456.149L441.762 508.455C441.762 508.455 437.104 508.749 425.957 498.943C421.564 495.079 417.644 493.783 417.644 493.783L408.068 470.67Z" fill="#22252D"/>
<path d="M388.518 459.078L407.449 465.753C407.449 465.753 410.671 466.975 413.821 475.858C416.971 484.741 417.644 493.784 417.644 493.784L389.317 494.073" fill="#FFA492"/>
<path d="M414.098 448.712L353.679 446.273C353.679 446.273 314.293 443.855 309.823 471.18C307.989 482.394 316.764 490.762 333.235 492.675C355.71 495.285 411.505 494.155 411.505 494.155L410.176 472.476" fill="#0A87CC"/>
<path d="M334.19 457.755C349.825 457.023 365.336 454.741 402.179 465.667" stroke="#183377" stroke-miterlimit="10" stroke-linejoin="round"/>
<path d="M406.874 493.705L404.969 466.991" stroke="#183377" stroke-miterlimit="10" stroke-linejoin="round"/>
<path d="M450.828 396.881C450.828 398.402 460 433.147 460 433.147L478.532 461.358L463.549 465.667L433.006 433.147L422.095 398.92" fill="#FFA492"/>
<path d="M414.098 361.209C414.098 361.209 416.146 364.044 417.624 363.718C424.642 363.718 442.676 366.942 448.597 383.655C453.362 397.107 454.961 408.499 454.961 408.499L432.425 410.8L421.318 383.001" fill="#FF6E42"/>
<path d="M401.461 362.102C401.461 362.102 362.843 379.087 353.679 446.273C401.842 466.904 447.243 447.597 447.243 447.597C447.243 447.597 442.154 432.574 438.237 412.421C442.423 401.317 441.762 393.74 432.226 381.339C426.813 374.3 421.88 366.634 417.624 363.717C407.696 356.915 401.461 362.102 401.461 362.102Z" fill="#FF6E42"/>
<path d="M438.237 412.422C442.423 401.318 441.762 393.741 432.226 381.34" stroke="#A83C11" stroke-width="0.75" stroke-miterlimit="10" stroke-linejoin="round"/>
<path d="M414.643 469.664H480.48L490.124 427.348C490.509 425.49 489.09 423.746 487.192 423.746H429.79C427.02 423.746 424.63 425.691 424.067 428.404L414.643 469.664Z" fill="#57B9EA"/>
<path d="M416.21 469.664H482.047L491.691 427.348C492.076 425.49 490.658 423.746 488.759 423.746H431.358C428.588 423.746 426.198 425.691 425.635 428.404L416.21 469.664Z" fill="#D9ECF9"/>
<path opacity="0.15" d="M464.073 448.418C463.693 451.135 460.313 453.337 456.523 453.337C452.733 453.337 449.97 451.135 450.35 448.418C450.73 445.701 454.11 443.498 457.9 443.498C461.689 443.498 464.453 445.701 464.073 448.418Z" fill="#1F5F87"/>
<path d="M454.46 405.533L439.99 406.769" stroke="#A83C11" stroke-width="0.75" stroke-miterlimit="10" stroke-linejoin="round"/>
<path d="M369.727 406.103L391.191 410.801C391.191 410.801 395.493 437.607 396.734 439.638C399.646 444.407 426.241 465.323 426.241 465.323L420.286 475.193C420.286 475.193 387.597 470.402 372.96 451.163C365.452 441.294 360.672 412.423 360.672 412.423" fill="#FFA492"/>
<path d="M409.058 361.209L399.645 361.38C399.645 361.38 379.467 361.908 367.699 378.471C354.046 397.687 360.943 418.524 360.943 418.524L392.234 412.422L390.536 386.053" fill="#FF6E42"/>
<path d="M392.235 412.422L390.657 390.925" stroke="#A83C11" stroke-width="0.75" stroke-miterlimit="10" stroke-linejoin="round"/>
<path d="M416.531 457.523C420.736 459.493 432.648 465.946 432.709 466.895C432.77 467.844 427.66 466.101 427.856 466.87C428.052 467.64 435.598 469.518 435.84 470.47C436.082 471.423 430.192 470.383 427.359 469.694C429.941 470.436 435.308 471.979 435.166 472.819C435.025 473.659 432.653 473.127 431.396 472.924C429.337 472.592 427.277 472.26 425.218 471.929C427.728 472.727 432.749 473.77 432.686 474.653C432.623 475.535 426.715 474.519 423.555 473.497C425.468 474.319 429.546 475.811 428.928 476.315C427.76 477.268 411.709 473.214 402.178 470.414" fill="#FFA492"/>
<path d="M392.235 408.005L359.879 413.841" stroke="#A83C11" stroke-width="0.75" stroke-miterlimit="10" stroke-linejoin="round"/>
<path d="M397.943 361.209C397.943 361.209 402.444 368.163 411.239 367.915C419.569 367.681 419.628 363.794 419.628 363.794" stroke="#A83C11" stroke-width="0.75" stroke-miterlimit="10" stroke-linejoin="round"/>
<path d="M425.162 340.455C425.162 340.455 428.306 358.682 422.013 359.361C411.212 360.528 405.346 349.688 406.057 345.417C407.386 337.438 419.125 330.072 425.162 340.455Z" fill="#FFA492"/>
<path d="M419.627 345.927C418.514 345.195 416.488 345.592 415.766 346.99" stroke="#22252D" stroke-width="0.5" stroke-miterlimit="10" stroke-linecap="round" stroke-linejoin="round"/>
<path d="M418.186 348.799C417.283 348.649 417.515 347.244 418.42 347.395C419.323 347.546 419.091 348.95 418.186 348.799Z" fill="#22252D"/>
<path d="M425.318 345.322C424.833 344.605 423.489 344.486 422.705 345.32" stroke="#22252D" stroke-width="0.5" stroke-miterlimit="10" stroke-linecap="round" stroke-linejoin="round"/>
<path d="M423.974 347.865C423.071 347.715 423.303 346.31 424.208 346.461C425.111 346.611 424.878 348.016 423.974 347.865Z" fill="#22252D"/>
<path d="M418.303 356.001L417.624 363.718C417.624 363.718 410.866 369.012 401.144 361.357L406.077 344.997" fill="#FFA492"/>
<path d="M399.701 342.456C400.018 341.682 400.316 340.906 400.59 340.125C401.475 337.604 403.354 335.33 405.887 334.48C406.603 334.24 407.375 334.106 407.992 333.671C408.595 333.245 408.979 332.58 409.504 332.061C410.259 331.314 411.28 330.896 412.305 330.616C416.434 329.487 421.489 330.135 424.518 333.164C429.486 338.132 427.389 343.51 427.389 343.51C427.389 343.51 422.594 341.428 420.632 340.517C420.092 340.266 419.462 340.021 418.923 340.273C418.412 340.511 418.188 341.1 417.982 341.625C416.912 344.341 415.051 346.74 412.686 348.451C412.115 348.864 410.869 343.881 408.767 346.863C406.816 349.631 411.188 352.084 410.799 354.918C410.665 355.896 410.126 356.775 409.488 357.529C407.445 359.943 404.359 361.284 401.241 361.815C398.123 362.345 391.947 362.445 387.394 363.956C387.106 363.936 397.228 348.492 399.701 342.456Z" fill="#22252D"/>
<path d="M418.063 359.828C416.848 359.741 414.604 358.949 412.339 357.28" stroke="#D16C59" stroke-width="0.5" stroke-miterlimit="10" stroke-linejoin="round"/>
<path d="M423.401 354.249L417.613 353.746C417.613 353.746 418.017 356.871 421.076 356.811C423.042 356.774 423.401 354.249 423.401 354.249Z" fill="white"/>
<path d="M422.11 348.591C422.11 348.591 423.851 351.184 423.589 351.588C423.172 352.231 421.693 352.573 421.693 352.573" stroke="#D16C59" stroke-width="0.5" stroke-miterlimit="10" stroke-linejoin="round"/>
<path d="M411.822 332.074C412.855 331.502 413.767 330.662 414.271 329.594C414.775 328.526 414.831 327.22 414.275 326.178C413.928 325.527 413.368 325.011 412.755 324.601C410.439 323.053 407.208 323.011 404.852 324.497C404.356 324.81 403.891 325.192 403.578 325.687C403.078 326.476 403.018 327.491 403.268 328.391C403.518 329.291 404.051 330.09 404.666 330.793C405.741 332.022 407.304 333.061 408.91 332.763" fill="#22252D"/>
<path d="M739.771 493.078C740.479 489.404 740.85 483.893 740.85 483.893L737.415 481.627L717.396 475.631C717.396 475.631 714.287 477.561 709.335 478.604C699.242 480.728 696.642 482.064 694.197 484.42C693.808 484.795 693.007 486.226 693.007 486.226C693.007 486.226 715.17 494.251 717.827 495.213C720.484 496.175 724.888 494.712 729.153 496.257L728.523 499.086L736.97 502.145L737.686 500.168C737.688 500.168 739.063 496.752 739.771 493.078Z" fill="#22252D"/>
<path d="M724.819 495.514L694.193 484.425C693.802 484.805 693.007 486.226 693.007 486.226C693.007 486.226 715.17 494.251 717.827 495.213C719.579 495.847 722.09 495.431 724.819 495.514Z" fill="#0093D3"/>
<path d="M728.984 497.022L728.524 499.086L736.972 502.145L737.686 500.173L728.984 497.022Z" fill="#0093D3"/>
<path d="M748.27 471.549L740.85 483.893C740.85 483.893 738.212 485.472 730.826 482.798C719.611 478.737 717.395 475.631 717.395 475.631L725.592 456.009" fill="#FFA492"/>
<path d="M795.137 333.787C795.137 333.787 752.784 375.011 742.97 397.366C733.156 419.72 715.054 470.885 715.054 470.885L752.759 481.489C752.759 481.489 775.909 419.739 778.789 413.716C781.669 407.693 802.216 385.685 802.216 385.685C802.216 385.685 822.616 374.632 829.065 367.205" fill="#DCDCDC"/>
<path d="M746.283 479.667C746.283 479.667 769.686 417.663 772.566 411.64C775.446 405.617 801.194 377.201 801.194 377.201" stroke="#AAA7A7" stroke-miterlimit="10" stroke-linejoin="round"/>
<path d="M877.282 483.755C875.472 480.481 872.226 476.012 872.226 476.012L868.137 476.473L848.925 484.696C848.925 484.696 847.775 488.17 844.641 492.143C838.253 500.241 837.112 502.932 836.745 506.308C836.687 506.845 836.988 508.457 836.988 508.457C836.988 508.457 859.147 500.418 861.803 499.455C864.459 498.491 866.904 494.546 871.168 492.999L872.497 495.575L880.942 492.511L880.225 490.534C880.225 490.534 879.092 487.03 877.282 483.755Z" fill="#22252D"/>
<path d="M867.363 495.206L836.744 506.314C836.688 506.856 836.987 508.457 836.987 508.457C836.987 508.457 859.146 500.418 861.802 499.455C863.553 498.819 865.215 496.891 867.363 495.206Z" fill="#0093D3"/>
<path d="M871.526 493.695L872.496 495.574L880.942 492.51L880.227 490.539L871.526 493.695Z" fill="#0093D3"/>
<path d="M863.475 463.774L872.225 476.012C872.225 476.012 871.211 478.914 863.827 481.593C852.614 485.661 848.923 484.696 848.923 484.696L836.106 466.372" fill="#FFA492"/>
<path d="M797.914 336.993C797.914 336.993 795.345 403.62 802.132 427.071C808.919 450.522 833.165 487.118 833.165 487.118L870.501 469.772C870.501 469.772 843.35 421.814 841.701 415.345C840.053 408.876 839.543 376.441 839.543 376.441C839.543 376.441 846.857 358.491 843.402 342.397" fill="#DCDCDC"/>
<path d="M864.277 472.884C864.277 472.884 837.126 424.926 835.477 418.457C834.252 413.65 833.656 394.509 833.431 384.989C833.354 381.732 833.799 378.499 834.761 375.386C836.694 369.138 839.615 356.862 837.178 345.51" stroke="#AAA7A7" stroke-miterlimit="10" stroke-linejoin="round"/>
<path d="M814.217 439.274C814.217 439.274 836.799 452.706 845.075 456.009" stroke="#AAA7A7" stroke-miterlimit="10" stroke-linejoin="round"/>
<path d="M814.217 444.936C814.217 444.936 822.515 454.871 829.968 461.706" stroke="#AAA7A7" stroke-miterlimit="10" stroke-linejoin="round"/>
<path d="M797.896 390.385C797.896 390.385 797.573 350.194 801.194 339.767" stroke="#AAA7A7" stroke-miterlimit="10" stroke-linejoin="round"/>
<path d="M794.966 344.671C794.966 344.671 792.576 363.066 793.447 364.953C794.591 367.431 797.887 369.953 797.887 369.953" stroke="#AAA7A7" stroke-miterlimit="10" stroke-linejoin="round"/>
<path d="M801.373 272.408L786.196 333.398L847.808 348.638C847.808 348.638 859.917 300.846 859.917 289.826C859.917 278.806 841.144 260.146 841.144 260.146L822.555 256.234L801.373 272.408Z" fill="#0A87CC"/>
<path d="M809.593 363.098C821.2 364.894 846.818 369.953 846.818 369.953C846.818 369.953 851.351 335.255 854.025 322.536C857.652 305.281 859.918 276.62 859.918 276.62L841.145 260.146C841.145 260.146 823.852 299 809.593 363.098Z" fill="#303030"/>
<path d="M810.592 268.119L822.555 256.233C822.555 256.233 802.466 253.891 792.216 264.142C781.966 274.392 774.44 308.199 774.44 308.199L745.119 336.396L760.74 348.187L799.41 319.463L808.295 277.071" fill="#303030"/>
<path d="M822.555 256.233C822.555 256.233 808.307 280.814 788.701 359.2C782.945 357.373 770.37 353.027 770.37 353.027C770.37 353.027 797.299 272.759 797.299 271.767C797.299 270.775 813.388 258.883 813.388 258.883L822.555 256.233Z" fill="#303030"/>
<path d="M778.207 333.787C786.157 308.274 797.299 272.404 797.299 271.767" stroke="#727272" stroke-miterlimit="10" stroke-linejoin="round"/>
<path d="M824.659 247.125L822.555 256.233C822.555 256.233 822.555 261.687 827.221 263.146C838.095 266.546 841.144 260.145 841.144 260.145L841.642 242.192" fill="#FFA492"/>
<path d="M822.092 235.013C822.109 234.518 821.533 234.195 821.037 234.214C820.332 234.241 819.699 234.711 819.322 235.308C818.945 235.904 818.789 236.613 818.701 237.313C818.619 237.963 818.592 238.645 818.836 239.254C819.27 240.336 820.616 240.954 821.719 240.576" fill="#D16C59"/>
<path d="M823.372 226.764C823.372 226.764 817.799 241.859 819.721 245.253C822.6 250.337 830.517 251.479 834.082 249.61C837.073 248.042 840.343 238.396 840.593 235.834C841.272 228.879 827.389 223.46 823.372 226.764Z" fill="#FFA492"/>
<path d="M843.261 226.649C843.261 222.945 839.445 220.857 836.818 219.999C834.192 219.141 825.671 216.858 820.824 226.063C824.602 228.117 830.356 230.057 835.277 230.2C835.199 232.766 835.566 235.344 836.344 237.79C836.593 238.573 836.858 240.125 837.715 240.434C838.667 240.777 839.45 240.36 839.646 241.72C839.811 242.863 839.943 244.681 841.512 246.574C849.262 241.909 849.716 228.165 843.261 226.649Z" fill="#22252D"/>
<path d="M824.12 249.495C824.12 249.495 829.351 251.067 833.217 249.453C836.266 248.181 837.661 244.68 837.661 244.68" stroke="#D16C59" stroke-width="0.5" stroke-miterlimit="10" stroke-linejoin="round"/>
<path d="M836.345 239.443C836.738 238.905 837.939 238.273 838.552 238.4C839.165 238.527 839.696 238.954 840.082 239.484C841.892 241.971 839.253 246.122 836.183 245.336C835.056 245.047 835.516 243.564 835.516 243.564" fill="#FFA492"/>
<path d="M826.249 235.003C826.249 235.003 823.608 238.317 823.515 239.192C823.422 240.066 825.689 240.747 825.689 240.747" stroke="#D16C59" stroke-width="0.5" stroke-miterlimit="10" stroke-linejoin="round"/>
<path d="M830.217 236.702C830.091 237.089 830.225 237.48 830.517 237.575C830.809 237.671 831.149 237.435 831.275 237.048C831.401 236.662 831.267 236.271 830.975 236.175C830.683 236.079 830.344 236.315 830.217 236.702Z" fill="#011E3B"/>
<path d="M822.026 233.96C821.9 234.346 822.034 234.737 822.327 234.833C822.619 234.929 822.959 234.693 823.085 234.306C823.212 233.919 823.077 233.529 822.785 233.433C822.492 233.338 822.152 233.574 822.026 233.96Z" fill="#011E3B"/>
<path d="M828.24 244.139L823.133 243.021C823.133 243.021 822.714 246.643 825.011 247.214C827.833 247.915 828.24 244.139 828.24 244.139Z" fill="white"/>
<path d="M834.168 234.236C834.106 234.029 834.039 233.824 833.966 233.62C833.939 233.544 833.909 233.465 833.851 233.408C833.782 233.341 833.684 233.315 833.59 233.293C832.842 233.118 832.073 233.028 831.305 233.023C830.955 233.021 830.546 232.995 830.204 233.075C829.752 233.181 829.816 233.193 829.935 233.653C829.947 233.699 829.96 233.747 829.993 233.781C830.048 233.838 830.137 233.837 830.216 233.833C831.491 233.771 832.779 233.97 833.976 234.413C834.038 234.436 834.118 234.456 834.162 234.407C834.201 234.365 834.187 234.301 834.168 234.236Z" fill="#011E3B"/>
<path d="M822.073 230.984C822.211 230.831 822.353 230.682 822.497 230.537C822.551 230.482 822.608 230.427 822.673 230.404C822.751 230.377 822.83 230.398 822.903 230.422C823.493 230.609 824.057 230.878 824.581 231.223C824.82 231.38 825.11 231.543 825.305 231.768C825.563 232.066 825.514 232.047 825.219 232.395C825.19 232.43 825.158 232.466 825.12 232.48C825.056 232.505 824.996 232.463 824.944 232.424C824.106 231.791 823.139 231.381 822.119 231.225C822.066 231.217 822.003 231.198 821.995 231.135C821.99 231.082 822.029 231.031 822.073 230.984Z" fill="#011E3B"/>
<path d="M786.501 254.459L780.595 227.875L714.205 242.625L720.111 269.209C722.854 281.553 734.921 289.806 749.023 290.166C750.487 290.203 751.681 291.055 751.951 292.275C752.222 293.494 751.501 294.771 750.191 295.425C737.568 301.722 730.131 314.309 732.873 326.653L738.779 353.237L805.169 338.487L799.263 311.903C796.521 299.559 784.453 291.306 770.351 290.946C768.887 290.909 767.693 290.057 767.423 288.837C767.152 287.618 767.873 286.34 769.183 285.687C781.806 279.39 789.243 266.803 786.501 254.459Z" fill="#CDEEFC"/>
<path d="M782.789 221.054L709.34 237.373L710.233 241.391L783.681 225.072L782.789 221.054Z" fill="#22252D"/>
<path d="M781.563 225.543L712.353 240.921L712.799 242.93L782.009 227.552L781.563 225.543Z" fill="#95E0E8"/>
<path d="M736.583 360.059L810.031 343.74L809.138 339.722L735.69 356.041L736.583 360.059Z" fill="#22252D"/>
<path d="M737.81 355.569L807.02 340.191L806.573 338.182L737.364 353.56L737.81 355.569Z" fill="#95E0E8"/>
<path d="M780.811 256.514L778.774 247.346L724.1 259.493L726.137 268.661C728.319 278.48 738.36 284.978 750.185 285.196C753.992 285.266 757.056 287.582 757.76 290.751L763.007 314.368C763.624 317.147 762.234 320.096 759.465 321.883L744.147 331.77C742.027 333.138 740.963 335.396 741.436 337.523L743.601 347.267L798.275 335.12L796.11 325.377C795.637 323.25 793.718 321.656 791.218 321.313L773.155 318.842C769.889 318.395 767.381 316.312 766.764 313.534L761.517 289.916C760.813 286.748 762.609 283.352 766.027 281.677C776.647 276.471 782.992 266.333 780.811 256.514Z" fill="#FFAA40"/>
<path d="M776.075 254.627L772.133 236.886" stroke="white" stroke-width="2" stroke-miterlimit="10" stroke-linecap="round" stroke-linejoin="round"/>
<path d="M738.564 324.598C736.244 314.154 743.568 303.343 755.427 298.496" stroke="white" stroke-width="2" stroke-miterlimit="10" stroke-linecap="round" stroke-linejoin="round"/>
<path d="M782.979 341.549C778.507 342.677 765.675 346.721 765.436 347.634C765.197 348.548 770.509 347.812 770.173 348.526C769.837 349.24 762.125 351.721 761.709 352.604C761.293 353.487 767.232 351.51 770.124 351.373C767.466 351.61 761.943 354.176 761.922 355.022C761.901 355.868 771.79 353.957 771.79 353.957C771.79 353.957 764.205 356.57 764.099 357.443C763.994 358.315 773.115 355.8 773.115 355.8C773.115 355.8 766.33 358.393 766.837 359.001C767.796 360.151 782.945 355.987 792.766 355.055" fill="#FFA492"/>
<path d="M840.618 289.825C840.618 289.825 820.955 322.075 817.229 325.802C814.861 328.17 776.377 342.834 776.377 342.834L782.404 365.049C782.404 365.049 831.266 354.784 841.104 346.273C852.516 336.4 865.15 310.757 865.15 292.095C865.15 267.913 841.144 260.146 841.144 260.146" fill="#303030"/>
<path d="M810.592 358.161C823.302 354.638 836.491 350.263 841.103 346.273C844.593 343.253 848.198 338.758 851.521 333.439" stroke="#727272" stroke-miterlimit="10" stroke-linejoin="round"/>
<path d="M840.618 289.825C840.618 289.825 823.426 318.69 819.318 323.712" stroke="#727272" stroke-miterlimit="10" stroke-linejoin="round"/>
<path d="M350.696 374.81C355.831 357.849 346.244 339.936 329.282 334.8C312.32 329.664 294.407 339.25 289.271 356.212C284.135 373.173 293.722 391.087 310.684 396.222C327.646 401.358 345.56 391.772 350.696 374.81Z" fill="#FFAA40"/>
<path d="M341.181 374.938C346.397 363.226 341.131 349.503 329.418 344.288C317.706 339.072 303.983 344.338 298.768 356.051C293.552 367.763 298.818 381.486 310.531 386.701C322.243 391.917 335.966 386.651 341.181 374.938Z" fill="#FFF0E1"/>
<path d="M335.924 365.507C335.924 374.313 328.785 381.452 319.978 381.452C311.171 381.452 304.032 374.313 304.032 365.507C304.032 356.7 311.171 349.561 319.978 349.561C328.785 349.561 335.924 356.7 335.924 365.507Z" fill="#FFAA40"/>
<path d="M328.332 365.507C328.332 370.12 324.592 373.86 319.979 373.86C315.366 373.86 311.626 370.12 311.626 365.507C311.626 360.894 315.366 357.154 319.979 357.154C324.592 357.153 328.332 360.893 328.332 365.507Z" fill="#FFF0E1"/>
<path d="M321.271 366.799H316.026L321.271 361.554V366.799Z" fill="#22252D"/>
<path d="M287.26 332.788H281.258V331.275H285.746V326.786H287.26V332.788Z" fill="#22252D"/>
<path d="M284.513 330.041H278.511V328.528H282.999V324.039H284.513V330.041Z" fill="#22252D"/>
<path d="M284.039 328.502L282.969 329.572L319.26 365.863L320.33 364.793L284.039 328.502Z" fill="#22252D"/>
</svg>
