<svg width="1009" height="650" viewBox="0 0 1009 650" fill="none" xmlns="http://www.w3.org/2000/svg">
<rect x="320.598" y="0.000793457" width="688.401" height="650" fill="#3982E0"/>
<path d="M14.0235 340.261C6.27855 332.385 6.27854 319.616 14.0235 311.741L320.598 0.000765848L639.23 324.001L318.632 650.001L14.0235 340.261Z" fill="#4395FF"/>
<path d="M835.881 499.193H796.135V499.493H835.881V499.193Z" fill="#EBEBEB"/>
<path d="M693.464 502.45H683.032V502.75H693.464V502.45Z" fill="#EBEBEB"/>
<path d="M794.934 488.05H771.903V488.35H794.934V488.05Z" fill="#EBEBEB"/>
<path d="M410.782 490.066H358.951V490.366H410.782V490.066Z" fill="#EBEBEB"/>
<path d="M429.067 490.066H421.467V490.366H429.067V490.066Z" fill="#EBEBEB"/>
<path d="M566.176 495.133H453.765V495.433H566.176V495.133Z" fill="#EBEBEB"/>
<path d="M580.417 426.36H348.698C344.922 426.36 341.849 423.287 341.849 419.51V93.792C341.849 90.0156 344.922 86.9424 348.698 86.9424H580.417C584.192 86.9424 587.265 90.0156 587.265 93.792V419.51C587.265 423.287 584.192 426.36 580.417 426.36ZM348.698 87.2436C345.086 87.2436 342.149 90.1812 342.149 93.7932V419.512C342.149 423.124 345.086 426.061 348.698 426.061H580.417C584.028 426.061 586.965 423.124 586.965 419.512V93.792C586.965 90.1812 584.028 87.2424 580.417 87.2424L348.698 87.2436Z" fill="#EBEBEB"/>
<path d="M839.972 426.36H608.255C604.478 426.36 601.406 423.287 601.406 419.51V93.792C601.406 90.0156 604.479 86.9424 608.255 86.9424H839.972C843.75 86.9424 846.822 90.0156 846.822 93.792V419.51C846.823 423.287 843.75 426.36 839.972 426.36ZM608.255 87.2436C604.644 87.2436 601.706 90.1812 601.706 93.7932V419.512C601.706 423.124 604.644 426.061 608.255 426.061H839.972C843.584 426.061 846.522 423.124 846.522 419.512V93.792C846.522 90.1812 843.584 87.2424 839.972 87.2424L608.255 87.2436Z" fill="#EBEBEB"/>
<path d="M896 479.878H296V480.178H896V479.878Z" fill="#EBEBEB"/>
<path d="M496.735 175.747L461.768 173.71C460.53 173.638 459.297 173.929 458.222 174.548C446.67 184.559 434.207 177.877 428.718 173.932C426.626 172.427 424.166 171.52 421.593 171.37L382.635 169.1C368.019 168.248 365.684 147.578 379.77 143.58C379.949 143.53 380.13 143.48 380.312 143.431C365.784 129.818 400.853 104.946 435.08 144.208C432.966 131.659 465.053 138.017 473.965 155.491C478.127 144.601 507.853 165.673 496.735 175.747Z" fill="#FAFAFA"/>
<path d="M524.041 130.536C528.525 117.752 538.021 101.134 571.707 104.759C605.392 108.383 588.506 128.704 607.764 131.196C627.02 133.69 624.219 123.631 639.844 139.614C655.47 155.596 653.655 141.68 666.95 149.609C680.244 157.537 513.529 160.5 524.041 130.536Z" fill="#F5F5F5"/>
<path d="M719.438 169.536L744.087 169.062L746.136 169.932C757.424 174.727 770.279 174.146 781.089 168.35L801.708 167.954C801.708 167.954 820.861 160.318 817.995 141.12C815.131 121.924 786.312 138.518 786.312 138.518C786.312 138.518 794.624 111.498 766.565 119.659C738.504 127.819 736.267 154.492 736.267 154.492C736.267 154.492 699.097 148.738 719.438 169.536Z" fill="#F5F5F5"/>
<path d="M784.394 450.24L783.526 450.347C783.472 449.906 778.206 405.834 789.069 369.82C799.867 334.024 792.432 311.215 792.355 310.99L793.184 310.71C793.261 310.939 800.784 334.013 789.906 370.073C779.097 405.907 784.34 449.801 784.394 450.24Z" fill="#E0E0E0"/>
<path d="M793.904 315.898C792.03 313.655 789.431 312.053 786.585 311.386L786.785 310.534C789.813 311.244 792.581 312.949 794.576 315.337L793.904 315.898Z" fill="#E0E0E0"/>
<path d="M797.618 319.538L795.116 320.951L795.546 321.713L798.048 320.3L797.618 319.538Z" fill="#E0E0E0"/>
<path d="M792.963 339.863C790.813 334.93 786.712 330.953 781.717 328.951L782.042 328.139C787.25 330.226 791.523 334.371 793.766 339.513L792.963 339.863Z" fill="#E0E0E0"/>
<path d="M790.617 367.397L789.742 367.408C789.699 363.851 788.007 360.412 785.217 358.206L785.76 357.52C788.756 359.887 790.572 363.58 790.617 367.397Z" fill="#E0E0E0"/>
<path d="M788.667 374.437L787.854 374.117C788.731 371.891 790.59 370.055 792.828 369.208L793.137 370.026C791.126 370.788 789.456 372.437 788.667 374.437Z" fill="#E0E0E0"/>
<path d="M782.999 419.106L782.326 418.548C783.389 417.265 784.195 412.379 784.627 409.755C784.73 409.127 784.817 408.592 784.892 408.205L785.751 408.369C785.679 408.75 785.591 409.277 785.489 409.896C784.845 413.815 784.12 417.754 782.999 419.106Z" fill="#E0E0E0"/>
<path d="M782.493 433.133C781.364 429.678 777.775 427.201 774.145 427.37L774.104 426.497C778.113 426.31 782.078 429.046 783.325 432.86L782.493 433.133Z" fill="#E0E0E0"/>
<path d="M789.195 442.299L783.032 449.197L783.684 449.78L789.847 442.882L789.195 442.299Z" fill="#E0E0E0"/>
<path d="M793.534 397.304C794.931 401.825 785.19 410.431 785.19 410.431C785.19 410.431 772.292 408.818 770.895 404.298C769.498 399.778 772.766 392.381 779.017 390.449C785.269 388.518 792.138 392.784 793.534 397.304Z" fill="#F0F0F0"/>
<path d="M804.345 342.443C803.109 347.244 793.884 350.654 793.884 350.654C793.884 350.654 787.452 343.213 788.688 338.412C789.924 333.611 795.024 328.32 799.347 329.434C803.67 330.546 805.581 337.642 804.345 342.443Z" fill="#EBEBEB"/>
<path d="M767.325 414.188C773.119 416.444 776.668 426.69 776.668 426.69C776.668 426.69 767.125 431.837 761.331 429.581C755.538 427.325 749.407 420.97 751.062 416.719C752.718 412.469 761.532 411.932 767.325 414.188Z" fill="#F5F5F5"/>
<path d="M780.026 357.821C781.25 358.729 782.512 359.657 783.985 360.056C785.456 360.456 787.207 360.211 788.206 359.06C789.446 357.634 789.114 355.422 788.332 353.7C786.786 350.29 781.076 344.502 776.691 346.162C770.362 348.559 777.204 355.726 780.026 357.821Z" fill="#E6E6E6"/>
<path d="M792.981 366.511C792.151 367.541 791.269 368.838 791.724 370.08C792.127 371.182 793.48 371.687 794.64 371.512C795.8 371.336 796.808 370.649 797.772 369.979C800.006 368.428 804.588 365.172 801.663 362.126C798.624 358.962 794.731 364.343 792.981 366.511Z" fill="#EBEBEB"/>
<path d="M774.286 323.178C773.33 323.284 772.361 323.923 772.198 324.871C772.007 325.98 772.927 326.95 773.818 327.636C776.037 329.346 782.705 333.961 784.195 329.509C785.601 325.303 777.235 322.853 774.286 323.178Z" fill="#E0E0E0"/>
<path d="M786.579 308.533C785.203 308.664 783.831 308.165 782.451 308.252C781.071 308.34 779.541 309.45 779.848 310.798C780.132 312.043 781.68 312.46 782.955 312.54C785.131 312.677 787.323 312.526 789.459 312.091C789.955 311.99 790.495 311.844 790.779 311.425C791.337 310.604 790.449 309.503 789.5 309.212C788.551 308.921 787.479 309.018 786.618 308.526L786.579 308.533Z" fill="#E6E6E6"/>
<path d="M800.026 318.001C801.407 318.041 802.744 317.453 804.127 317.449C805.509 317.446 807.109 318.451 806.893 319.817C806.692 321.078 805.174 321.596 803.908 321.761C801.747 322.04 799.549 322.034 797.389 321.742C796.887 321.673 796.339 321.563 796.028 321.163C795.417 320.381 796.229 319.224 797.158 318.87C798.086 318.517 799.161 318.544 799.989 317.995L800.026 318.001Z" fill="#F0F0F0"/>
<path d="M798.666 419.795C799.006 419.507 799.393 419.21 799.839 419.214C800.432 419.219 800.902 419.777 801.013 420.359C801.123 420.941 800.96 421.536 800.79 422.104C799.855 425.237 789.339 447.929 786.92 443.854C785.49 441.444 789.004 433.465 790.041 431.208C792.048 426.842 794.991 422.898 798.666 419.795Z" fill="#F0F0F0"/>
<path d="M792.376 309.396C793.21 307.523 794.114 305.563 795.772 304.357C797.431 303.151 800.088 303.061 801.295 304.718C802.645 306.571 801.295 309.386 799.226 310.374C797.157 311.362 794.733 311.065 792.463 310.746C792.445 310.409 792.426 310.072 792.408 309.734L792.376 309.396Z" fill="#E6E6E6"/>
<path d="M799.619 480.272C788.552 482.506 776.876 482.506 765.81 480.272L756.987 441.467H808.44L799.619 480.272Z" fill="#E6E6E6"/>
<path d="M428.148 289.532H459.926V230.537H428.148V289.532Z" fill="#EBEBEB"/>
<path d="M437.004 289.532H468.782V230.537H437.004V289.532Z" fill="#F5F5F5"/>
<path d="M472.949 217.681H425.539V230.539H472.949V217.681Z" fill="#F5F5F5"/>
<path d="M432.839 217.681H425.539V230.539H432.839V217.681Z" fill="#EBEBEB"/>
<path d="M399.544 479.876H615.07V319.903H399.544V479.876Z" fill="#E6E6E6"/>
<path d="M505.486 197.976L627.412 319.902H383.559L505.486 197.976Z" fill="#F5F5F5"/>
<path d="M383.56 333.973L627.413 333.973V319.903L383.56 319.903V333.973Z" fill="#E0E0E0"/>
<path d="M532.31 347.466H471.66V408.116H532.31V347.466Z" fill="#E0E0E0"/>
<path d="M534.543 347.466H473.893V408.116H534.543V347.466Z" fill="#F0F0F0"/>
<path d="M531.475 349.932H476.844V404.563H531.475V349.932Z" fill="white"/>
<path d="M531.475 349.932H529.552V404.563H531.475V349.932Z" fill="#E0E0E0"/>
<path d="M476.674 378.927V380.849H529.758V378.927H476.674Z" fill="#E0E0E0"/>
<path d="M531.476 375.698H475.813V378.926H531.476V375.698Z" fill="#F0F0F0"/>
<path d="M590.214 529.457C718.712 529.457 822.88 523.373 822.88 515.869C822.88 508.365 718.712 502.282 590.214 502.282C461.715 502.282 357.547 508.365 357.547 515.869C357.547 523.373 461.715 529.457 590.214 529.457Z" fill="#F5F5F5"/>
<path d="M719.621 413.478L737.405 515.113H751.043L749.977 506.688H769.639L771.522 515.113H785.16L767.376 413.478H719.621ZM730.08 423.58C729.776 420.108 732.341 417.298 735.812 417.298H751.853C753.583 417.298 755.219 418.002 756.452 419.135C757.691 420.274 758.532 421.843 758.684 423.578C758.988 427.044 756.417 429.86 752.952 429.86H736.911C735.176 429.86 733.545 429.156 732.306 428.017C731.072 426.884 730.231 425.31 730.08 423.58Z" fill="#407BFF"/>
<path opacity="0.3" d="M719.621 413.478L737.405 515.113H751.043L749.977 506.688H769.639L771.522 515.113H785.16L767.376 413.478H719.621ZM730.963 423.58C730.356 420.108 732.674 417.298 736.146 417.298H752.186C753.917 417.298 755.615 418.002 756.947 419.135C758.285 420.274 759.264 421.843 759.567 423.578C760.173 427.044 757.85 429.86 754.385 429.86H738.344C736.609 429.86 734.916 429.156 733.578 428.017C732.246 426.884 731.265 425.31 730.963 423.58Z" fill="black"/>
<path d="M719.574 413.478L701.79 515.113H715.428L717.31 506.688H736.972L735.907 515.113H749.545L767.329 413.478H719.574ZM753.37 428.018C752.032 429.157 750.339 429.862 748.604 429.862H732.564C729.098 429.862 726.775 427.046 727.381 423.58C727.684 421.844 728.664 420.275 730.002 419.136C731.334 418.002 733.032 417.299 734.762 417.299H750.802C754.274 417.299 756.592 420.109 755.985 423.581C755.683 425.31 754.702 426.884 753.37 428.018Z" fill="#407BFF"/>
<path d="M738.085 457.567H734.52L735.814 450.169C735.894 449.714 736.327 449.346 736.782 449.346H738.7C739.155 449.346 739.459 449.714 739.38 450.169L738.085 457.567Z" fill="#263238"/>
<path d="M748.081 464.33H721.803L722.492 460.391C722.818 458.524 724.597 457.01 726.464 457.01H745.981C747.848 457.01 749.096 458.524 748.77 460.391L748.081 464.33Z" fill="#263238"/>
<path d="M748.082 464.332L744.583 484.331L738.595 484.272L739.389 476.885L737.698 484.264L733.186 484.218L733.973 476.885L732.297 484.208L723.595 484.122L724.861 476.885L722.596 484.112L715.143 484.038L715.862 482.482C718.813 476.106 720.641 470.964 721.803 464.332H748.082Z" fill="#407BFF"/>
<path opacity="0.5" d="M748.082 464.332L744.583 484.331L738.595 484.272L739.389 476.885L737.698 484.264L733.186 484.218L733.973 476.885L732.297 484.208L723.595 484.122L724.861 476.885L722.596 484.112L715.143 484.038L715.862 482.482C718.813 476.106 720.641 470.964 721.803 464.332H748.082Z" fill="white"/>
<path d="M674.652 451.981H552.34C538.581 451.981 528.206 440.826 529.168 427.067L549.61 134.725C550.573 120.966 562.507 109.811 576.267 109.811H698.578C712.338 109.811 722.713 120.965 721.75 134.725L701.308 427.068C700.346 440.827 688.411 451.981 674.652 451.981Z" fill="#407BFF"/>
<path d="M668.3 451.981H545.989C532.228 451.981 521.854 440.826 522.817 427.067L543.26 134.725C544.222 120.966 556.156 109.811 569.917 109.811H692.228C705.987 109.811 716.362 120.965 715.4 134.725L694.957 427.068C693.994 440.827 682.06 451.981 668.3 451.981Z" fill="#263238"/>
<path d="M691.827 115.528H660.036C657.954 115.528 656.088 117.076 655.68 119.141L655.483 120.137C654.486 125.18 649.929 128.96 644.844 128.96H614.62C609.535 128.96 605.506 125.18 605.216 120.137L605.158 119.141C605.038 117.076 603.39 115.528 601.308 115.528H569.516C558.913 115.528 549.717 124.123 548.976 134.725L528.534 427.067C527.792 437.67 535.786 446.266 546.39 446.266H668.701C679.304 446.266 688.501 437.67 689.241 427.067L709.683 134.725C710.425 124.123 702.43 115.528 691.827 115.528Z" fill="#407BFF"/>
<path opacity="0.8" d="M709.681 134.724L709.261 140.664L689.245 427.068C688.501 437.676 679.297 446.268 668.701 446.268H546.385C535.777 446.268 527.797 437.676 528.541 427.068L548.557 140.664L548.977 134.724C549.721 124.128 558.913 115.524 569.509 115.524H601.309C603.397 115.524 605.041 117.072 605.161 119.148L605.221 120.132C605.509 125.172 609.541 128.964 614.617 128.964H644.833C649.933 128.964 654.493 125.172 655.477 120.132L655.669 119.148C656.089 117.072 657.961 115.524 660.037 115.524H691.825C702.433 115.524 710.425 124.128 709.681 134.724Z" fill="white"/>
<path opacity="0.7" d="M709.261 141.475L689.245 427.879C688.501 438.487 679.297 447.079 668.701 447.079H546.385C535.777 447.079 527.797 438.487 528.541 427.879L548.557 141.475H709.261Z" fill="black"/>
<g opacity="0.7">
<path d="M623.048 118.767C622.954 120.109 621.79 121.196 620.449 121.196C619.107 121.196 618.096 120.109 618.189 118.767C618.283 117.426 619.447 116.339 620.788 116.339C622.13 116.337 623.142 117.425 623.048 118.767Z" fill="black"/>
<path d="M640.442 116.338C639.482 116.338 633.073 116.338 632.113 116.338C630.771 116.338 629.607 117.425 629.513 118.766C629.42 120.108 630.431 121.195 631.773 121.195C632.606 121.195 639.269 121.195 640.102 121.195C641.444 121.195 642.608 120.108 642.701 118.766C642.795 117.425 641.783 116.338 640.442 116.338Z" fill="black"/>
</g>
<path d="M562.694 128.912H565.267L565.447 126.341H562.874L562.694 128.912Z" fill="#407BFF"/>
<path d="M568.018 126.341L567.838 128.912H570.411L570.591 126.341L570.771 123.768H568.198L568.018 126.341Z" fill="#407BFF"/>
<path d="M573.522 121.196L573.342 123.768L573.162 126.341L572.982 128.912H575.555L575.735 126.341L575.915 123.768L576.095 121.196H573.522Z" fill="#407BFF"/>
<path d="M684.123 121.368L683.991 123.254H682.734L682.47 127.027H683.727L683.595 128.914H694.913L695.441 121.368H684.123ZM688.758 127.026H684.985L685.249 123.253H689.022L688.758 127.026Z" fill="#407BFF"/>
<path d="M620.083 263.44L614.804 266.236C614.977 267.844 615.264 269.412 615.653 270.935L621.41 270.84C622.223 273.355 623.382 275.696 624.836 277.816L621.449 282.746C622.41 283.972 623.46 285.121 624.59 286.189L629.78 283.232C631.757 284.872 633.978 286.236 636.403 287.269L635.805 293.018C637.283 293.54 638.814 293.965 640.394 294.278L643.631 289.244C644.934 289.421 646.267 289.52 647.634 289.52C649.001 289.52 650.352 289.421 651.686 289.244L654.042 294.278C655.677 293.965 657.282 293.54 658.851 293.018L659.259 287.269C661.865 286.236 664.326 284.873 666.588 283.232L671.261 286.189C672.579 285.121 673.83 283.97 675.005 282.746L672.479 277.816C674.304 275.696 675.872 273.355 677.125 270.84L682.866 270.935C683.521 269.412 684.083 267.845 684.536 266.236L679.747 263.44C680.039 262.121 680.256 260.778 680.376 259.411C680.496 258.044 680.514 256.702 680.453 255.383L685.731 252.587C685.559 250.979 685.272 249.41 684.883 247.888L679.125 247.982C678.313 245.468 677.154 243.126 675.699 241.007L679.087 236.076C678.126 234.851 677.076 233.701 675.945 232.633L670.755 235.59C668.78 233.951 666.558 232.586 664.133 231.554L664.731 225.805C663.254 225.283 661.723 224.858 660.143 224.545L656.906 229.579C655.603 229.403 654.269 229.303 652.903 229.303C651.536 229.303 650.185 229.403 648.851 229.579L646.495 224.545C644.859 224.858 643.254 225.283 641.685 225.805L641.277 231.554C638.672 232.588 636.211 233.951 633.949 235.59L629.276 232.633C627.959 233.701 626.707 234.852 625.532 236.076L628.057 241.007C626.232 243.126 624.663 245.467 623.411 247.982L617.67 247.888C617.015 249.41 616.453 250.979 615.999 252.587L620.789 255.383C620.497 256.702 620.28 258.044 620.16 259.411C620.04 260.778 620.022 262.121 620.083 263.44ZM640.031 259.411C640.525 253.758 645.509 249.174 651.163 249.174C656.817 249.174 660.999 253.757 660.504 259.411C660.009 265.064 655.026 269.648 649.371 269.648C643.718 269.648 639.536 265.064 640.031 259.411Z" fill="#407BFF"/>
<path opacity="0.4" d="M620.083 263.44L614.804 266.236C614.977 267.844 615.264 269.412 615.653 270.935L621.41 270.84C622.223 273.355 623.382 275.696 624.836 277.816L621.449 282.746C622.41 283.972 623.46 285.121 624.59 286.189L629.78 283.232C631.757 284.872 633.978 286.236 636.403 287.269L635.805 293.018C637.283 293.54 638.814 293.965 640.394 294.278L643.631 289.244C644.934 289.421 646.267 289.52 647.634 289.52C649.001 289.52 650.352 289.421 651.686 289.244L654.042 294.278C655.677 293.965 657.282 293.54 658.851 293.018L659.259 287.269C661.865 286.236 664.326 284.873 666.588 283.232L671.261 286.189C672.579 285.121 673.83 283.97 675.005 282.746L672.479 277.816C674.304 275.696 675.872 273.355 677.125 270.84L682.866 270.935C683.521 269.412 684.083 267.845 684.536 266.236L679.747 263.44C680.039 262.121 680.256 260.778 680.376 259.411C680.496 258.044 680.514 256.702 680.453 255.383L685.731 252.587C685.559 250.979 685.272 249.41 684.883 247.888L679.125 247.982C678.313 245.468 677.154 243.126 675.699 241.007L679.087 236.076C678.126 234.851 677.076 233.701 675.945 232.633L670.755 235.59C668.78 233.951 666.558 232.586 664.133 231.554L664.731 225.805C663.254 225.283 661.723 224.858 660.143 224.545L656.906 229.579C655.603 229.403 654.269 229.303 652.903 229.303C651.536 229.303 650.185 229.403 648.851 229.579L646.495 224.545C644.859 224.858 643.254 225.283 641.685 225.805L641.277 231.554C638.672 232.588 636.211 233.951 633.949 235.59L629.276 232.633C627.959 233.701 626.707 234.852 625.532 236.076L628.057 241.007C626.232 243.126 624.663 245.467 623.411 247.982L617.67 247.888C617.015 249.41 616.453 250.979 615.999 252.587L620.789 255.383C620.497 256.702 620.28 258.044 620.16 259.411C620.04 260.778 620.022 262.121 620.083 263.44ZM640.031 259.411C640.525 253.758 645.509 249.174 651.163 249.174C656.817 249.174 660.999 253.757 660.504 259.411C660.009 265.064 655.026 269.648 649.371 269.648C643.718 269.648 639.536 265.064 640.031 259.411Z" fill="white"/>
<path d="M569.151 219.161L560.377 223.808C560.538 225.115 560.773 226.394 561.072 227.646L570.653 227.488C571.32 229.375 572.195 231.156 573.258 232.8L567.62 241.004C568.421 241.991 569.277 242.929 570.186 243.816L578.82 238.896C580.358 240.103 582.048 241.134 583.863 241.966L582.869 251.532C584.085 251.94 585.333 252.287 586.616 252.563L591.996 244.195C592.994 244.304 594.012 244.363 595.049 244.363C596.085 244.363 597.114 244.303 598.131 244.195L602.047 252.563C603.378 252.288 604.687 251.94 605.975 251.532L606.654 241.966C608.615 241.133 610.484 240.102 612.235 238.896L620.009 243.816C621.073 242.929 622.093 241.991 623.067 241.004L618.866 232.8C620.216 231.156 621.403 229.376 622.401 227.488L631.955 227.646C632.472 226.394 632.931 225.114 633.32 223.808L625.359 219.161C625.556 218.153 625.705 217.13 625.796 216.094C625.887 215.057 625.916 214.034 625.896 213.026L634.67 208.379C634.509 207.072 634.274 205.793 633.975 204.541L624.395 204.7C623.727 202.812 622.853 201.031 621.789 199.387L627.427 191.183C626.627 190.196 625.77 189.258 624.861 188.371L616.227 193.29C614.689 192.083 612.999 191.052 611.184 190.219L612.179 180.653C610.962 180.245 609.714 179.898 608.431 179.622L603.051 187.99C602.053 187.88 601.035 187.822 599.999 187.822C598.962 187.822 597.933 187.882 596.916 187.99L593 179.622C591.669 179.897 590.36 180.245 589.073 180.653L588.395 190.219C586.434 191.052 584.564 192.083 582.813 193.29L575.04 188.371C573.975 189.258 572.955 190.196 571.982 191.183L576.183 199.387C574.833 201.031 573.647 202.812 572.648 204.7L563.095 204.541C562.578 205.793 562.118 207.072 561.728 208.379L569.689 213.026C569.492 214.034 569.343 215.057 569.252 216.094C569.161 217.129 569.131 218.153 569.151 219.161ZM585.54 216.092C586.119 209.473 591.954 204.108 598.573 204.108C605.192 204.108 610.088 209.473 609.509 216.092C608.93 222.712 603.095 228.077 596.477 228.077C589.856 228.077 584.96 222.712 585.54 216.092Z" fill="#407BFF"/>
<path opacity="0.3" d="M569.151 219.161L560.377 223.808C560.538 225.115 560.773 226.394 561.072 227.646L570.653 227.488C571.32 229.375 572.195 231.156 573.258 232.8L567.62 241.004C568.421 241.991 569.277 242.929 570.186 243.816L578.82 238.896C580.358 240.103 582.048 241.134 583.863 241.966L582.869 251.532C584.085 251.94 585.333 252.287 586.616 252.563L591.996 244.195C592.994 244.304 594.012 244.363 595.049 244.363C596.085 244.363 597.114 244.303 598.131 244.195L602.047 252.563C603.378 252.288 604.687 251.94 605.975 251.532L606.654 241.966C608.615 241.133 610.484 240.102 612.235 238.896L620.009 243.816C621.073 242.929 622.093 241.991 623.067 241.004L618.866 232.8C620.216 231.156 621.403 229.376 622.401 227.488L631.955 227.646C632.472 226.394 632.931 225.114 633.32 223.808L625.359 219.161C625.556 218.153 625.705 217.13 625.796 216.094C625.887 215.057 625.916 214.034 625.896 213.026L634.67 208.379C634.509 207.072 634.274 205.793 633.975 204.541L624.395 204.7C623.727 202.812 622.853 201.031 621.789 199.387L627.427 191.183C626.627 190.196 625.77 189.258 624.861 188.371L616.227 193.29C614.689 192.083 612.999 191.052 611.184 190.219L612.179 180.653C610.962 180.245 609.714 179.898 608.431 179.622L603.051 187.99C602.053 187.88 601.035 187.822 599.999 187.822C598.962 187.822 597.933 187.882 596.916 187.99L593 179.622C591.669 179.897 590.36 180.245 589.073 180.653L588.395 190.219C586.434 191.052 584.564 192.083 582.813 193.29L575.04 188.371C573.975 189.258 572.955 190.196 571.982 191.183L576.183 199.387C574.833 201.031 573.647 202.812 572.648 204.7L563.095 204.541C562.578 205.793 562.118 207.072 561.728 208.379L569.689 213.026C569.492 214.034 569.343 215.057 569.252 216.094C569.161 217.129 569.131 218.153 569.151 219.161ZM585.54 216.092C586.119 209.473 591.954 204.108 598.573 204.108C605.192 204.108 610.088 209.473 609.509 216.092C608.93 222.712 603.095 228.077 596.477 228.077C589.856 228.077 584.96 222.712 585.54 216.092Z" fill="white"/>
<path d="M590.947 306.641L585.119 309.728C585.225 310.596 585.381 311.446 585.581 312.278L591.944 312.173C592.388 313.427 592.969 314.61 593.675 315.702L589.929 321.152C590.461 321.808 591.03 322.432 591.633 323.021L597.369 319.753C598.392 320.555 599.514 321.24 600.72 321.793L600.059 328.148C600.866 328.42 601.697 328.65 602.549 328.832L606.122 323.274C606.786 323.346 607.461 323.386 608.15 323.386C608.839 323.386 609.522 323.346 610.197 323.274L612.799 328.832C613.683 328.65 614.553 328.42 615.408 328.148L615.859 321.793C617.161 321.24 618.404 320.555 619.566 319.753L624.729 323.021C625.436 322.432 626.114 321.808 626.761 321.152L623.97 315.702C624.867 314.61 625.655 313.427 626.318 312.173L632.664 312.278C633.007 311.447 633.313 310.597 633.571 309.728L628.283 306.641C628.413 305.971 628.513 305.292 628.573 304.603C628.633 303.914 628.653 303.235 628.639 302.566L634.467 299.478C634.361 298.61 634.205 297.761 634.007 296.929L627.642 297.035C627.198 295.781 626.617 294.599 625.911 293.506L629.657 288.055C629.125 287.4 628.556 286.776 627.953 286.187L622.217 289.454C621.194 288.653 620.072 287.968 618.866 287.414L619.527 281.059C618.72 280.788 617.889 280.558 617.037 280.375L613.464 285.934C612.8 285.862 612.125 285.822 611.436 285.822C610.747 285.822 610.064 285.862 609.389 285.934L606.787 280.375C605.903 280.558 605.033 280.788 604.178 281.059L603.727 287.414C602.425 287.968 601.182 288.653 600.02 289.454L594.857 286.187C594.15 286.776 593.472 287.399 592.825 288.055L595.616 293.506C594.719 294.598 593.931 295.78 593.268 297.035L586.922 296.929C586.579 297.761 586.273 298.61 586.015 299.478L591.303 302.566C591.173 303.235 591.073 303.914 591.013 304.603C590.953 305.292 590.933 305.971 590.947 306.641ZM598.695 304.602C599.232 298.472 604.635 293.503 610.765 293.503C616.895 293.503 621.429 298.472 620.893 304.602C620.357 310.732 614.953 315.701 608.823 315.701C602.694 315.701 598.159 310.732 598.695 304.602Z" fill="#407BFF"/>
<path opacity="0.5" d="M590.947 306.641L585.119 309.728C585.225 310.596 585.381 311.446 585.581 312.278L591.944 312.173C592.388 313.427 592.969 314.61 593.675 315.702L589.929 321.152C590.461 321.808 591.03 322.432 591.633 323.021L597.369 319.753C598.392 320.555 599.514 321.24 600.72 321.793L600.059 328.148C600.866 328.42 601.697 328.65 602.549 328.832L606.122 323.274C606.786 323.346 607.461 323.386 608.15 323.386C608.839 323.386 609.522 323.346 610.197 323.274L612.799 328.832C613.683 328.65 614.553 328.42 615.408 328.148L615.859 321.793C617.161 321.24 618.404 320.555 619.566 319.753L624.729 323.021C625.436 322.432 626.114 321.808 626.761 321.152L623.97 315.702C624.867 314.61 625.655 313.427 626.318 312.173L632.664 312.278C633.007 311.447 633.313 310.597 633.571 309.728L628.283 306.641C628.413 305.971 628.513 305.292 628.573 304.603C628.633 303.914 628.653 303.235 628.639 302.566L634.467 299.478C634.361 298.61 634.205 297.761 634.007 296.929L627.642 297.035C627.198 295.781 626.617 294.599 625.911 293.506L629.657 288.055C629.125 287.4 628.556 286.776 627.953 286.187L622.217 289.454C621.194 288.653 620.072 287.968 618.866 287.414L619.527 281.059C618.72 280.788 617.889 280.558 617.037 280.375L613.464 285.934C612.8 285.862 612.125 285.822 611.436 285.822C610.747 285.822 610.064 285.862 609.389 285.934L606.787 280.375C605.903 280.558 605.033 280.788 604.178 281.059L603.727 287.414C602.425 287.968 601.182 288.653 600.02 289.454L594.857 286.187C594.15 286.776 593.472 287.399 592.825 288.055L595.616 293.506C594.719 294.598 593.931 295.78 593.268 297.035L586.922 296.929C586.579 297.761 586.273 298.61 586.015 299.478L591.303 302.566C591.173 303.235 591.073 303.914 591.013 304.603C590.953 305.292 590.933 305.971 590.947 306.641ZM598.695 304.602C599.232 298.472 604.635 293.503 610.765 293.503C616.895 293.503 621.429 298.472 620.893 304.602C620.357 310.732 614.953 315.701 608.823 315.701C602.694 315.701 598.159 310.732 598.695 304.602Z" fill="white"/>
<path opacity="0.2" d="M691.284 115.475H568.971C558.368 115.475 549.172 124.07 548.431 134.674L527.989 427.014L691.284 115.475Z" fill="white"/>
<path d="M599.6 174.862C599.709 174.82 599.997 172.74 600.309 170.22C600.957 164.976 604.068 160.919 607.988 160.12C610.817 159.542 610.817 159.542 610.817 159.542C610.817 159.542 606.377 159.542 604.525 158.246C600.601 155.5 599.7 147.386 599.7 147.386C599.7 147.386 598.601 155.5 594.675 158.246C592.824 159.542 588.384 159.542 588.384 159.542C588.384 159.542 588.384 159.542 591.212 160.12C595.131 160.92 598.242 164.977 598.891 170.22C599.203 172.74 599.491 174.82 599.6 174.862Z" fill="#407BFF"/>
<g opacity="0.7">
<path d="M599.6 174.862C599.709 174.82 599.997 172.74 600.309 170.22C600.957 164.976 604.068 160.919 607.988 160.12C610.817 159.542 610.817 159.542 610.817 159.542C610.817 159.542 606.377 159.542 604.525 158.246C600.601 155.5 599.7 147.386 599.7 147.386C599.7 147.386 598.601 155.5 594.675 158.246C592.824 159.542 588.384 159.542 588.384 159.542C588.384 159.542 588.384 159.542 591.212 160.12C595.131 160.92 598.242 164.977 598.891 170.22C599.203 172.74 599.491 174.82 599.6 174.862Z" fill="white"/>
</g>
<path d="M510.908 196.176C511.077 196.111 511.525 192.884 512.008 188.976C513.014 180.841 517.84 174.546 523.921 173.304C528.31 172.408 528.31 172.408 528.31 172.408C528.31 172.408 521.421 172.408 518.548 170.398C512.46 166.135 511.062 153.548 511.062 153.548C511.062 153.548 509.355 166.136 503.266 170.398C500.395 172.408 493.504 172.408 493.504 172.408C493.504 172.408 493.504 172.408 497.894 173.304C503.976 174.546 508.801 180.84 509.806 188.976C510.291 192.884 510.739 196.111 510.908 196.176Z" fill="#407BFF"/>
<g opacity="0.7">
<path d="M510.908 196.176C511.077 196.111 511.525 192.884 512.008 188.976C513.014 180.841 517.84 174.546 523.921 173.304C528.31 172.408 528.31 172.408 528.31 172.408C528.31 172.408 521.421 172.408 518.548 170.398C512.46 166.135 511.062 153.548 511.062 153.548C511.062 153.548 509.355 166.136 503.266 170.398C500.395 172.408 493.504 172.408 493.504 172.408C493.504 172.408 493.504 172.408 497.894 173.304C503.976 174.546 508.801 180.84 509.806 188.976C510.291 192.884 510.739 196.111 510.908 196.176Z" fill="white"/>
</g>
<path d="M563.906 297.722C564.015 297.68 564.303 295.601 564.615 293.082C565.263 287.838 568.373 283.781 572.294 282.982C575.122 282.404 575.122 282.404 575.122 282.404C575.122 282.404 570.682 282.404 568.831 281.108C564.907 278.362 564.005 270.248 564.005 270.248C564.005 270.248 562.906 278.362 558.981 281.108C557.129 282.404 552.689 282.404 552.689 282.404C552.689 282.404 552.689 282.404 555.518 282.982C559.438 283.782 562.547 287.839 563.197 293.082C563.509 295.601 563.797 297.68 563.906 297.722Z" fill="#407BFF"/>
<g opacity="0.7">
<path d="M563.906 297.722C564.015 297.68 564.303 295.601 564.615 293.082C565.263 287.838 568.373 283.781 572.294 282.982C575.122 282.404 575.122 282.404 575.122 282.404C575.122 282.404 570.682 282.404 568.831 281.108C564.907 278.362 564.005 270.248 564.005 270.248C564.005 270.248 562.906 278.362 558.981 281.108C557.129 282.404 552.689 282.404 552.689 282.404C552.689 282.404 552.689 282.404 555.518 282.982C559.438 283.782 562.547 287.839 563.197 293.082C563.509 295.601 563.797 297.68 563.906 297.722Z" fill="white"/>
</g>
<path d="M461.581 515.293C463.551 515.621 465.14 514.337 465.132 512.425L465.104 506.863H537.655L537.677 511.238C537.686 513.15 539.291 514.966 541.26 515.294C543.23 515.622 544.819 514.338 544.811 512.426L543.459 236.572C543.45 234.66 541.845 232.844 539.876 232.517C537.906 232.189 536.316 233.473 536.325 235.385L536.347 239.794H463.796L463.781 236.572C463.771 234.66 462.167 232.844 460.197 232.517C458.227 232.189 456.637 233.473 456.647 235.385L457.998 511.238C458.007 513.15 459.612 514.966 461.581 515.293ZM537.372 448.954H464.821L464.592 402.283H537.143L537.372 448.954ZM464.079 297.702H536.63L536.858 344.372H464.307L464.079 297.702ZM536.887 349.993L537.115 396.662H464.564L464.336 349.993H536.887ZM536.375 245.412L536.603 292.081H464.052L463.824 245.412H536.375ZM465.077 501.242L464.847 454.573H537.398L537.627 501.242H465.077Z" fill="#263238"/>
<path d="M412.629 515.293C414.542 515.621 416.358 514.337 416.685 512.425L417.639 506.863H490.19L489.44 511.238C489.113 513.15 490.397 514.966 492.308 515.294C494.22 515.622 496.037 514.338 496.364 512.426L543.654 236.572C543.981 234.66 542.697 232.844 540.786 232.517C538.873 232.189 537.057 233.473 536.73 235.385L535.974 239.794H463.423L463.975 236.572C464.303 234.66 463.019 232.844 461.107 232.517C459.194 232.189 457.379 233.473 457.05 235.385L409.76 511.238C409.434 513.15 410.718 514.966 412.629 515.293ZM500.117 448.954H427.566L435.566 402.283H508.117L500.117 448.954ZM453.495 297.702H526.046L518.046 344.372H445.495L453.495 297.702ZM517.081 349.993L509.081 396.662H436.53L444.53 349.993H517.081ZM535.009 245.412L527.009 292.081H454.458L462.458 245.412H535.009ZM418.602 501.242L426.602 454.573H499.153L491.153 501.242H418.602Z" fill="#263238"/>
<path opacity="0.2" d="M412.629 515.293C414.542 515.621 416.358 514.337 416.685 512.425L417.639 506.863H490.19L489.44 511.238C489.113 513.15 490.397 514.966 492.308 515.294C494.22 515.622 496.037 514.338 496.364 512.426L543.654 236.572C543.981 234.66 542.697 232.844 540.786 232.517C538.873 232.189 537.057 233.473 536.73 235.385L535.974 239.794H463.423L463.975 236.572C464.303 234.66 463.019 232.844 461.107 232.517C459.194 232.189 457.379 233.473 457.05 235.385L409.76 511.238C409.434 513.15 410.718 514.966 412.629 515.293ZM500.117 448.954H427.566L435.566 402.283H508.117L500.117 448.954ZM453.495 297.702H526.046L518.046 344.372H445.495L453.495 297.702ZM517.081 349.993L509.081 396.662H436.53L444.53 349.993H517.081ZM535.009 245.412L527.009 292.081H454.458L462.458 245.412H535.009ZM418.602 501.242L426.602 454.573H499.153L491.153 501.242H418.602Z" fill="white"/>
<path d="M557.708 206.38H629.16V195.692H557.708V206.38Z" fill="#263238"/>
<path opacity="0.1" d="M557.708 203.282H629.16V198.79H557.708V203.282Z" fill="white"/>
<path d="M434.625 283.483C433.969 283.483 433.336 283.123 433.02 282.498C432.57 281.611 432.924 280.528 433.809 280.078L592.618 199.43C593.505 198.982 594.588 199.333 595.039 200.22C595.489 201.107 595.136 202.19 594.249 202.64L435.44 283.288C435.177 283.421 434.899 283.483 434.625 283.483Z" fill="#263238"/>
<path d="M447.003 235.367C447.003 235.367 434.03 248.911 437.592 255.952C441.153 262.991 449.252 272.743 449.252 272.743C449.252 272.743 448.94 276.41 452.374 277.097L459.388 271.376C459.388 271.376 454.59 270.256 451.165 270.256L445.311 251.363L454.36 238.898L447.003 235.367Z" fill="#DD8C6A"/>
<path d="M459.389 271.376L461.291 274.598C462.128 276.017 461.756 277.84 460.429 278.815L460.079 279.073C459.095 279.797 457.785 279.9 456.701 279.337L452.375 277.096L459.389 271.376Z" fill="#DD8C6A"/>
<path d="M416.302 410.168L410.824 425.363L419.258 428.628L425.837 414.617L416.302 410.168Z" fill="#DD8C6A"/>
<path d="M420.126 429.358C420.046 429.307 420.006 429.216 420.02 429.124C420.037 429.031 420.11 428.959 420.202 428.944C420.367 428.916 424.102 428.3 425.426 429.254C425.674 429.428 425.846 429.691 425.902 429.989C426.001 430.332 425.871 430.698 425.581 430.904C425.042 431.242 423.831 431.021 422.734 430.613C421.83 430.271 420.956 429.852 420.126 429.358ZM420.907 429.329C422.475 430.142 424.708 430.956 425.331 430.534C425.418 430.484 425.518 430.379 425.46 430.061C425.432 429.875 425.32 429.71 425.157 429.616C425.041 429.53 424.912 429.463 424.777 429.415C423.504 429.143 422.191 429.114 420.907 429.329Z" fill="#407BFF"/>
<path d="M420.019 429.305C419.971 429.24 419.961 429.153 419.995 429.08C420.048 428.973 421.169 426.679 422.637 426.173C423.062 426.02 423.53 426.047 423.935 426.248C424.489 426.519 424.561 426.878 424.494 427.125C424.313 428.189 421.478 429.315 420.249 429.391C420.217 429.395 420.185 429.385 420.159 429.366C420.107 429.365 420.056 429.342 420.019 429.305ZM423.648 426.593C423.384 426.492 423.092 426.489 422.827 426.587C421.885 427.103 421.124 427.896 420.648 428.858C421.983 428.617 423.931 427.637 424.1 427.017C424.105 426.957 424.136 426.797 423.771 426.625L423.648 426.593Z" fill="#407BFF"/>
<path d="M419.683 427.785L410.041 424.203C409.677 424.068 409.269 424.203 409.058 424.529L404.401 431.725C403.983 432.36 404.16 433.214 404.794 433.632C404.876 433.686 404.962 433.73 405.054 433.765C408.552 434.996 411.712 435.954 416.038 437.567C421.144 439.465 419.622 439.595 425.594 441.911C429.193 443.303 431.383 439.436 429.925 438.665C423.234 435.174 423.291 432.783 421.518 429.264C421.107 428.564 420.454 428.037 419.683 427.785Z" fill="#263238"/>
<path opacity="0.2" d="M413.677 417.454L422.521 421.68L425.838 414.617L416.302 410.168L413.677 417.454Z" fill="#263238"/>
<path d="M466.738 424.711L468.199 440.798L477.221 440.191L477.26 424.711H466.738Z" fill="#DD8C6A"/>
<path d="M478.777 439.922C478.685 439.906 478.611 439.837 478.59 439.746C478.569 439.654 478.609 439.56 478.689 439.51C478.831 439.421 482.049 437.428 483.637 437.803C483.933 437.869 484.191 438.047 484.358 438.3C484.579 438.58 484.601 438.968 484.41 439.27C484.04 439.787 482.838 440.044 481.667 440.086C480.701 440.116 479.733 440.06 478.777 439.922ZM479.487 439.597C481.248 439.752 483.623 439.651 484.037 439.024C484.098 438.946 484.151 438.809 483.975 438.538C483.878 438.376 483.714 438.266 483.527 438.241C483.386 438.208 483.242 438.193 483.098 438.202C481.818 438.434 480.593 438.907 479.487 439.597Z" fill="#407BFF"/>
<path d="M478.658 439.913C478.588 439.871 478.547 439.795 478.551 439.715C478.559 439.596 478.72 437.047 479.884 436.019C480.219 435.715 480.662 435.562 481.112 435.594C481.729 435.634 481.931 435.937 481.964 436.192C482.203 437.244 480.013 439.367 478.905 439.906C478.876 439.921 478.844 439.925 478.813 439.918C478.761 439.936 478.706 439.933 478.658 439.913ZM480.977 436.021C480.695 436.028 480.424 436.138 480.217 436.33C479.543 437.166 479.143 438.19 479.069 439.261C480.212 438.529 481.639 436.879 481.558 436.242C481.539 436.186 481.508 436.025 481.105 436.006L480.977 436.021Z" fill="#407BFF"/>
<path d="M477.768 438.637L467.488 439.004C467.101 439.018 466.774 439.298 466.704 439.68L465.145 448.109C465.001 448.855 465.49 449.578 466.237 449.72C466.333 449.738 466.43 449.747 466.527 449.746C470.23 449.549 473.518 449.228 478.131 449.069C483.576 448.876 482.217 449.576 488.62 449.438C492.478 449.352 493.028 444.943 491.385 444.786C483.867 444.112 483.009 441.88 480.027 439.304C479.382 438.814 478.578 438.576 477.768 438.637Z" fill="#263238"/>
<path opacity="0.2" d="M477.26 424.711H466.738L467.501 433.115L477.239 432.84L477.26 424.711Z" fill="#263238"/>
<path d="M458.999 275.683C458.999 275.683 442.86 286.307 445.499 317.569L442.814 352.972C442.814 352.972 426.806 363.704 414.059 413.178C414.059 413.178 418.332 416.921 425.288 418.642L463.785 359.759L478.033 298.448L479.7 278.038L458.999 275.683Z" fill="#407BFF"/>
<path opacity="0.1" d="M458.999 275.683C458.999 275.683 442.86 286.307 445.499 317.569L442.814 352.972C442.814 352.972 426.806 363.704 414.059 413.178C414.059 413.178 418.332 416.921 425.288 418.642L463.785 359.759L478.033 298.448L479.7 278.038L458.999 275.683Z" fill="black"/>
<path opacity="0.2" d="M470.9 329.147L465.088 306.642L455.838 302.089C455.838 302.089 455.826 345.978 459.988 365.568L463.785 359.758L470.9 329.147Z" fill="black"/>
<path d="M457.686 222.716C457.686 222.716 452.624 221.759 448.418 226.52C444.212 231.282 439.815 239.846 439.815 239.846C439.815 239.846 445.248 246.622 451.435 245.761L457.686 222.716Z" fill="#407BFF"/>
<path opacity="0.1" d="M457.686 222.716C457.686 222.716 452.624 221.759 448.418 226.52C444.212 231.282 439.815 239.846 439.815 239.846C439.815 239.846 445.248 246.622 451.435 245.761L457.686 222.716Z" fill="black"/>
<path opacity="0.1" d="M451.435 245.761L456.408 227.429L451.429 228.044C451.429 228.044 448.824 244.488 451.435 245.761Z" fill="black"/>
<path d="M462.836 275.683C462.836 275.683 449.52 290.252 457.665 318.784L463.383 354.599C463.383 354.599 456.097 388.714 465.049 429.265C465.049 429.265 471.999 430.377 478.63 428.961L486.95 352.609L491.116 279.63L462.836 275.683Z" fill="#407BFF"/>
<path d="M481.471 194.395C481.857 194.327 482.263 194.731 482.38 195.314C482.499 195.898 482.292 196.441 481.905 196.511C481.52 196.58 481.114 196.175 480.996 195.592C480.848 194.989 481.084 194.465 481.471 194.395Z" fill="#263238"/>
<path d="M482.232 202.129C483.244 202.182 484.23 201.784 484.921 201.042C483.457 199.742 482.175 198.248 481.113 196.602L482.232 202.129Z" fill="#932A2A"/>
<path d="M478.444 192.715C479.02 192.026 479.893 191.658 480.788 191.726C480.825 191.74 480.864 191.746 480.903 191.746C481.1 191.747 481.261 191.588 481.261 191.392C481.262 191.195 481.102 191.035 480.907 191.034C479.788 190.916 478.683 191.347 477.94 192.191C477.884 192.254 477.852 192.335 477.849 192.42C477.844 192.617 478 192.78 478.197 192.784C478.286 192.793 478.374 192.769 478.444 192.715Z" fill="#263238"/>
<path d="M476.021 212.572C474.963 216.784 474.923 222.016 479.522 223.45C479.522 223.45 485.267 228.265 474.201 228.265C464.144 228.265 462.661 222.778 462.661 222.778C466.448 219.158 465.806 211.663 464.747 206.244L476.021 212.572Z" fill="#DD8C6A"/>
<path d="M458.549 221.844C458.549 221.844 460.378 217.026 462.848 215.597C465.317 214.168 475.745 216.293 477.359 217.019C478.975 217.744 480.447 221.621 480.447 221.621L458.549 221.844Z" fill="#407BFF"/>
<path opacity="0.4" d="M458.549 221.844C458.549 221.844 460.378 217.026 462.848 215.597C465.317 214.168 475.745 216.293 477.359 217.019C478.975 217.744 480.447 221.621 480.447 221.621L458.549 221.844Z" fill="black"/>
<path d="M450.447 230.05C453.851 250.398 452.873 270.468 451.971 280.896C451.819 282.599 451.679 284.046 451.552 285.19C451.45 286.104 451.375 286.828 451.311 287.348L490.879 287.119C490.967 286.471 491.044 285.823 491.12 285.188C491.297 283.715 491.475 282.293 491.641 280.895C494.956 252.43 494.511 237.479 493.025 230.023C492.175 225.755 488.758 222.452 484.465 221.729C484.007 221.653 482.47 221.551 480.387 221.449C479.257 221.399 477.949 221.335 476.564 221.297C472.295 221.131 467.278 221.042 463.937 221.144C463.353 221.158 462.819 221.183 462.35 221.22C461.117 221.297 459.886 221.411 458.666 221.55C457.967 221.614 457.281 221.702 456.583 221.791C452.569 222.301 449.787 226.049 450.447 230.05Z" fill="#407BFF"/>
<path d="M460.89 196.135C460.915 196.872 461.042 197.596 461.233 198.32C462.618 203.528 463.405 207.199 465.45 209.956C466.186 210.959 467.088 211.836 468.256 212.623C474.849 217.056 483.093 211.963 483.308 204.443C483.537 197.672 480.386 187.206 472.778 185.771C467.342 184.729 462.082 188.286 461.041 193.722C460.89 194.522 460.838 195.335 460.89 196.135Z" fill="#DD8C6A"/>
<g opacity="0.2">
<path d="M460.89 196.135C460.915 196.872 461.042 197.596 461.233 198.32C462.618 203.528 463.405 207.199 465.45 209.956L473.198 210.044L476.818 201.013L477.796 192.287C477.796 192.287 467.228 195.64 460.89 196.135Z" fill="black"/>
</g>
<path d="M460.889 199.348C459.657 197.813 456.647 192.802 456.811 190.841C459.245 187.868 462.304 185.244 465.922 183.949C469.898 182.526 474.059 182.34 478.198 183.18C479.195 184.675 479.847 186.508 480.317 188.244C480.787 189.98 480.664 191.966 479.578 193.399C476.067 198.028 462.122 200.882 460.889 199.348Z" fill="#263238"/>
<path d="M477.188 195.197C479.294 195.84 480.362 198.965 480.431 200.942C480.51 203.128 479.037 204.492 477.148 203.009C475.726 201.866 474.719 200.29 474.28 198.52C473.787 196.374 475.082 194.554 477.188 195.197Z" fill="#DD8C6A"/>
<path opacity="0.1" d="M456.862 190.788C457.231 190.902 457.599 190.991 457.98 191.054C459.733 191.346 461.587 191.372 463.353 191.257C463.708 191.956 464.065 192.654 464.42 193.366V191.257C464.763 191.753 465.246 192.565 465.589 193.061C465.538 192.464 465.639 191.765 465.589 191.155C469.425 190.66 473.096 188.97 475.966 186.366C476.715 185.68 477.415 184.918 477.82 183.978C477.934 183.712 478.023 183.432 478.062 183.152C473.971 182.339 469.843 182.543 465.919 183.953C462.325 185.237 459.289 187.841 456.862 190.788Z" fill="white"/>
<path opacity="0.2" d="M494.072 239.64C494.072 237.169 493.838 234.918 493.23 232.89L487.499 229.984L483.966 235.199C483.966 235.199 489.536 246.582 494.137 251.236C494.7 246.62 494.072 242.434 494.072 239.64Z" fill="black"/>
<path d="M490.604 228.264C490.604 228.264 508.668 240.086 507.505 240.032L531.297 231.29C531.297 231.29 532.596 227.026 532.932 226.571L535.17 224.635C535.638 224.002 536.406 223.662 537.189 223.742L538.872 224.321C539.866 225.12 540.651 225.12 540.636 225.646L538.32 228.026L534.326 233.123C534.326 233.123 514.45 245.36 509.325 248.74C504.2 252.119 490.79 240.143 490.79 240.143L490.604 228.264Z" fill="#DD8C6A"/>
<path d="M485.837 224.146C491.085 224.914 496.447 229.086 504.771 236.453C504.771 236.453 502.039 242.75 495.969 246.62C495.969 246.62 491.113 244.495 485.332 237.14C478.34 228.242 482.62 223.675 485.837 224.146Z" fill="#407BFF"/>
<path opacity="0.2" d="M473.273 285.19H491.12C491.297 283.716 491.475 282.294 491.641 280.896H474.099L473.273 285.19Z" fill="black"/>
<path opacity="0.2" d="M451.554 285.19H453.344L453.701 280.896H451.973C451.82 282.599 451.68 284.047 451.554 285.19Z" fill="black"/>
</svg>
