<svg width="457" height="279" viewBox="0 0 457 279" fill="none" xmlns="http://www.w3.org/2000/svg">
<path fill-rule="evenodd" clip-rule="evenodd" d="M444.166 0C410.313 0 379.316 12.1158 355.085 32.2447C348.133 30.9971 340.834 30.2833 333.528 30.2833C286.138 30.2833 245.16 56.6502 223.958 95.493C215.224 92.8178 205.964 91.3965 196.343 91.3965C155.719 91.3965 121.333 116.876 108.149 152.863C82.6699 153.931 60.9332 170.323 52.0263 192.947C49.3575 192.414 46.5022 192.054 43.4732 192.054C19.4215 192.054 0 211.475 0 235.527C0 259.578 19.4215 279 43.4732 279C176.562 279 305.913 279 444.166 279C521.311 279 583.672 216.639 583.672 139.494C583.672 62.5409 521.311 0 444.166 0Z" fill="#1C7BFA" fill-opacity="0.25"/>
<path fill-rule="evenodd" clip-rule="evenodd" d="M208.812 0H49.3564C41.6972 0 35.2789 6.41157 35.2789 14.2509C35.2789 21.9101 41.6907 28.3283 49.3564 28.3283H208.812C216.651 28.3283 223.062 21.9166 223.062 14.2509C223.062 6.418 216.651 0 208.812 0Z" fill="#1C7BFA" fill-opacity="0.25"/>
<path fill-rule="evenodd" clip-rule="evenodd" d="M167.655 55.9487H106.902C99.0623 55.9487 92.8243 62.1867 92.8243 70.026C92.8243 77.8654 99.0623 84.277 106.902 84.277H167.655C175.314 84.277 181.732 77.8654 181.732 70.026C181.732 62.1803 175.314 55.9487 167.655 55.9487Z" fill="#1C7BFA" fill-opacity="0.25"/>
<path fill-rule="evenodd" clip-rule="evenodd" d="M75.3634 114.027H50.5979C45.7876 114.027 41.8647 117.95 41.8647 122.58C41.8647 127.39 45.7812 131.307 50.5979 131.307H75.3634C80.1737 131.307 84.0903 127.39 84.0903 122.58C84.0968 117.95 80.1737 114.027 75.3634 114.027Z" fill="#1C7BFA" fill-opacity="0.25"/>
</svg>
