<svg width="659" height="277" viewBox="0 0 659 277" fill="none" xmlns="http://www.w3.org/2000/svg">
<path fill-rule="evenodd" clip-rule="evenodd" d="M113.511 29.9195C151.146 29.9195 185.642 42.8932 212.403 64.2265C235.609 25.9398 279.515 0 329.904 0C404.337 0 464.756 56.4861 464.756 126.157C464.756 131.594 464.341 136.616 463.707 141.85C494.445 145.195 520.579 162.564 535.627 187.038C542.321 184.947 549.219 183.897 556.539 183.897C596.053 183.897 628.043 215.908 628.043 255.449C628.043 294.989 596.053 327 556.539 327C407.673 327 263.411 327 113.503 327C28.2031 327 -41 260.47 -41 178.46C-40.9925 96.4493 28.2106 29.9195 113.511 29.9195Z" fill="#1C7BFA" fill-opacity="0.25"/>
<path fill-rule="evenodd" clip-rule="evenodd" d="M492.573 67.3679H602.34C608.611 67.3679 613.841 72.6012 613.841 79.0805C613.841 85.3559 608.611 90.5892 602.34 90.5892H492.573C486.091 90.5892 481.072 85.3559 481.072 79.0805C481.072 72.6012 486.091 67.3679 492.573 67.3679Z" fill="#1C7BFA" fill-opacity="0.25"/>
<path fill-rule="evenodd" clip-rule="evenodd" d="M592.929 129.299H644.571C652.517 129.299 659 135.786 659 143.526C659 151.478 652.517 157.965 644.571 157.965H592.929C585.194 157.965 578.711 151.478 578.711 143.526C578.711 135.786 585.194 129.299 592.929 129.299Z" fill="#1C7BFA" fill-opacity="0.25"/>
<path fill-rule="evenodd" clip-rule="evenodd" d="M457.028 5.65625H495.705C501.765 5.65625 506.783 10.6781 506.783 16.742C506.783 22.806 501.765 27.8278 495.705 27.8278H457.028C450.961 27.8278 445.95 22.806 445.95 16.742C445.95 10.6705 450.961 5.65625 457.028 5.65625Z" fill="#1C7BFA" fill-opacity="0.25"/>
</svg>
