<svg width="94" height="45" viewBox="0 0 94 45" fill="none" xmlns="http://www.w3.org/2000/svg">
<path fill-rule="evenodd" clip-rule="evenodd" d="M10.5529 24.0902H12.8589C13.3201 17.6504 18.9623 12.584 25.853 12.584C26.5581 12.584 27.2366 12.6375 27.8878 12.7454C30.5189 5.3349 38.0069 0 46.8502 0C53.7409 0 59.8178 3.26027 63.3988 8.21877C64.6463 7.92212 65.9212 7.78789 67.251 7.78789C76.149 7.78789 83.3384 14.4164 83.3384 22.5817C83.3384 23.0933 83.311 23.5786 83.2571 24.0902H83.4745C89.2528 24.0902 94 28.7793 94 34.5451C94 40.2846 89.2528 45 83.4745 45H10.5529C4.74718 45 0 40.2846 0 34.5451C0 28.7793 4.74718 24.0902 10.5529 24.0902Z" fill="#F2F2F2"/>
<path fill-rule="evenodd" clip-rule="evenodd" d="M46.4999 14.8334C52.9432 14.8334 58.1666 20.0567 58.1666 26.5C58.1666 32.9434 52.9432 38.1667 46.4999 38.1667C40.0566 38.1667 34.8333 32.9434 34.8333 26.5C34.8333 20.0567 40.0566 14.8334 46.4999 14.8334ZM46.4999 17.75C41.6674 17.75 37.7499 21.6675 37.7499 26.5C37.7499 31.3325 41.6674 35.25 46.4999 35.25C51.3324 35.25 55.2499 31.3325 55.2499 26.5C55.2499 21.6675 51.3324 17.75 46.4999 17.75ZM47.9583 20.6667L47.9582 25.0417H52.3333V27.9584L47.9582 27.9583L47.9583 32.3334H45.0416V27.9583L40.6666 27.9584V25.0417H45.0416V20.6667H47.9583Z" fill="#505050"/>
</svg>
