<svg width="30" height="30" viewBox="0 0 30 30" fill="none" xmlns="http://www.w3.org/2000/svg">
<path fill-rule="evenodd" clip-rule="evenodd" d="M17.5 10C18.8807 10 20 11.1193 20 12.5V17.5C20 18.8807 18.8807 20 17.5 20H12.5C11.1193 20 10 18.8807 10 17.5V12.5C10 11.1193 11.1193 10 12.5 10H17.5ZM16.25 12.5C16.9404 12.5 17.5 13.0596 17.5 13.75V16.25C17.5 16.9404 16.9404 17.5 16.25 17.5H13.75C13.0596 17.5 12.5 16.9404 12.5 16.25V13.75C12.5 13.0596 13.0596 12.5 13.75 12.5H16.25Z" fill="#FFFFFF"/>
<path fill-rule="evenodd" clip-rule="evenodd" d="M13.75 2.5C13.75 1.80965 14.3096 1.25 15 1.25C15.6904 1.25 16.25 1.80965 16.25 2.5V5H18.75V2.5C18.75 1.80965 19.3096 1.25 20 1.25C20.6904 1.25 21.25 1.80965 21.25 2.5V5C23.3211 5 25 6.67894 25 8.75H27.5C28.1904 8.75 28.75 9.30964 28.75 10C28.75 10.6904 28.1904 11.25 27.5 11.25H25V13.75H27.5C28.1904 13.75 28.75 14.3096 28.75 15C28.75 15.6904 28.1904 16.25 27.5 16.25H25V18.75H27.5C28.1904 18.75 28.75 19.3096 28.75 20C28.75 20.6904 28.1904 21.25 27.5 21.25H25C25 23.3211 23.3211 25 21.25 25V27.5C21.25 28.1904 20.6904 28.75 20 28.75C19.3096 28.75 18.75 28.1904 18.75 27.5V25H16.25V27.5C16.25 28.1904 15.6904 28.75 15 28.75C14.3096 28.75 13.75 28.1904 13.75 27.5V25H11.25V27.5C11.25 28.1904 10.6904 28.75 10 28.75C9.30964 28.75 8.75 28.1904 8.75 27.5V25C6.67894 25 5 23.3211 5 21.25H2.5C1.80965 21.25 1.25 20.6904 1.25 20C1.25 19.3096 1.80965 18.75 2.5 18.75H5V16.25H2.5C1.80965 16.25 1.25 15.6904 1.25 15C1.25 14.3096 1.80965 13.75 2.5 13.75H5V11.25H2.5C1.80965 11.25 1.25 10.6904 1.25 10C1.25 9.30964 1.80965 8.75 2.5 8.75H5C5 6.67894 6.67894 5 8.75 5V2.5C8.75 1.80965 9.30964 1.25 10 1.25C10.6904 1.25 11.25 1.80965 11.25 2.5V5H13.75V2.5ZM21.25 7.5C21.9404 7.5 22.5 8.05965 22.5 8.75V21.25C22.5 21.9404 21.9404 22.5 21.25 22.5H8.75C8.05964 22.5 7.5 21.9404 7.5 21.25V8.75C7.5 8.05964 8.05965 7.5 8.75 7.5H21.25Z" fill="#FFFFFF"/>
</svg>
