<svg width="24" height="30" viewBox="0 0 24 30" fill="white" xmlns="http://www.w3.org/2000/svg">
<path d="M14.3424 15.848C13.8466 15.8561 14.4369 16.105 15.0836 16.2047C15.2612 16.0653 15.4219 15.9226 15.5681 15.7872C15.1644 15.8837 14.755 15.8853 14.3424 15.848ZM16.9996 15.1824C17.2935 14.7771 17.5091 14.3271 17.5834 13.8658C17.5172 14.1941 17.3388 14.4779 17.1716 14.7803C16.2463 15.3648 17.0844 14.4317 17.1716 14.079C16.1769 15.3332 17.0352 14.8306 16.9996 15.1824ZM17.9807 12.6213C18.0396 11.7255 17.8038 12.0084 17.7247 12.3489C17.8184 12.3992 17.8894 12.9821 17.9807 12.6213ZM12.4659 0.387526C12.73 0.434548 13.036 0.471841 12.9932 0.535888C13.2814 0.471841 13.3477 0.413469 12.4659 0.387526ZM12.994 0.535077L12.8067 0.573181L12.9803 0.559399L12.994 0.535077ZM21.2305 12.9602C21.2612 13.7636 20.9964 14.1536 20.7582 14.8427L20.3311 15.0584C19.9798 15.7402 20.3642 15.4921 20.1147 16.0329C19.5664 16.5217 18.4554 17.5595 18.0993 17.6576C17.8402 17.6503 18.2754 17.3479 18.3327 17.2311C17.6012 17.7338 17.7449 17.9883 16.6266 18.2956L16.5935 18.2226C13.8329 19.5255 10.0001 16.9449 10.0509 13.4167C10.0211 13.6396 9.96697 13.5861 9.90561 13.6761C9.76431 11.8625 10.7397 10.0392 12.3868 9.29575C13.9976 8.49557 15.887 8.82553 17.04 9.90379C16.4062 9.07037 15.1442 8.18587 13.6496 8.26857C12.185 8.29208 10.8156 9.22684 10.3578 10.2419C9.60767 10.7161 9.51966 12.0709 9.19427 12.3197C8.75422 15.5651 10.0211 16.9676 12.1656 18.6174C12.5023 18.8461 12.2609 18.8817 12.3069 19.056C11.5939 18.722 10.9423 18.2153 10.4062 17.5959C10.6912 18.0151 10.9981 18.4204 11.3937 18.7391C10.7227 18.5129 9.82567 17.1071 9.56326 17.0495C10.7219 19.1306 14.2609 20.6994 16.1139 19.9203C15.2564 19.9527 14.1664 19.9373 13.2039 19.5798C12.7994 19.3714 12.2488 18.9385 12.3464 18.8558C14.8761 19.8052 17.4889 19.5749 19.6762 17.8132C20.2326 17.3778 20.8414 16.6385 21.0182 16.6263C20.7542 17.026 21.0642 16.8201 20.8591 17.1727C21.4146 16.2736 20.6177 16.8087 21.4332 15.6218L21.7344 16.0369C21.6221 15.2935 22.6573 14.3887 22.5515 13.2083C22.7864 12.8475 22.8147 13.5958 22.5636 14.426C22.914 13.505 22.6548 13.3583 22.7445 12.5986C22.8422 12.854 22.9697 13.124 23.0343 13.394C22.8074 12.5046 23.2677 11.8957 23.3839 11.3793C23.2693 11.3282 23.0327 11.7725 22.9778 10.721C22.9859 10.2654 23.1038 10.4818 23.1506 10.3683C23.061 10.3165 22.8276 9.96622 22.6847 9.29575C22.7873 9.13928 22.9608 9.70598 23.1013 9.72787C23.0109 9.19684 22.8559 8.78824 22.8486 8.37801C22.4368 7.51784 22.7025 8.49395 22.3706 8.0067C21.9322 6.63901 22.7332 7.69052 22.7856 7.06951C23.4477 8.03265 23.8264 9.52519 24 10.1438C23.8676 9.38979 23.6544 8.65852 23.3928 7.95157C23.5939 8.03913 23.069 6.40228 23.6544 7.48541C23.0311 5.17647 20.9786 3.01751 19.0925 2.00492C19.3234 2.21733 19.6141 2.48406 19.5099 2.5254C18.5709 1.966 18.7356 1.92141 18.6024 1.68144C17.8385 1.37093 17.7869 1.709 17.2814 1.68144C15.8394 0.916928 15.5624 0.996379 14.2358 0.516431L14.2988 0.799373C13.3428 0.479948 13.1854 0.917738 12.1535 0.800994C12.0905 0.75073 12.4845 0.623446 12.8083 0.575613C11.8854 0.697222 11.9282 0.390768 11.0255 0.609664C11.2492 0.449951 11.4825 0.348611 11.7207 0.215652C10.9682 0.263485 9.92337 0.655064 10.2471 0.299157C9.01905 0.847206 6.83982 1.62064 5.61657 2.77267L5.57862 2.51162C5.01827 3.18857 3.13374 4.53194 2.98275 5.4059L2.83338 5.44076C2.5419 5.93774 2.35296 6.49876 2.12204 7.00951C1.73932 7.66295 1.5633 7.26165 1.61659 7.36299C0.866494 8.88958 0.494272 10.1738 0.171302 11.2285C0.40061 11.5723 0.176954 13.3023 0.262541 14.6854C-0.114526 21.519 5.03926 28.1507 10.671 29.6838C11.497 29.9797 12.7235 29.9708 13.7683 30C12.537 29.6449 12.3779 29.8119 11.1773 29.3928C10.3101 28.9825 10.1212 28.5156 9.50916 27.9821L9.75139 28.4118C8.54833 27.9853 9.05135 27.8832 8.07356 27.5735L8.33274 27.2298C7.94357 27.2038 7.30005 26.5723 7.12403 26.2236L6.69771 26.2407C6.1858 25.6059 5.91289 25.1478 5.93227 24.7935L5.79501 25.0408C5.63837 24.7716 3.90968 22.6597 4.80672 23.1518C4.63959 22.9994 4.41835 22.9029 4.17774 22.4627L4.36103 22.2535C3.92905 21.6974 3.56733 20.9823 3.59478 20.7456C3.82409 21.0569 3.98396 21.1137 4.14302 21.1688C3.05219 18.4537 2.99163 21.0172 2.16645 18.405L2.34085 18.3896C2.20682 18.1902 2.12688 17.9672 2.01869 17.7532L2.09459 16.9928C1.30977 16.0807 1.87497 13.1167 1.98801 11.4936C2.06633 10.8321 2.64283 10.1284 3.08126 9.02497L2.81319 8.98038C3.32349 8.08534 5.72961 5.38644 6.84224 5.5267C7.38241 4.84488 6.73566 5.52508 6.62989 5.35239C7.81599 4.1201 8.18822 4.48249 8.98757 4.25873C9.84989 3.74554 8.24716 4.46222 8.65652 4.06497C10.1486 3.68149 9.71425 3.19506 11.6585 3.00211C11.8636 3.11966 11.1821 3.1829 11.0126 3.3345C12.2544 2.72403 14.9447 2.86104 16.692 3.67258C18.7194 4.62355 20.9956 7.43595 21.0868 10.0805L21.1886 10.1089C21.1377 11.1612 21.3484 12.3773 20.981 13.4937L21.2305 12.9602ZM8.93993 16.5298L8.87049 16.8793C9.19588 17.3227 9.45506 17.8051 9.86927 18.1497C9.57053 17.5635 9.34768 17.3203 8.93993 16.5298ZM9.70779 16.5006C9.53581 16.3085 9.43326 16.0807 9.32022 15.8504C9.42923 16.2518 9.65207 16.5979 9.86039 16.9506L9.70779 16.5006ZM23.3161 13.5293L23.2451 13.7126C23.111 14.6644 22.8228 15.6032 22.3827 16.4788C22.8696 15.557 23.1845 14.55 23.3161 13.5293ZM12.5636 0.149984C12.8979 0.0251324 13.3864 0.081883 13.7417 0C13.279 0.0389147 12.818 0.0640472 12.3642 0.122419L12.5636 0.149984ZM0.813204 6.42336C0.88991 7.13842 0.274652 7.41974 0.948044 6.94547C1.31058 6.13069 0.807552 6.71765 0.813204 6.42336ZM0.022736 9.74165C0.176954 9.2617 0.205214 8.97714 0.264963 8.69987C-0.163779 9.25035 0.0679517 9.36629 0.022736 9.74165Z" fill="white"/>
</svg>
