<svg width="782" height="500" viewBox="0 0 782 500" fill="none" xmlns="http://www.w3.org/2000/svg">
<path fill-rule="evenodd" clip-rule="evenodd" d="M747.845 345.376C746.056 345.265 744.253 345.207 742.431 345.207C740.453 345.207 738.657 345.207 736.686 345.389C738.839 339.28 740.096 332.633 740.096 325.805C740.096 292.57 712.61 265.62 678.839 265.62C676.142 265.62 673.808 265.619 671.292 265.976C671.473 263.103 671.648 260.224 671.648 257.351C671.648 205.791 629.073 163.75 576.615 163.75C562.784 163.75 549.666 166.805 537.813 172.012C521.284 144.342 490.205 125.659 454.457 125.659C447.629 125.659 440.983 126.379 434.518 127.637C421.044 96.7369 388.532 75 350.625 75C304.664 75 266.666 106.957 260.675 148.433C242.862 128.395 216.964 115.698 188.044 115.698C134.328 115.698 90.7799 159.25 90.7799 212.97C90.7799 217.477 91.1949 221.873 91.785 226.218C40.6305 229.071 0 271.339 0 323.211C0 375.562 43.6976 420.203 96.0712 420.741C164.668 421.448 233.428 420.482 302.077 420.482C379.972 420.482 457.875 420.482 535.777 420.482C594.537 420.482 653.298 420.482 712.052 420.482C722.809 420.482 733.56 420.482 744.318 420.482C792.191 420.482 795.628 348.378 747.845 345.376Z" fill="#F2F2F2"/>
<g clip-path="url(#clip0_197_2)">
<path d="M732.758 382.398H157V382.648H732.758V382.398Z" fill="#E6E6E6"/>
<path d="M300.739 397.528H262.599V397.778H300.739V397.528Z" fill="#E6E6E6"/>
<path d="M250.528 397.528H228.427V397.778H250.528V397.528Z" fill="#E6E6E6"/>
<path d="M399.456 401.208H377.356V401.458H399.456V401.208Z" fill="#E6E6E6"/>
<path d="M514.679 406.791H464.941V407.041H514.679V406.791Z" fill="#E6E6E6"/>
<path d="M454.69 406.791H447.397V407.041H454.69V406.791Z" fill="#E6E6E6"/>
<path d="M679.031 401.208H571.162V401.458H679.031V401.208Z" fill="#E6E6E6"/>
<path d="M429.925 337.8H207.569C203.945 337.8 200.996 335.239 200.996 332.092V60.66C200.996 57.513 203.945 54.952 207.569 54.952H429.925C433.548 54.952 436.497 57.513 436.497 60.66V332.092C436.497 335.239 433.548 337.8 429.925 337.8ZM207.569 55.203C204.103 55.203 201.284 57.651 201.284 60.661V332.093C201.284 335.103 204.103 337.551 207.569 337.551H429.925C433.39 337.551 436.209 335.103 436.209 332.093V60.66C436.209 57.651 433.39 55.202 429.925 55.202L207.569 55.203Z" fill="#E6E6E6"/>
<path d="M678.993 337.8H456.638C453.015 337.8 450.066 335.239 450.066 332.092V60.66C450.066 57.513 453.015 54.952 456.638 54.952H678.993C682.618 54.952 685.566 57.513 685.566 60.66V332.092C685.567 335.239 682.618 337.8 678.993 337.8ZM456.638 55.203C453.173 55.203 450.354 57.651 450.354 60.661V332.093C450.354 335.103 453.173 337.551 456.638 337.551H678.993C682.459 337.551 685.278 335.103 685.278 332.093V60.66C685.278 57.651 682.459 55.202 678.993 55.202L456.638 55.203Z" fill="#E6E6E6"/>
<path d="M464.914 296.977H439.593V384.211H464.914V296.977Z" fill="#E0E0E0"/>
<path d="M460.105 384.212H464.914V372.332H455.063L460.105 384.212Z" fill="#FAFAFA"/>
<path d="M353.96 296.977H328.639V384.211H353.96V296.977Z" fill="#E0E0E0"/>
<path d="M464.915 296.977H349.763V376.922H464.915V296.977Z" fill="#FAFAFA"/>
<path d="M460.739 300.907V322.058H353.938V300.907H460.739ZM461.183 300.521H353.492V322.445H461.183V300.521Z" fill="#E0E0E0"/>
<path d="M354.571 384.212H349.763V372.332H359.614L354.571 384.212Z" fill="#FAFAFA"/>
<path d="M404.791 311.482C404.791 312.703 405.931 313.694 407.338 313.694C408.744 313.694 409.885 312.704 409.885 311.482C409.885 310.261 408.745 309.27 407.338 309.27C405.932 309.271 404.791 310.261 404.791 311.482Z" fill="#E6E6E6"/>
<path d="M460.739 326.374V347.525H353.938V326.374H460.739ZM461.183 325.988H353.492V347.912H461.183V325.988Z" fill="#E0E0E0"/>
<path d="M404.791 336.949C404.791 338.17 405.931 339.161 407.338 339.161C408.744 339.161 409.885 338.171 409.885 336.949C409.885 335.727 408.745 334.737 407.338 334.737C405.932 334.738 404.791 335.728 404.791 336.949Z" fill="#E6E6E6"/>
<path d="M460.739 351.841V372.992H353.938V351.841H460.739ZM461.183 351.455H353.492V373.379H461.183V351.455Z" fill="#E0E0E0"/>
<path d="M404.791 362.417C404.791 363.638 405.931 364.629 407.338 364.629C408.744 364.629 409.885 363.639 409.885 362.417C409.885 361.195 408.745 360.205 407.338 360.205C405.932 360.205 404.791 361.195 404.791 362.417Z" fill="#E6E6E6"/>
<path d="M338.49 246.316H313.169V384.212H338.49V246.316Z" fill="#E0E0E0"/>
<path d="M333.682 384.212H338.49V372.332H328.639L333.682 384.212Z" fill="#FAFAFA"/>
<path d="M243.855 246.316H218.535V384.212H243.855V246.316Z" fill="#E0E0E0"/>
<path d="M338.49 246.316H239.659V376.922H338.49V246.316Z" fill="#FAFAFA"/>
<path d="M334.235 250.014V279.584H243.914V250.014H334.235ZM334.759 249.559H243.39V280.04H334.759V249.559Z" fill="#E0E0E0"/>
<path d="M334.235 283.178V361.614H291.214V283.178H334.235ZM334.759 282.723H290.688V362.071H334.759V282.723Z" fill="#E0E0E0"/>
<path d="M286.936 283.178V361.614H243.914V283.178H286.936ZM287.461 282.723H243.39V362.071H287.461V282.723Z" fill="#E0E0E0"/>
<path d="M244.468 384.212H239.659V372.332H249.51L244.468 384.212Z" fill="#FAFAFA"/>
<path d="M286.528 264.799C286.528 266.021 287.668 267.011 289.075 267.011C290.481 267.011 291.623 266.021 291.623 264.799C291.623 263.578 290.483 262.587 289.075 262.587C287.668 262.588 286.528 263.578 286.528 264.799Z" fill="#E6E6E6"/>
<path d="M295.646 320.526C295.646 321.747 296.786 322.738 298.193 322.738C299.6 322.738 300.74 321.748 300.74 320.526C300.74 319.305 299.6 318.314 298.193 318.314C296.786 318.314 295.646 319.304 295.646 320.526Z" fill="#E6E6E6"/>
<path d="M277.409 320.526C277.409 321.747 278.549 322.738 279.956 322.738C281.362 322.738 282.503 321.748 282.503 320.526C282.503 319.305 281.363 318.314 279.956 318.314C278.55 318.314 277.409 319.304 277.409 320.526Z" fill="#E6E6E6"/>
<path d="M274.541 207.869H263.86C263.86 207.869 265.714 216.444 265.714 221.49C265.714 226.536 257.588 246.316 269.2 246.316C280.811 246.316 272.687 226.535 272.687 221.49C272.686 216.443 274.541 207.869 274.541 207.869Z" fill="#E0E0E0"/>
<path d="M233.925 228.148V234.175C233.925 240.852 240.216 246.315 247.905 246.315H254.846C262.534 246.315 268.825 240.852 268.825 234.175V228.148H233.925Z" fill="#F5F5F5"/>
<path d="M382.313 284.265C382.313 291.257 391.331 296.978 402.352 296.978H412.3C423.322 296.978 432.34 291.257 432.34 284.265H382.313Z" fill="#E0E0E0"/>
<path d="M645.94 274.03C639.906 278.307 631.579 286.139 623.947 297.158C618.865 304.496 615.802 312.185 614.457 322.343C614.485 310.844 614.527 298.489 614.573 286.829C616.106 283.828 619.606 276.913 622.118 271.449C630.497 253.218 633.618 248.735 641.155 233.01C651.206 212.036 661.506 187.149 658.557 189.138C652.548 193.19 629.516 230.642 627.027 236.003C618.464 254.443 616.079 267.884 614.597 280.855C614.643 269.903 614.693 259.847 614.741 252.088C614.895 226.78 615.392 218.612 615.633 216.093C616.565 214.813 617.666 213.321 618.306 212.517C623.716 205.724 625.803 199.937 630.9 189.805C638.124 175.448 644.344 149.958 642.526 151.244C634.954 156.597 628.981 168.106 621.132 182.771C613.284 197.436 615.528 205.869 613.971 218.394C613.644 220.852 613.394 230.127 613.213 242.982C611.177 229.287 607.359 220.262 600.392 212.061C591.822 201.974 583.533 195.16 577.45 191.601C571.368 188.043 587.953 212.821 595.885 223.636C602.948 233.267 609.454 241.766 613.123 250.136C612.929 267.558 612.839 289.62 612.839 310.156C611.019 300.81 608.048 290.747 604.085 282.954C599.322 273.591 591.995 259.23 586.163 254.359C584.761 253.189 592.261 281.119 597.073 288.546C601.887 295.973 605.42 302.972 608.449 307.182C609.156 308.164 611.501 311.952 612.84 314.13C612.853 339.2 613 361.322 613.251 368.852H614.498C614.413 366.909 614.399 354.156 614.426 337.277C617.429 328.112 624.297 317.654 629.965 308.113C636.152 297.697 651.975 269.752 645.94 274.03Z" fill="#E0E0E0"/>
<path d="M631.931 384.212H595.839L593.114 353.488H634.655L631.931 384.212Z" fill="#F0F0F0"/>
<path d="M637.345 357.068H590.424L589.081 346.702H638.689L637.345 357.068Z" fill="#F5F5F5"/>
<path d="M300.087 75.4971H235.542V137.046H300.087V75.4971Z" fill="#E0E0E0"/>
<path d="M307.078 75.4971H240.408V137.046H307.078V75.4971Z" fill="#F5F5F5"/>
<path d="M301.492 132.195V80.3474L245.992 80.3474V132.195H301.492Z" fill="white"/>
<path d="M288.04 119.629V92.9154H259.445V119.629H288.04Z" fill="#F5F5F5"/>
<path d="M629.18 82.672H569.221V139.849H629.18V82.672Z" fill="#E0E0E0"/>
<path d="M635.674 82.672H573.74V139.849H635.674V82.672Z" fill="#F5F5F5"/>
<path d="M630.486 135.343V87.1785L578.929 87.1785V135.343H630.486Z" fill="white"/>
<path d="M604.707 125.229C613.59 125.229 620.791 118.975 620.791 111.261C620.791 103.547 613.59 97.293 604.707 97.293C595.824 97.293 588.623 103.547 588.623 111.261C588.623 118.975 595.824 125.229 604.707 125.229Z" fill="#F5F5F5"/>
<path d="M367.139 112.197H319.259V157.855H367.139V112.197Z" fill="#E0E0E0"/>
<path d="M372.326 112.197H322.869V157.855H372.326V112.197Z" fill="#F5F5F5"/>
<path d="M368.183 154.258V115.796H327.013V154.258H368.183Z" fill="white"/>
<path d="M347.597 125.303L336.338 142.24H358.857L347.597 125.303Z" fill="#F5F5F5"/>
<path d="M444.879 427.561C568.185 427.561 668.145 422.492 668.145 416.238C668.145 409.985 568.185 404.915 444.879 404.915C321.572 404.915 221.613 409.985 221.613 416.238C221.613 422.492 321.572 427.561 444.879 427.561Z" fill="#F5F5F5"/>
<path d="M559.162 163.432L547.74 159.41C547.74 159.41 532.666 183.283 528.349 184.488C522.474 186.128 510.325 190.687 503.105 191.541C502.132 192.529 500.526 195.645 500.68 196.781C510.366 199.586 531.646 195.861 536.202 192.924C546.586 186.225 559.162 163.432 559.162 163.432Z" fill="#E58A7B"/>
<path d="M562.679 158.015C564.803 164.854 553.266 178.591 553.266 178.591L538.11 171.208C538.11 171.208 540.936 165.561 544.395 159.81C549.981 150.523 560.252 150.21 562.679 158.015Z" fill="#407BFF"/>
<path opacity="0.2" d="M562.679 158.015C564.803 164.854 553.266 178.591 553.266 178.591L538.11 171.208C538.11 171.208 540.936 165.561 544.395 159.81C549.981 150.523 560.252 150.21 562.679 158.015Z" fill="black"/>
<path opacity="0.2" d="M544.153 174.148L550.105 177.046L551.146 161.18C547.691 163.492 545.241 170.449 544.153 174.148Z" fill="black"/>
<path d="M552.732 152.863C552.732 152.863 540.965 175.599 547.825 217.94C561.798 217.94 587.398 217.94 594.197 217.94C594.934 211.758 592.497 181.602 601.329 152.475C601.329 152.475 593.474 151.09 585.921 150.773C580.012 150.525 571.445 150.361 566.208 150.774C559.304 151.318 552.732 152.863 552.732 152.863Z" fill="#407BFF"/>
<path opacity="0.2" d="M552.732 152.863C552.732 152.863 540.965 175.599 547.825 217.94C561.798 217.94 587.398 217.94 594.197 217.94C594.934 211.758 592.497 181.602 601.329 152.475C601.329 152.475 593.474 151.09 585.921 150.773C580.012 150.525 571.445 150.361 566.208 150.774C559.304 151.318 552.732 152.863 552.732 152.863Z" fill="black"/>
<path d="M541.978 417.142C541.905 418.216 559.487 419.086 581.247 419.086C603.007 419.086 620.706 418.216 620.778 417.142C620.851 416.068 603.269 415.198 581.509 415.198C559.749 415.197 542.05 416.068 541.978 417.142Z" fill="#E8ECF1"/>
<path d="M574.011 390.158L565.759 392.919L572.835 408.868L581.087 406.107L574.011 390.158Z" fill="#E58A7B"/>
<path d="M609.604 409.454H600.934L597.754 392.018H606.424L609.604 409.454Z" fill="#E58A7B"/>
<path d="M600.377 408.582H610.117C610.472 408.582 610.765 408.796 610.821 409.096L612.082 415.788C612.213 416.482 611.541 417.139 610.722 417.127C607.325 417.076 605.684 416.903 601.402 416.903C598.767 416.903 593.321 417.141 589.682 417.141C586.122 417.141 585.778 414.016 587.287 413.733C594.053 412.464 596.687 410.714 598.939 409.045C599.344 408.744 599.859 408.582 600.377 408.582Z" fill="#263238"/>
<path d="M571.513 405.946L580.749 403.614C581.095 403.527 581.45 403.656 581.604 403.925L585.026 409.921C585.381 410.542 584.961 411.322 584.16 411.512C580.815 412.305 578.566 412.801 574.378 413.858C571.484 414.588 568.541 415.778 565.682 416.57C563.702 417.118 559.054 417.14 556.646 417.14C553.086 417.14 552.293 413.881 553.819 413.732C557.68 413.356 558.198 413.53 560.329 412.602C563.853 411.067 566.579 409.796 569.629 407.021C570.161 406.539 570.784 406.13 571.513 405.946Z" fill="#263238"/>
<path d="M504.565 191.469L495.025 187.983L491.097 197.161C491.097 197.161 496.602 198.028 502.889 197.161L504.565 191.469Z" fill="#E58A7B"/>
<path d="M487.935 187.758L487.683 193.865L491.097 197.161L495.025 187.983L487.935 187.758Z" fill="#E58A7B"/>
<path d="M574.042 390.14L565.789 392.906L569.442 401.126L577.696 398.359L574.042 390.14Z" fill="#CF6F64"/>
<path d="M606.426 392.023H597.753L599.397 401.01H608.07L606.426 392.023Z" fill="#CF6F64"/>
<path opacity="0.2" d="M546.354 206.487C546.519 208.296 546.721 210.145 546.968 212.046L581.451 202.325C586.835 200.927 591.521 197.988 594.716 193.971C594.846 191.299 595.023 188.494 595.284 185.565C595.402 184.137 595.544 182.677 595.698 181.198C595.864 179.657 596.053 178.084 596.266 176.502L546.354 206.487Z" fill="black"/>
<path d="M557.612 173.688L556.438 173.567C557.121 168.577 561.411 164.633 565.942 164.727L565.908 165.755C561.996 165.656 558.227 169.213 557.612 173.688Z" fill="white"/>
<path d="M563.747 182.922C563.683 182.922 563.618 182.921 563.553 182.92L563.587 181.892C567.547 182.018 571.268 178.433 571.883 173.958L573.057 174.08C572.383 178.999 568.229 182.922 563.747 182.922Z" fill="white"/>
<path d="M585.269 131.497C583.653 137.005 581.731 147.097 585.921 150.772C585.921 150.772 582.995 156.359 571.209 156.359C560.439 156.359 566.208 150.772 566.208 150.772C573.379 149.305 573.505 144.748 572.562 140.468L585.269 131.497Z" fill="#E58A7B"/>
<path d="M580.088 135.158L572.568 140.465C572.795 141.478 572.956 142.505 572.971 143.503C575.169 145.404 579.582 140.588 580.034 138.131C580.259 136.907 580.28 135.729 580.088 135.158Z" fill="#CF6F64"/>
<path d="M559.643 131.429C560.745 133.143 562.69 134.21 564.528 134.565C567.293 135.1 568.682 132.891 567.92 130.668C567.234 128.667 564.969 125.978 562.19 126.439C559.453 126.894 558.382 129.469 559.643 131.429Z" fill="#CF6F64"/>
<path d="M564.206 113.8C559.899 115.514 558.381 130.371 563.796 132.568C569.21 134.764 572.363 110.555 564.206 113.8Z" fill="#263238"/>
<path d="M586.583 123.208C585.552 130.666 585.383 135.055 580.787 138.883C573.874 144.641 563.503 141.226 561.957 133.781C560.564 127.08 562.484 116.009 571.092 113.041C579.571 110.117 587.614 115.75 586.583 123.208Z" fill="#E58A7B"/>
<path d="M572.437 117.665C578.807 116.25 583.496 115.286 581.823 119.904C579.593 126.056 576.92 132.016 580.507 132.294C582.688 132.463 592.361 128.898 591.133 125.294C590.063 122.154 594.56 121.307 595.389 119.706C598.375 113.94 589.843 114.689 591.361 111.2C592.839 107.803 584.487 102.062 579.859 104.867C572.369 109.408 559.495 109.343 566.263 101.895C571.11 96.561 562.462 97.656 562.462 97.656C562.462 97.656 567.686 100.347 558.894 104.507C549.573 108.915 558.105 120.849 572.437 117.665Z" fill="#263238"/>
<path d="M589.907 131.429C588.573 133.143 586.485 134.21 584.599 134.565C581.761 135.1 580.671 132.891 581.733 130.668C582.69 128.667 585.317 125.978 588.034 126.439C590.709 126.894 591.432 129.469 589.907 131.429Z" fill="#E58A7B"/>
<path d="M547.825 217.94C547.825 217.94 540.042 278.437 539.434 301.397C538.803 325.279 565.813 399.791 565.813 399.791L579.644 394.747C579.644 394.747 563.54 326.674 565.777 303.219C568.216 277.65 578.307 217.939 578.307 217.939H547.825V217.94Z" fill="#407BFF"/>
<path opacity="0.2" d="M567.168 234.551C560.968 245.731 565.145 267.835 568.505 280.938C569.784 271.689 571.298 261.65 572.742 252.36C572.6 238.076 571.322 227.05 567.168 234.551Z" fill="black"/>
<path d="M579.018 390.826C579.083 390.803 580.658 394.654 580.658 394.654L564.717 400.467L562.205 396.412L579.018 390.826Z" fill="#407BFF"/>
<path d="M564.274 217.94C564.274 217.94 570.229 275.478 574.175 297.034C578.497 320.639 595.472 399.27 595.472 399.27H611.352C611.352 399.27 601.837 322.545 600.039 299.174C598.089 273.808 594.195 217.94 594.195 217.94H564.274Z" fill="#407BFF"/>
<path d="M611.595 395.677C611.663 395.677 612.126 399.531 612.126 399.531H594.672L593.426 395.107L611.595 395.677Z" fill="#407BFF"/>
<path opacity="0.2" d="M605.511 391.122C605.436 391.122 605.373 391.073 605.365 391.008C605.279 390.31 596.699 321.041 595.084 300.043C593.333 277.256 589.81 226.731 589.775 226.223C589.77 226.152 589.832 226.091 589.913 226.087C589.916 226.087 589.92 226.087 589.922 226.087C589.999 226.087 590.066 226.14 590.071 226.208C590.105 226.715 593.628 277.24 595.38 300.025C596.994 321.019 605.572 390.283 605.659 390.98C605.668 391.051 605.609 391.114 605.529 391.121C605.522 391.122 605.516 391.122 605.511 391.122Z" fill="black"/>
<path d="M573.415 125.293C573.374 125.9 572.971 126.393 572.514 126.393C572.057 126.393 571.719 125.901 571.761 125.293C571.801 124.686 572.205 124.193 572.662 124.193C573.12 124.193 573.457 124.686 573.415 125.293Z" fill="#263238"/>
<path d="M565.511 125.293C565.47 125.9 565.067 126.393 564.61 126.393C564.152 126.393 563.815 125.901 563.856 125.293C563.898 124.686 564.301 124.193 564.758 124.193C565.215 124.193 565.553 124.686 565.511 125.293Z" fill="#263238"/>
<path d="M568.003 125.595C568.003 125.595 566.177 129.099 564.312 130.789C565.481 131.792 567.615 131.333 567.615 131.333L568.003 125.595Z" fill="#DF5753"/>
<path d="M568.205 133.881C568.092 133.881 568.004 133.801 568.011 133.703C568.018 133.605 568.116 133.525 568.229 133.525C571.299 133.525 572.857 131.663 572.873 131.644C572.942 131.562 573.071 131.538 573.161 131.592C573.252 131.646 573.271 131.756 573.203 131.839C573.134 131.921 571.494 133.881 568.205 133.881Z" fill="#263238"/>
<path d="M574.821 123.446C574.702 123.486 574.569 123.48 574.458 123.419C572.948 122.593 571.539 123.147 571.525 123.154C571.332 123.24 571.075 123.165 570.989 122.987C570.902 122.809 571.004 122.596 571.213 122.511C571.288 122.48 573.051 121.785 574.926 122.81C575.114 122.913 575.16 123.132 575.031 123.3C574.978 123.368 574.903 123.418 574.821 123.446Z" fill="#263238"/>
<path d="M562.455 121.451C562.399 121.437 562.344 121.412 562.299 121.374C562.137 121.244 562.137 121.019 562.299 120.871C563.906 119.396 565.769 119.621 565.848 119.631C566.066 119.652 566.213 119.841 566.165 120.036C566.118 120.23 565.902 120.364 565.681 120.336C565.618 120.328 564.164 120.167 562.88 121.344C562.766 121.45 562.599 121.487 562.455 121.451Z" fill="#263238"/>
<path d="M605.78 162.317L593.801 159.548C593.801 159.548 582.055 184.656 577.906 186.295C572.26 188.526 557.966 196.242 551.89 199.963C551.553 201.207 551.818 204.523 552.582 205.426C562.913 203.796 582.786 197.161 586.931 193.788C596.38 186.099 605.78 162.317 605.78 162.317Z" fill="#E58A7B"/>
<path d="M597.421 409.897C596.761 409.897 596.151 409.799 595.778 409.514C595.482 409.287 595.361 408.969 595.417 408.571C595.459 408.274 595.649 408.133 595.803 408.067C596.781 407.641 599.486 409.131 599.791 409.303C599.858 409.342 599.89 409.413 599.873 409.484C599.854 409.554 599.79 409.611 599.708 409.627C599.096 409.753 598.222 409.897 597.421 409.897ZM596.238 408.339C596.131 408.339 596.04 408.353 595.969 408.384C595.912 408.409 595.845 408.455 595.826 408.593C595.786 408.877 595.862 409.089 596.061 409.241C596.511 409.588 597.64 409.634 599.13 409.376C598.183 408.884 596.903 408.339 596.238 408.339Z" fill="#407BFF"/>
<path d="M599.66 409.632C599.626 409.632 599.593 409.625 599.563 409.611C598.693 409.187 597.071 407.538 597.312 406.698C597.354 406.546 597.502 406.283 597.997 406.231C598.32 406.196 598.607 406.274 598.856 406.459C599.815 407.174 599.875 409.347 599.877 409.439C599.88 409.504 599.839 409.567 599.774 409.602C599.738 409.622 599.699 409.632 599.66 409.632ZM598.117 406.58C598.087 406.58 598.056 406.583 598.023 406.586C597.755 406.614 597.724 406.721 597.711 406.766C597.568 407.262 598.59 408.509 599.442 409.097C599.383 408.462 599.192 407.195 598.578 406.737C598.437 406.631 598.286 406.58 598.117 406.58Z" fill="#407BFF"/>
<path d="M566.843 408.653C565.996 408.831 565.188 408.884 564.672 408.641C564.343 408.487 564.155 408.229 564.111 407.878C564.084 407.668 564.166 407.485 564.345 407.348C565.273 406.631 569.029 407.402 569.455 407.492C569.538 407.51 569.597 407.572 569.6 407.648C569.604 407.724 569.553 407.795 569.471 407.828C568.774 408.102 567.784 408.455 566.843 408.653ZM564.971 407.465C564.813 407.498 564.689 407.545 564.607 407.608C564.535 407.664 564.508 407.728 564.52 407.82C564.55 408.058 564.669 408.224 564.883 408.326C565.495 408.615 566.915 408.386 568.742 407.722C567.458 407.488 565.779 407.294 564.971 407.465Z" fill="#407BFF"/>
<path d="M569.433 407.838C569.404 407.844 569.376 407.844 569.347 407.841C568.231 407.661 565.847 406.511 565.825 405.65C565.82 405.449 565.929 405.173 566.475 405.009C566.871 404.88 567.279 404.906 567.661 405.069C568.913 405.605 569.567 407.525 569.594 407.606C569.614 407.666 569.595 407.732 569.545 407.781C569.514 407.81 569.475 407.829 569.433 407.838ZM566.71 405.312C566.671 405.32 566.63 405.332 566.589 405.343C566.232 405.452 566.235 405.579 566.235 405.621C566.249 406.137 567.904 407.087 569.073 407.407C568.84 406.855 568.28 405.741 567.461 405.39C567.214 405.284 566.967 405.258 566.71 405.312Z" fill="#407BFF"/>
<path d="M552.865 199.372L540.857 204.172L539.464 207.114L543.902 209.707C543.902 209.707 552.183 208.924 554.543 204.303L552.865 199.372Z" fill="#E58A7B"/>
<path d="M553.377 205.596C552.626 201.722 551.159 199.955 551.145 199.938L553.038 198.705C553.112 198.79 554.852 200.83 555.711 205.255L553.377 205.596Z" fill="#263238"/>
<path d="M555.422 200.791C555.811 201.628 555.185 202.636 554.024 203.044C552.862 203.452 551.605 203.104 551.216 202.267C550.827 201.43 551.452 200.422 552.614 200.014C553.775 199.607 555.032 199.954 555.422 200.791Z" fill="#263238"/>
<path d="M532.744 208.048L534.339 209.451L545.113 205.449L540.857 204.173L532.744 208.048Z" fill="#E58A7B"/>
<path opacity="0.2" d="M579.018 390.826C579.083 390.803 580.658 394.654 580.658 394.654L564.717 400.467L562.205 396.412L579.018 390.826Z" fill="black"/>
<path opacity="0.2" d="M611.595 395.677C611.663 395.677 612.126 399.531 612.126 399.531H594.672L593.426 395.107L611.595 395.677Z" fill="black"/>
<path d="M608.901 159.439C612.069 168.306 599.735 180.419 599.735 180.419L582.638 174.359C582.638 174.359 585.047 167.917 589.631 159.286C594.843 149.477 605.704 150.49 608.901 159.439Z" fill="#407BFF"/>
<path opacity="0.2" d="M608.901 159.439C612.069 168.306 599.735 180.419 599.735 180.419L582.638 174.359C582.638 174.359 585.047 167.917 589.631 159.286C594.843 149.477 605.704 150.49 608.901 159.439Z" fill="black"/>
<path d="M438.976 70.5701H431.621V71.5981H438.976V70.5701Z" fill="#407BFF"/>
<path d="M534.239 111.331L533.349 128.489L534.531 128.536L535.421 111.377L534.239 111.331Z" fill="#407BFF"/>
<path d="M531.948 75.1941H396.07L383.421 320.913H519.299L531.948 75.1941Z" fill="#407BFF"/>
<path opacity="0.56" d="M527.891 78.566H392.013L379.365 324.285H515.243L527.891 78.566Z" fill="#FAFAFA"/>
<path opacity="0.07" d="M523.834 81.9381H387.958L375.309 327.657H511.186L523.834 81.9381Z" fill="#407BFF"/>
<path d="M508.368 189.106H392.391L391.423 207.912H507.401L508.368 189.106Z" fill="white"/>
<path d="M456.18 175.39H393.097L392.664 183.804H455.746L456.18 175.39Z" fill="#407BFF"/>
<path d="M505.757 239.849H389.778L388.81 258.655H504.788L505.757 239.849Z" fill="white"/>
<path opacity="0.47" d="M484.488 284.036H406.497L405.338 306.575H483.328L484.488 284.036Z" fill="#407BFF"/>
<path d="M479.272 310.066H401.282C401.245 310.066 401.21 310.052 401.183 310.029C401.158 310.006 401.144 309.974 401.146 309.942L402.307 287.403C402.309 287.339 402.37 287.289 402.443 287.289H480.433C480.47 287.289 480.505 287.303 480.532 287.326C480.557 287.349 480.571 287.381 480.569 287.413L479.408 309.952C479.406 310.016 479.344 310.066 479.272 310.066ZM401.425 309.828H479.141L480.288 287.527H402.572L401.425 309.828Z" fill="white"/>
<path d="M442.55 226.134H390.484L390.051 234.548H442.116L442.55 226.134Z" fill="#407BFF"/>
<path d="M483.001 128.379C482.71 134.01 480.36 139.21 476.592 143.434C470.903 149.836 461.991 153.998 452.181 153.998C442.372 153.998 433.9 149.836 428.87 143.434C425.538 139.21 423.723 134.011 424.013 128.379C424.742 114.229 438.537 102.761 454.82 102.761C471.114 102.76 483.728 114.229 483.001 128.379Z" fill="white"/>
<path d="M485.775 108.123C485.698 109.619 485.073 111.001 484.072 112.123C482.56 113.824 480.192 114.93 477.585 114.93C474.978 114.93 472.728 113.824 471.391 112.123C470.506 111.001 470.023 109.619 470.1 108.123C470.294 104.363 473.96 101.316 478.286 101.316C482.616 101.316 485.968 104.363 485.775 108.123Z" fill="#407BFF"/>
<path d="M404.881 198.509C404.795 200.173 403.172 201.522 401.256 201.522C399.34 201.522 397.855 200.173 397.941 198.509C398.026 196.845 399.649 195.496 401.565 195.496C403.483 195.495 404.967 196.845 404.881 198.509Z" fill="#263238"/>
<path d="M420.411 198.509C420.326 200.173 418.702 201.522 416.786 201.522C414.87 201.522 413.386 200.173 413.471 198.509C413.556 196.845 415.18 195.496 417.096 195.496C419.012 195.496 420.497 196.845 420.411 198.509Z" fill="#263238"/>
<path d="M435.943 198.509C435.857 200.173 434.234 201.522 432.318 201.522C430.402 201.522 428.917 200.173 429.003 198.509C429.088 196.845 430.711 195.496 432.627 195.496C434.544 195.495 436.028 196.845 435.943 198.509Z" fill="#263238"/>
<path d="M402.269 249.252C402.184 250.916 400.56 252.265 398.644 252.265C396.728 252.265 395.243 250.916 395.329 249.252C395.414 247.588 397.038 246.238 398.954 246.238C400.87 246.239 402.354 247.588 402.269 249.252Z" fill="#263238"/>
<path d="M417.8 249.252C417.714 250.916 416.091 252.265 414.175 252.265C412.259 252.265 410.774 250.916 410.859 249.252C410.945 247.588 412.568 246.238 414.484 246.238C416.402 246.239 417.885 247.588 417.8 249.252Z" fill="#263238"/>
<path d="M433.33 249.252C433.245 250.916 431.621 252.265 429.705 252.265C427.789 252.265 426.305 250.916 426.39 249.252C426.475 247.588 428.099 246.238 430.015 246.238C431.931 246.238 433.416 247.588 433.33 249.252Z" fill="#263238"/>
<path d="M448.862 249.252C448.776 250.916 447.153 252.265 445.237 252.265C443.321 252.265 441.836 250.916 441.921 249.252C442.007 247.588 443.63 246.238 445.546 246.238C447.463 246.239 448.947 247.588 448.862 249.252Z" fill="#263238"/>
<path d="M464.392 249.252C464.307 250.916 462.683 252.265 460.767 252.265C458.851 252.265 457.367 250.916 457.452 249.252C457.537 247.588 459.161 246.238 461.077 246.238C462.993 246.239 464.477 247.588 464.392 249.252Z" fill="#263238"/>
<path d="M465.877 119.816C465.583 125.538 460.002 130.177 453.412 130.177C446.823 130.177 441.72 125.538 442.015 119.816C442.309 114.093 447.89 109.455 454.48 109.455C461.069 109.455 466.172 114.094 465.877 119.816Z" fill="#407BFF"/>
<path d="M476.592 143.433C470.903 149.835 461.991 153.997 452.181 153.997C442.372 153.997 433.9 149.835 428.87 143.433C434.468 138.593 443.327 135.449 453.137 135.449C462.957 135.449 471.493 138.593 476.592 143.433Z" fill="#407BFF"/>
<path opacity="0.1" d="M465.877 119.816C465.583 125.538 460.002 130.177 453.412 130.177C446.823 130.177 441.72 125.538 442.015 119.816C442.309 114.093 447.89 109.455 454.48 109.455C461.069 109.455 466.172 114.094 465.877 119.816Z" fill="white"/>
<path opacity="0.1" d="M476.592 143.433C470.903 149.835 461.991 153.997 452.181 153.997C442.372 153.997 433.9 149.835 428.87 143.433C434.468 138.593 443.327 135.449 453.137 135.449C462.957 135.449 471.493 138.593 476.592 143.433Z" fill="white"/>
<path d="M307.166 212.443C306.075 214.52 304.927 216.805 303.919 219.034C302.904 221.284 301.89 223.536 301.007 225.82C299.291 230.388 297.683 234.998 296.891 239.621L296.628 241.093C296.607 241.27 296.622 241.522 296.712 241.838C296.88 242.473 297.336 243.323 297.978 244.157C299.274 245.844 301.112 247.552 303.094 249.138C305.071 250.749 307.218 252.29 309.45 253.753C311.66 255.229 313.991 256.674 316.271 258.028L314.124 261.537C308.645 259.457 303.543 256.97 298.601 253.849C296.171 252.241 293.771 250.51 291.645 248.17C290.598 246.99 289.567 245.657 288.892 243.897C288.565 243.019 288.337 242.026 288.336 240.952C288.344 240.705 288.359 240.358 288.379 240.192L288.435 239.695L288.55 238.701C289.177 233.4 290.528 228.305 292.31 223.363C293.208 220.895 294.166 218.452 295.26 216.055C296.377 213.642 297.479 211.326 298.876 208.897L307.166 212.443Z" fill="#E58A7B"/>
<path d="M314.658 257.432L322.795 253.847L320.693 261.613C320.693 261.613 315.106 262.968 312.507 260.614L314.658 257.432Z" fill="#E58A7B"/>
<path d="M330.247 255.122L328.082 261.542L320.692 261.614L322.795 253.847L330.247 255.122Z" fill="#E58A7B"/>
<path d="M341.74 175.001C341.74 175.001 342.446 177.255 343.565 178.954C342.603 179.734 341.74 179.463 341.74 179.463V175.001Z" fill="#DF5753"/>
<path d="M341.499 175.06C341.976 175.06 342.362 174.547 342.362 173.914C342.362 173.281 341.976 172.768 341.499 172.768C341.023 172.768 340.637 173.281 340.637 173.914C340.637 174.547 341.023 175.06 341.499 175.06Z" fill="#263238"/>
<path d="M341.289 172.803L343.039 172.365C343.039 172.365 342.141 173.553 341.289 172.803Z" fill="#263238"/>
<path d="M319.245 182.336C320.296 186.991 321.345 195.521 317.594 198.627C317.594 198.627 319.06 203.349 329.02 203.349C339.973 203.349 334.255 198.627 334.255 198.627C328.278 197.387 328.432 193.536 329.473 189.919L319.245 182.336Z" fill="#E58A7B"/>
<path d="M316.339 171.742C316.888 179.514 316.929 182.813 321.45 186.802C328.249 192.802 339.12 190.516 341.256 182.759C343.178 175.776 341.956 164.24 333.197 161.147C324.565 158.1 315.788 163.97 316.339 171.742Z" fill="#E58A7B"/>
<path d="M317.221 162.948C312.733 164.369 306.746 163.312 309.095 175.341C311.583 188.078 307.754 192.268 307.754 192.268C307.754 192.268 324.787 195.419 342.175 192.08C342.175 192.08 336.867 184.018 338.357 178.135C340.257 170.632 338.75 167.859 338.75 167.859C338.75 167.859 323.531 160.95 317.221 162.948Z" fill="#263238"/>
<path d="M336.222 175.792C336.203 177.332 336.825 178.883 337.631 179.96C338.844 181.581 340.283 180.921 340.643 179.238C340.968 177.724 340.727 175.056 339.174 174.021C337.645 173.003 336.243 174.032 336.222 175.792Z" fill="#E58A7B"/>
<path d="M313.323 164.309C312.027 161.164 318.181 156.327 331.191 158.339C344.201 160.351 344.772 169.747 344.772 169.747L342.139 167.034L342.258 169.891L328.888 172.122L313.323 164.309Z" fill="#263238"/>
<path d="M314.426 199.156C314.246 198.195 314.99 197.29 316.095 197.132C320.146 196.551 329.354 195.375 333.989 195.932C337.432 196.346 338.343 198.092 338.488 199.52C338.596 200.579 337.587 201.472 336.364 201.424L316.341 200.638C315.379 200.6 314.579 199.982 314.426 199.156Z" fill="#407BFF"/>
<path opacity="0.6" d="M314.426 199.156C314.246 198.195 314.99 197.29 316.095 197.132C320.146 196.551 329.354 195.375 333.989 195.932C337.432 196.346 338.343 198.092 338.488 199.52C338.596 200.579 337.587 201.472 336.364 201.424L316.341 200.638C315.379 200.6 314.579 199.982 314.426 199.156Z" fill="black"/>
<path d="M325.996 373.862L333.418 378.336L345.845 363.71L338.423 359.236L325.996 373.862Z" fill="#E58A7B"/>
<path d="M308.672 373.566L316.523 377.449L327.521 361.98L319.671 358.098L308.672 373.566Z" fill="#E58A7B"/>
<path d="M345.839 363.713L339.436 371.253L332.012 366.777L338.415 359.237L345.839 363.713Z" fill="#CF6F64"/>
<path d="M319.666 358.101L327.52 361.985L321.846 369.957L313.993 366.073L319.666 358.101Z" fill="#CF6F64"/>
<path d="M332.258 247.988C332.258 247.988 361.253 279.723 355.813 310.07C351.419 334.582 325.974 367.773 325.974 367.773L314.01 362.609C314.01 362.609 327.009 340.551 335.546 317.168C339.126 307.362 337.6 296.559 330.907 288.071C316.22 269.441 292.689 280.526 308.517 247.989L332.258 247.988Z" fill="#407BFF"/>
<path opacity="0.6" d="M332.258 247.988C332.258 247.988 361.253 279.723 355.813 310.07C351.419 334.582 325.974 367.773 325.974 367.773L314.01 362.609C314.01 362.609 327.009 340.551 335.546 317.168C339.126 307.362 337.6 296.559 330.907 288.071C316.22 269.441 292.689 280.526 308.517 247.989L332.258 247.988Z" fill="black"/>
<path opacity="0.4" d="M346.48 268.38L342.268 264.742C342.268 265.03 350.433 308.796 352.728 321.096C354.113 317.325 355.178 313.605 355.817 310.07C358.479 295.211 352.882 280.013 346.48 268.38Z" fill="black"/>
<path d="M345.208 247.988C345.208 247.988 380.121 287.868 381.103 311.783C381.926 331.821 343.074 370.528 343.074 370.528L331.795 364.191C331.795 364.191 354.513 336.674 360.233 314.18C358.052 291.915 311.245 247.987 311.245 247.987H345.208V247.988Z" fill="#407BFF"/>
<path opacity="0.6" d="M345.208 247.988C345.208 247.988 380.121 287.868 381.103 311.783C381.926 331.821 343.074 370.528 343.074 370.528L331.795 364.191C331.795 364.191 354.513 336.674 360.233 314.18C358.052 291.915 311.245 247.987 311.245 247.987H345.208V247.988Z" fill="black"/>
<path d="M302.014 200.41C298.275 201.176 294.702 212.963 294.702 212.963L309.283 221.416C309.283 221.416 314.143 212.1 312.447 208.019C310.679 203.769 306.735 199.443 302.014 200.41Z" fill="#407BFF"/>
<path opacity="0.2" d="M304.867 207.994L303.848 218.263L309.276 221.418C309.276 221.418 311.82 216.537 312.578 212.283L304.867 207.994Z" fill="black"/>
<path d="M349.525 200.637C349.525 200.637 353.828 201.953 345.208 247.988C330.648 247.988 315.602 247.988 308.517 247.988C309.133 235.02 309.151 227.023 302.014 200.41C302.014 200.41 309.701 198.958 317.594 198.627C323.768 198.369 328.827 198.197 334.255 198.628C341.41 199.195 349.525 200.637 349.525 200.637Z" fill="#407BFF"/>
<path d="M353.252 207.947C354.083 209.942 354.963 212.1 355.878 214.172C356.757 216.275 357.669 218.374 358.61 220.464L361.433 226.745L362.147 228.315L362.505 229.1L362.685 229.492C362.716 229.562 362.71 229.556 362.699 229.549C362.649 229.53 362.606 229.332 361.893 228.925C361.542 228.736 360.955 228.554 360.389 228.544C359.819 228.526 359.367 228.647 359.108 228.745C358.589 228.96 358.581 229.053 358.592 229.038C358.626 229.023 358.733 228.934 358.85 228.811C359.353 228.286 359.961 227.381 360.495 226.481C361.039 225.564 361.554 224.584 362.066 223.59C363.085 221.597 364.012 219.517 364.956 217.434C365.888 215.345 366.767 213.225 367.637 211.099L370.258 204.717L374.695 205.688C373.818 210.253 372.682 214.724 371.329 219.211C370.668 221.459 369.904 223.688 369.03 225.938C368.594 227.065 368.107 228.189 367.548 229.335C366.966 230.49 366.389 231.629 365.36 232.952C365.089 233.287 364.783 233.641 364.356 234.031C363.904 234.415 363.383 234.879 362.258 235.318C361.698 235.527 360.919 235.712 360.021 235.681C359.127 235.659 358.219 235.383 357.592 235.045C356.316 234.337 355.875 233.663 355.497 233.157C355.322 232.903 355.172 232.641 355.069 232.452L354.85 232.064L354.412 231.288L353.542 229.735C352.404 227.654 351.289 225.562 350.233 223.447C349.188 221.327 348.169 219.195 347.181 217.047C346.235 214.866 345.3 212.753 344.468 210.433L353.252 207.947Z" fill="#E58A7B"/>
<path d="M349.525 200.637C353.936 201.549 358.891 212.865 358.891 212.865L345.784 222.564C345.784 222.564 337.289 210.225 339.009 206.151C340.798 201.908 343.764 199.445 349.525 200.637Z" fill="#407BFF"/>
<path d="M372.305 201.189L376.906 197.848L380.106 202.177L377.749 205.792C377.749 205.792 373.995 208.776 370.671 207.258C369.598 205.145 370.265 202.671 372.305 201.189Z" fill="#E58A7B"/>
<path d="M385.256 197.858L384.911 198.947L377.623 200.01L376.905 197.848L385.256 197.858Z" fill="#E58A7B"/>
<path d="M344.008 371.053L330.859 363.667L333.214 360.111L347.991 368L344.008 371.053Z" fill="#407BFF"/>
<path d="M321.647 376.926C320.601 376.926 319.225 376.35 318.392 375.948C318.317 375.912 318.274 375.841 318.283 375.766C318.292 375.693 318.35 375.631 318.431 375.607C318.786 375.51 321.905 374.68 322.788 375.324C322.928 375.426 323.083 375.614 323.033 375.927C322.969 376.342 322.75 376.635 322.384 376.793C322.172 376.885 321.921 376.926 321.647 376.926ZM319.057 375.835C320.487 376.467 321.639 376.7 322.193 376.461C322.429 376.359 322.565 376.168 322.611 375.877C322.635 375.72 322.572 375.651 322.513 375.609C322.049 375.27 320.319 375.534 319.057 375.835Z" fill="#263238"/>
<path d="M318.496 375.97C318.439 375.97 318.383 375.95 318.343 375.914C318.29 375.866 318.271 375.798 318.291 375.734C318.321 375.642 319.04 373.47 320.222 372.975C320.538 372.844 320.858 372.837 321.171 372.95C321.669 373.132 321.718 373.448 321.701 373.619C321.62 374.518 319.51 375.76 318.547 375.964C318.531 375.968 318.514 375.97 318.496 375.97ZM320.728 373.243C320.622 373.243 320.515 373.266 320.407 373.311C319.702 373.606 319.11 374.778 318.827 375.491C319.84 375.121 321.223 374.139 321.273 373.591C321.281 373.502 321.258 373.386 321.003 373.294C320.912 373.26 320.82 373.243 320.728 373.243Z" fill="#263238"/>
<path d="M338.096 381.247C336.8 381.247 334.992 379.8 334.003 378.911C333.939 378.854 333.924 378.769 333.965 378.698C334.006 378.628 334.11 378.588 334.184 378.597C334.64 378.648 338.645 379.118 339.21 380.1C339.318 380.29 339.309 380.492 339.183 380.685C338.972 381.009 338.664 381.195 338.271 381.238C338.215 381.244 338.156 381.247 338.096 381.247ZM334.76 379.045C336.216 380.273 337.487 380.953 338.218 380.868C338.474 380.84 338.668 380.721 338.812 380.501C338.867 380.417 338.871 380.343 338.826 380.266C338.519 379.732 336.381 379.271 334.76 379.045Z" fill="#263238"/>
<path d="M334.887 379.014C334.591 379.014 334.326 378.998 334.118 378.964C334.044 378.952 333.982 378.907 333.956 378.846C333.93 378.784 333.943 378.714 333.991 378.663C334.057 378.594 335.615 376.963 337.087 376.851C337.547 376.82 337.938 376.926 338.272 377.174C338.724 377.511 338.693 377.811 338.587 378.003C338.222 378.669 336.232 379.014 334.887 379.014ZM334.59 378.639C335.876 378.701 337.933 378.33 338.201 377.843C338.224 377.802 338.292 377.678 337.994 377.457C337.745 377.272 337.457 377.195 337.125 377.221C336.158 377.295 335.08 378.185 334.59 378.639Z" fill="#263238"/>
<path d="M318.812 374.918L309.045 372.52C308.689 372.433 308.331 372.576 308.183 372.865L304.887 379.302C304.545 379.97 305.019 380.798 305.844 380.987C309.265 381.772 310.962 382.001 315.257 383.056C317.9 383.705 321.683 384.891 325.332 385.786C328.9 386.662 330.195 383.596 328.768 382.939C322.369 379.994 321.865 377.975 320.114 375.738C319.799 375.335 319.332 375.046 318.812 374.918Z" fill="#407BFF"/>
<path d="M334.269 377.743L325.932 372.716C325.628 372.533 325.236 372.568 324.988 372.799L319.458 377.955C318.885 378.49 319.024 379.407 319.732 379.818C322.673 381.527 324.193 382.223 327.86 384.434C330.115 385.794 334.618 388.81 337.733 390.688C340.78 392.525 343.152 389.991 342.048 388.967C337.102 384.375 336.01 381.497 335.194 378.886C335.045 378.416 334.712 378.01 334.269 377.743Z" fill="#407BFF"/>
<path d="M327.51 368.436L312.475 361.947L314.032 358.414L330.079 365.245L327.51 368.436Z" fill="#407BFF"/>
<path d="M307.968 246.118L306.696 248.97C306.567 249.191 306.868 249.417 307.293 249.417H345.389C345.719 249.417 345.993 249.276 346.014 249.096L346.345 246.244C346.368 246.046 346.081 245.879 345.719 245.879H308.565C308.293 245.879 308.051 245.976 307.968 246.118Z" fill="#407BFF"/>
<path opacity="0.4" d="M307.968 246.118L306.696 248.97C306.567 249.191 306.868 249.417 307.293 249.417H345.389C345.719 249.417 345.993 249.276 346.014 249.096L346.345 246.244C346.368 246.046 346.081 245.879 345.719 245.879H308.565C308.293 245.879 308.051 245.976 307.968 246.118Z" fill="white"/>
<path d="M313.959 249.726H312.964C312.766 249.726 312.615 249.637 312.629 249.529L313.096 245.824C313.109 245.716 313.282 245.627 313.481 245.627H314.476C314.674 245.627 314.825 245.716 314.811 245.824L314.345 249.529C314.331 249.638 314.157 249.726 313.959 249.726Z" fill="#407BFF"/>
<path d="M337.458 249.726H336.463C336.265 249.726 336.115 249.637 336.128 249.529L336.595 245.824C336.609 245.716 336.781 245.627 336.98 245.627H337.975C338.173 245.627 338.324 245.716 338.31 245.824L337.844 249.529C337.83 249.638 337.656 249.726 337.458 249.726Z" fill="#407BFF"/>
<path d="M313.083 419.087C330.121 419.087 343.933 418.217 343.933 417.143C343.933 416.069 330.121 415.199 313.083 415.199C296.045 415.199 282.233 416.069 282.233 417.143C282.233 418.217 296.045 419.087 313.083 419.087Z" fill="#F5F5F5"/>
<path d="M331.884 414.4C326.426 413.024 320.418 411.251 316.701 409.366C316.598 409.314 316.488 409.276 316.383 409.228V387.799H327.362C329.178 387.799 330.65 386.521 330.65 384.944C330.65 383.368 329.178 382.09 327.362 382.09H316.383V284.267H309.809V382.09H298.831C297.016 382.09 295.544 383.368 295.544 384.944C295.544 386.521 297.016 387.799 298.831 387.799H309.809V409.227C309.705 409.275 309.595 409.312 309.492 409.365C305.775 411.25 299.767 413.023 294.309 414.399C292.518 414.85 292.896 417.141 294.76 417.141H313.096H331.431C333.297 417.142 333.675 414.851 331.884 414.4Z" fill="#E0E0E0"/>
<path d="M333.573 295.247H292.62C289.339 295.247 286.655 292.916 286.655 290.067V279.494C286.655 276.645 289.339 274.314 292.62 274.314H333.573C336.854 274.314 339.538 276.645 339.538 279.494V290.067C339.538 292.916 336.854 295.247 333.573 295.247Z" fill="#407BFF"/>
<path d="M292.243 295.247V297.067C292.243 298.567 294.124 299.795 296.421 299.795H329.772C332.069 299.795 333.95 298.568 333.95 297.067V295.247H292.243Z" fill="#407BFF"/>
<path opacity="0.3" d="M292.243 295.247V297.067C292.243 298.567 294.124 299.795 296.421 299.795H329.772C332.069 299.795 333.95 298.568 333.95 297.067V295.247H292.243Z" fill="white"/>
</g>
<defs>
<clipPath id="clip0_197_2">
<rect width="575.758" height="500" fill="white" transform="translate(157)"/>
</clipPath>
</defs>
</svg>
