<svg width="25" height="25" viewBox="0 0 25 25" fill="none" xmlns="http://www.w3.org/2000/svg">
<path d="M12.5002 5.46875C12.248 5.46908 11.9961 5.4829 11.7455 5.51016C10.4461 5.65875 9.21957 6.18772 8.21967 7.0307C7.21978 7.87368 6.49106 8.99315 6.12492 10.2487C5.75878 11.5042 5.77153 12.8399 6.16156 14.0882C6.5516 15.3365 7.30155 16.4419 8.31736 17.2656C8.63611 17.5097 8.89646 17.8217 9.07944 18.179C9.26243 18.5363 9.36345 18.93 9.37517 19.3312V19.5312H11.7189V15.625H10.9377C10.7305 15.625 10.5318 15.5427 10.3852 15.3962C10.2387 15.2497 10.1564 15.051 10.1564 14.8438C10.1564 14.6365 10.2387 14.4378 10.3852 14.2913C10.5318 14.1448 10.7305 14.0625 10.9377 14.0625H14.0627C14.2699 14.0625 14.4686 14.1448 14.6151 14.2913C14.7616 14.4378 14.8439 14.6365 14.8439 14.8438C14.8439 15.051 14.7616 15.2497 14.6151 15.3962C14.4686 15.5427 14.2699 15.625 14.0627 15.625H13.2814V19.5312H15.6252V19.3961C15.6168 19.0091 15.6963 18.6252 15.8578 18.2734C16.0192 17.9215 16.2583 17.6109 16.5572 17.3648C17.6537 16.5179 18.4579 15.3492 18.857 14.0224C19.2561 12.6956 19.2303 11.2772 18.7831 9.96589C18.3358 8.65453 17.4897 7.51591 16.363 6.70948C15.2364 5.90305 13.8857 5.46922 12.5002 5.46875Z" fill="#006FFF"/>
<path d="M11.7188 23.4375C11.0971 23.4375 10.501 23.1906 10.0615 22.751C9.62193 22.3115 9.375 21.7154 9.375 21.0938H15.625C15.625 21.7154 15.3781 22.3115 14.9385 22.751C14.499 23.1906 13.9029 23.4375 13.2812 23.4375H11.7188Z" fill="#006FFF"/>
<path d="M12.5 4.6875C12.7072 4.6875 12.9059 4.60519 13.0524 4.45868C13.1989 4.31216 13.2812 4.11345 13.2812 3.90625V2.34375C13.2812 2.13655 13.1989 1.93784 13.0524 1.79132C12.9059 1.64481 12.7072 1.5625 12.5 1.5625C12.2928 1.5625 12.0941 1.64481 11.9476 1.79132C11.8011 1.93784 11.7188 2.13655 11.7188 2.34375V3.90625C11.7188 4.11345 11.8011 4.31216 11.9476 4.45868C12.0941 4.60519 12.2928 4.6875 12.5 4.6875Z" fill="#006FFF"/>
<path d="M22.2656 11.3281H20.7031C20.4959 11.3281 20.2972 11.4104 20.1507 11.5569C20.0042 11.7035 19.9219 11.9022 19.9219 12.1094C19.9219 12.3166 20.0042 12.5153 20.1507 12.6618C20.2972 12.8083 20.4959 12.8906 20.7031 12.8906H22.2656C22.4728 12.8906 22.6715 12.8083 22.8181 12.6618C22.9646 12.5153 23.0469 12.3166 23.0469 12.1094C23.0469 11.9022 22.9646 11.7035 22.8181 11.5569C22.6715 11.4104 22.4728 11.3281 22.2656 11.3281Z" fill="#006FFF"/>
<path d="M4.29688 11.3281H2.73438C2.52717 11.3281 2.32846 11.4104 2.18195 11.5569C2.03543 11.7035 1.95313 11.9022 1.95312 12.1094C1.95313 12.3166 2.03543 12.5153 2.18195 12.6618C2.32846 12.8083 2.52717 12.8906 2.73438 12.8906H4.29688C4.50408 12.8906 4.70279 12.8083 4.8493 12.6618C4.99581 12.5153 5.07812 12.3166 5.07812 12.1094C5.07812 11.9022 4.99581 11.7035 4.8493 11.5569C4.70279 11.4104 4.50408 11.3281 4.29688 11.3281Z" fill="#006FFF"/>
<path d="M18.3006 7.08984C18.4032 7.09012 18.5049 7.07003 18.5997 7.03073C18.6945 6.99144 18.7806 6.93373 18.853 6.86093L19.9576 5.75624C20.1 5.6089 20.1787 5.41155 20.1769 5.20671C20.1751 5.00187 20.093 4.80592 19.9481 4.66107C19.8033 4.51622 19.6073 4.43406 19.4025 4.43228C19.1977 4.4305 19.0003 4.50925 18.853 4.65156L17.7483 5.75624C17.639 5.8655 17.5647 6.00469 17.5345 6.15622C17.5044 6.30775 17.5199 6.4648 17.579 6.60754C17.6381 6.75027 17.7382 6.87227 17.8667 6.95812C17.9951 7.04397 18.1461 7.08981 18.3006 7.08984Z" fill="#006FFF"/>
<path d="M6.14691 6.86097C6.29425 7.00328 6.4916 7.08202 6.69644 7.08024C6.90128 7.07846 7.09723 6.9963 7.24208 6.85145C7.38693 6.7066 7.46909 6.51065 7.47087 6.30581C7.47265 6.10097 7.3939 5.90363 7.25159 5.75628L6.14691 4.65159C6.07484 4.57698 5.98863 4.51746 5.89331 4.47651C5.798 4.43557 5.69548 4.41402 5.59175 4.41312C5.48802 4.41221 5.38514 4.43198 5.28913 4.47126C5.19312 4.51055 5.10589 4.56856 5.03253 4.64191C4.95918 4.71526 4.90117 4.80249 4.86189 4.8985C4.82261 4.99452 4.80284 5.09739 4.80374 5.20112C4.80464 5.30486 4.82619 5.40737 4.86714 5.50269C4.90808 5.59801 4.9676 5.68421 5.04222 5.75628L6.14691 6.86097Z" fill="#006FFF"/>
</svg>
