<svg width="30" height="30" viewBox="0 0 30 30" fill="none" xmlns="http://www.w3.org/2000/svg">
<path fill-rule="evenodd" clip-rule="evenodd" d="M3.96446 6.46446C2.5 7.92894 2.5 10.286 2.5 15C2.5 19.714 2.5 22.0711 3.96446 23.5355C5.42894 25 7.78595 25 12.5 25H17.5C22.214 25 24.5711 25 26.0355 23.5355C27.5 22.0711 27.5 19.714 27.5 15C27.5 10.286 27.5 7.92894 26.0355 6.46446C24.5711 5 22.214 5 17.5 5H12.5C7.78595 5 5.42894 5 3.96446 6.46446ZM15.9377 12.5C15.9377 11.9822 15.518 11.5625 15.0002 11.5625C14.4825 11.5625 14.0627 11.9822 14.0627 12.5V13.3765L13.3035 12.9381C12.8551 12.6793 12.2817 12.8329 12.0229 13.2812C11.764 13.7296 11.9176 14.303 12.366 14.5619L13.1246 14.9999L12.3657 15.4381C11.9173 15.697 11.7637 16.2704 12.0226 16.7188C12.2815 17.1671 12.8549 17.3208 13.3032 17.0619L14.0627 16.6234V17.5C14.0627 18.0177 14.4825 18.4375 15.0002 18.4375C15.518 18.4375 15.9377 18.0177 15.9377 17.5V16.6241L16.6961 17.0619C17.1445 17.3208 17.7179 17.1671 17.9767 16.7188C18.2356 16.2704 18.082 15.697 17.6336 15.4381L16.8746 14.9999L17.6334 14.5619C18.0817 14.303 18.2354 13.7296 17.9765 13.2812C17.7176 12.8329 17.1442 12.6793 16.6959 12.9381L15.9377 13.3757V12.5ZM8.41582 11.5625C8.93359 11.5625 9.35332 11.9822 9.35332 12.5V13.3757L10.1114 12.9381C10.5598 12.6793 11.1331 12.8329 11.392 13.2812C11.6509 13.7296 11.4973 14.303 11.0489 14.5619L10.2902 14.9999L11.0492 15.4381C11.4976 15.697 11.6512 16.2704 11.3923 16.7188C11.1334 17.1671 10.5601 17.3208 10.1117 17.0619L9.35332 16.6241V17.5C9.35332 18.0177 8.93359 18.4375 8.41582 18.4375C7.89805 18.4375 7.47832 18.0177 7.47832 17.5V16.6234L6.71875 17.0619C6.27035 17.3208 5.69699 17.1671 5.4381 16.7188C5.17921 16.2704 5.33285 15.697 5.78125 15.4381L6.54021 14.9999L5.78154 14.5619C5.33315 14.303 5.17951 13.7296 5.4384 13.2812C5.69727 12.8329 6.27065 12.6793 6.71904 12.9381L7.47832 13.3765V12.5C7.47832 11.9822 7.89805 11.5625 8.41582 11.5625ZM22.5226 12.5C22.5226 11.9822 22.1029 11.5625 21.5851 11.5625C21.0674 11.5625 20.6476 11.9822 20.6476 12.5V13.3765L19.8882 12.9381C19.4399 12.6793 18.8665 12.8329 18.6076 13.2812C18.3487 13.7296 18.5024 14.303 18.9507 14.5619L19.7095 14.9999L18.9505 15.4381C18.5021 15.697 18.3485 16.2704 18.6074 16.7188C18.8662 17.1671 19.4396 17.3208 19.888 17.0619L20.6476 16.6234V17.5C20.6476 18.0177 21.0674 18.4375 21.5851 18.4375C22.1029 18.4375 22.5226 18.0177 22.5226 17.5V16.6241L23.2809 17.0619C23.7294 17.3208 24.3027 17.1671 24.5616 16.7188C24.8205 16.2704 24.6669 15.697 24.2184 15.4381L23.4595 14.9999L24.2181 14.5619C24.6665 14.303 24.8201 13.7296 24.5612 13.2812C24.3024 12.8329 23.729 12.6793 23.2806 12.9381L22.5226 13.3757V12.5Z" fill="#A5A5A5"/>
</svg>
