<svg width="25" height="25" viewBox="0 0 25 25" fill="none" xmlns="http://www.w3.org/2000/svg">
<path fill-rule="evenodd" clip-rule="evenodd" d="M24.5391 0.0870223C24.4485 0.0289009 24.3514 -0.000607834 24.2535 0.000194574L24.2536 0L0.744806 0.149905C0.546703 0.151399 0.35706 0.275684 0.217446 0.495519C0.0778313 0.715354 -0.00036344 1.0128 1.27008e-06 1.32267L0.0281306 20.5689C0.0291263 21.214 0.364064 21.7399 0.776171 21.7436L2.68374 21.7605V23.8305C2.68374 24.4759 3.01768 25 3.42966 25H6.59994C6.59994 25 7.38644 22.0058 9.53983 22.0058C11.6932 22.0058 12.5 25 12.5 25H21.7145C21.8126 24.9999 21.9098 24.9696 22.0004 24.9107C22.091 24.8519 22.1734 24.7657 22.2427 24.6571C22.312 24.5485 22.367 24.4196 22.4045 24.2777C22.442 24.1359 22.4612 23.9838 22.4611 23.8304V22.2418H24.252C24.3501 22.2419 24.4474 22.2118 24.5381 22.1531C24.6289 22.0945 24.7113 22.0084 24.7808 21.8999C24.8503 21.7913 24.9054 21.6625 24.943 21.5206C24.9806 21.3787 25 21.2267 25 21.0731V1.164C25.0001 1.01078 24.9809 0.859042 24.9434 0.717488C24.9059 0.575935 24.8509 0.447356 24.7816 0.339135C24.7121 0.231014 24.6297 0.145403 24.5391 0.0872176V0.0870223ZM1.96233 3.37636C2.00902 3.30337 2.07232 3.26234 2.13833 3.26227L7.61483 3.26247C7.64754 3.26239 7.67993 3.27242 7.71014 3.29198C7.74036 3.31153 7.76781 3.34023 7.79092 3.37643C7.81403 3.41263 7.83234 3.45561 7.84479 3.5029C7.85725 3.5502 7.86361 3.60087 7.86352 3.65203L7.84734 17.2768C7.84734 17.2768 7.33366 17.3035 6.89306 17.7596C6.45245 18.2157 6.34005 18.8368 6.34005 18.8368H1.88915V3.65105C1.88927 3.54787 1.91566 3.44917 1.96233 3.37636ZM9.67935 3.37616C9.72604 3.30335 9.78929 3.26246 9.85522 3.26247H15.3317C15.3809 3.26243 15.429 3.28519 15.4699 3.32788C15.5108 3.37057 15.5427 3.43127 15.5616 3.50232C15.5741 3.54962 15.5804 3.60024 15.5804 3.65125L15.5629 18.4482C15.5624 18.5516 15.5358 18.6506 15.4889 18.7235C15.4419 18.7963 15.3784 18.8371 15.3123 18.837H12.7995C12.7995 18.837 12.1987 17.9693 11.4774 17.577C10.7561 17.1849 9.60604 17.1006 9.60604 17.1006V3.65047C9.60629 3.54729 9.63268 3.44878 9.67935 3.37616ZM17.3961 3.37616C17.4429 3.30332 17.5061 3.26243 17.5721 3.26247H23.0486C23.0978 3.26243 23.1459 3.28519 23.1868 3.32788C23.2277 3.37057 23.2596 3.43127 23.2785 3.50232C23.291 3.54962 23.2973 3.60024 23.2973 3.65125L23.2798 18.4482C23.2795 18.5512 23.2532 18.6499 23.2066 18.7227C23.16 18.7955 23.0968 18.8365 23.0309 18.8368H17.3229V3.65105C17.3231 3.54787 17.3494 3.44897 17.3961 3.37616Z" fill="white"/>
</svg>
