<svg width="153" height="119" viewBox="0 0 153 119" fill="none" xmlns="http://www.w3.org/2000/svg">
<path d="M5.47077 43.2758C1.26576 43.2758 -1.36255 38.7687 0.739956 35.1635C1.71575 33.4897 3.51918 32.4594 5.47077 32.4594H71.0247C79.4355 32.4554 84.6886 23.4399 80.4802 16.2308C76.2718 9.02171 65.7586 9.02576 61.5563 16.2389C61.249 16.7662 60.9868 17.3185 60.7738 17.8898C59.3138 21.7945 54.1323 22.6706 51.4467 19.4669C50.1998 17.9804 49.8494 15.9482 50.5268 14.1358C56.3625 -1.48436 77.0898 -4.99292 87.8366 7.82042C98.5827 20.6338 91.2884 40.1593 74.706 42.9662C73.4898 43.1717 72.2587 43.2751 71.0247 43.2758H5.47077ZM92.8761 75.7249H16.3964C12.1914 75.7249 9.56311 80.2313 11.6656 83.8372C12.6414 85.5103 14.4448 86.5413 16.3964 86.5413H92.8761C101.287 86.5446 106.54 95.5601 102.332 102.77C98.1231 109.979 87.6099 109.974 83.4076 102.762C83.1003 102.234 82.8381 101.681 82.6251 101.11C81.1651 97.2062 75.9836 96.3294 73.298 99.5331C72.0511 101.02 71.7008 103.052 72.3782 104.864C78.2138 120.484 98.9412 123.993 109.688 111.18C120.434 98.3663 113.14 78.8407 96.5573 76.0338C95.3412 75.8283 94.11 75.7249 92.8761 75.7249ZM131.116 21.6431C121.979 21.6667 113.813 27.2939 110.618 35.7686C109.159 39.6733 112.516 43.6773 116.661 42.9763C118.585 42.6511 120.187 41.3342 120.865 39.5225C123.781 31.7111 134.146 29.9554 139.52 36.3614C144.895 42.7681 141.249 52.5319 132.958 53.9367C132.349 54.0401 131.733 54.0922 131.116 54.0922H10.9336C6.72859 54.0922 4.10028 58.5985 6.20279 62.2044C7.17859 63.8776 8.98201 64.9085 10.9336 64.9085H131.116C147.937 64.9085 158.451 46.881 150.04 32.4594C146.137 25.7661 138.923 21.6431 131.116 21.6431Z" fill="white"/>
</svg>
