<svg width="254" height="199" viewBox="0 0 254 199" fill="none" xmlns="http://www.w3.org/2000/svg">
<path fill-rule="evenodd" clip-rule="evenodd" d="M19.0429 24.7135C28.7737 25.9011 37.4339 30.0601 44.081 36.3544C52.8611 25.5452 66.5065 19.3667 80.863 21.0303C88.1012 21.8621 94.6284 24.4733 100.085 28.5122C109.22 9.62522 130.46 -2.25585 153.72 0.35961C175.555 2.85501 192.759 17.583 198.571 36.2342C199.282 36.3543 199.998 36.3543 200.708 36.47C224.32 39.2012 241.05 61.8914 238.206 87.0727C237.73 90.8758 236.899 94.5546 235.713 98.0019C248.528 108.691 255.766 126.274 253.629 144.921C250.305 173.666 225.862 194.577 198.927 191.485C185.401 189.822 173.773 182.455 166.059 171.886C166.059 173.55 166.059 175.329 165.824 177.113C162.976 202.178 137.822 219.878 109.7 216.551C93.0865 214.651 79.2055 205.861 71.2564 193.86C61.5255 209.54 43.0146 218.926 23.0817 216.666C-1.95641 213.815 -20.583 193.144 -20.9384 169.271C-21.4138 169.151 -21.8893 169.151 -22.3604 169.151C-47.3985 166.179 -65.5539 144.085 -62.7058 119.736C-60.5686 100.613 -46.2121 85.8807 -28.0567 81.606C-29.8384 76.0235 -30.4295 69.8451 -29.7185 63.6709C-26.8789 39.3214 -5.04445 21.9822 19.0429 24.7135Z" fill="#F2F2F2"/>
</svg>
