<svg width="449" height="269" viewBox="0 0 449 269" fill="none" xmlns="http://www.w3.org/2000/svg">
<path fill-rule="evenodd" clip-rule="evenodd" d="M422.445 210.205C421.053 210.12 419.652 210.074 418.235 210.074C416.698 210.074 415.301 210.074 413.768 210.215C415.442 205.466 416.42 200.298 416.42 194.99C416.42 169.151 395.049 148.198 368.793 148.198C366.696 148.198 364.881 148.198 362.925 148.476C363.066 146.242 363.202 144.004 363.202 141.77C363.202 101.684 330.1 68.9996 289.314 68.9996C278.561 68.9996 268.362 71.3742 259.146 75.4226C246.295 53.91 222.131 39.3852 194.338 39.3852C189.029 39.3852 183.861 39.9448 178.835 40.9228C168.359 16.8995 143.081 0 113.608 0C77.8743 0 48.3311 24.8451 43.6728 57.0913C29.8238 41.5127 9.68817 31.6412 -12.7969 31.6412C-54.5605 31.6412 -88.4192 65.5007 -88.4192 107.265C-88.4192 110.769 -88.0965 114.188 -87.6377 117.566C-127.41 119.784 -159 152.645 -159 192.973C-159 233.674 -125.025 268.38 -84.3053 268.799C-30.9714 269.348 22.4885 268.597 75.8627 268.597C136.426 268.597 196.995 268.597 257.563 268.597C303.249 268.597 348.935 268.597 394.616 268.597C402.98 268.597 411.338 268.597 419.702 268.597C456.924 268.597 459.596 212.54 422.445 210.205Z" fill="#F2F2F2"/>
</svg>
