<svg width="438" height="239" viewBox="0 0 438 239" fill="none" xmlns="http://www.w3.org/2000/svg">
<path fill-rule="evenodd" clip-rule="evenodd" d="M0 257.81H1.89198C4.12498 279.809 23.0309 297 45.5407 297H985.01C1009.24 297 1029 277.234 1029 253.169V252.996C1029 228.931 1009.24 209.165 985.01 209.165H972.468C966.284 186.477 944.456 169.807 918.51 169.807C911.811 169.807 905.454 171.011 899.611 172.903C892.564 138.354 859.745 112.061 820.389 112.061C816.438 112.061 812.654 112.403 808.877 112.924C797.538 70.9854 757.152 40.0464 708.863 40.0464C698.207 40.0464 687.724 41.5911 678.104 44.3456C658.516 17.5323 626.206 0 589.951 0C553.007 0 520.355 18.0473 500.935 45.5492C484.609 21.143 455.053 4.81424 421.198 4.81424C378.412 4.81424 342.491 30.7652 331.494 66.3447C322.215 63.9375 312.42 62.734 302.279 62.734C249.01 62.734 203.984 97.4511 189.209 145.234C181.989 143.341 174.428 142.312 166.525 142.312C123.392 142.312 88.3336 172.047 86.6154 209.171H45.5469C21.319 209.171 1.55694 228.937 1.55694 253.002V253.176C1.55694 254.032 1.55703 254.894 1.73071 255.756C1.0298 256.433 0.514829 257.121 0 257.81Z" fill="#F2F2F2"/>
</svg>
