<svg width="57" height="13" viewBox="0 0 57 13" fill="none" xmlns="http://www.w3.org/2000/svg">
<path d="M1.5 8H51.879L49.4395 10.4395C48.8535 11.025 48.8535 11.975 49.4395 12.5605C49.7325 12.8535 50.1165 13 50.5 13C50.8835 13 51.2675 12.8535 51.5605 12.5605L56.5605 7.5605C57.1465 6.975 57.1465 6.025 56.5605 5.4395L51.5605 0.4395C50.9745 -0.1465 50.0255 -0.1465 49.4395 0.4395C48.8535 1.025 48.8535 1.975 49.4395 2.5605L51.879 5H1.5C0.6715 5 0 5.6715 0 6.5C0 7.3285 0.6715 8 1.5 8Z" fill="white"/>
</svg>
