<svg width="399" height="202" viewBox="0 0 399 202" fill="none" xmlns="http://www.w3.org/2000/svg">
<path fill-rule="evenodd" clip-rule="evenodd" d="M540.632 131.247H511.18C511.857 128.053 512.271 124.753 512.271 121.387C512.271 94.9253 490.853 73.5023 464.397 73.5023C460.759 73.5023 457.258 73.9218 453.756 74.6243C445.5 54.4596 425.341 40.1827 401.684 40.1827C395.803 40.1827 390.068 41.0216 384.748 42.7045C371.03 17.3648 344.013 0 312.798 0C274.166 0 241.829 26.6031 233.431 62.3031C227.555 60.3422 221.113 59.3618 214.393 59.3618C188.635 59.3618 166.939 74.6243 159.799 95.7643C158.961 95.7643 158.258 95.7643 157.42 95.7643C131.318 95.7643 108.439 110.036 96.3787 131.247H35.3684C15.8349 131.247 0 147.085 0 166.623C0 186.161 15.8349 202 35.3684 202H540.632C560.165 202 576 186.161 576 166.623C576 147.085 560.165 131.247 540.632 131.247Z" fill="#F2F2F2"/>
</svg>
