<svg width="50" height="50" viewBox="0 0 50 50" fill="none" xmlns="http://www.w3.org/2000/svg">
<g clip-path="url(#clip0_174_190)">
<path d="M42.5 0H7.5C3.35786 0 0 3.35786 0 7.5V42.5C0 46.6421 3.35786 50 7.5 50H42.5C46.6421 50 50 46.6421 50 42.5V7.5C50 3.35786 46.6421 0 42.5 0Z" fill="#37AEE2"/>
<path d="M19.4336 39.4531C18.3594 39.4531 18.457 39.0625 18.1641 38.0859L15.0391 27.832L38.9648 13.7695" fill="#C8DAEA"/>
<path d="M19.4336 39.4531C20.1172 39.4531 20.5078 39.0625 20.9961 38.6719L25.3906 34.4727L19.9219 31.1523" fill="#A9C9DD"/>
<path d="M19.9218 31.1521L33.1054 40.8201C34.4726 41.699 35.6445 41.2107 36.0351 39.4529L41.4062 14.2576C41.8945 12.1091 40.5273 11.1326 39.0625 11.8162L7.7148 23.9255C5.66402 24.7068 5.66402 25.9763 7.32417 26.4646L15.4296 29.0037L33.9843 17.1873C34.8632 16.699 35.6445 16.8943 35.0586 17.5779" fill="#F6FBFE"/>
</g>
<defs>
<clipPath id="clip0_174_190">
<rect width="50" height="50" fill="white"/>
</clipPath>
</defs>
</svg>
