<svg width="30" height="30" viewBox="0 0 30 30" fill="none" xmlns="http://www.w3.org/2000/svg">
<path fill-rule="evenodd" clip-rule="evenodd" d="M15 30C6.71575 30 0 23.2843 0 15C0 6.71575 6.71575 0 15 0C23.2843 0 30 6.71575 30 15C30 23.2843 23.2843 30 15 30ZM7.37444 15.0001C7.37444 13.9187 6.507 13.0419 5.43756 13.0419C4.36744 13.0419 3.5 13.9187 3.5 15.0001C3.5 16.0814 4.36744 16.9579 5.43756 16.9579C6.50731 16.9579 7.37444 16.0817 7.37444 15.0001ZM21.0419 25.2373C20.1149 25.7781 18.9311 25.4572 18.3956 24.5209C17.8609 23.5846 18.1784 22.3876 19.1047 21.8463C20.0309 21.3055 21.2155 21.6261 21.7502 22.5627C22.2856 23.4994 21.9674 24.6968 21.0419 25.2373ZM21.7502 7.43706C22.2856 6.50075 21.9685 5.30336 21.0419 4.76251C20.116 4.22201 18.9311 4.54294 18.3956 5.47923C17.8609 6.4155 18.1784 7.61325 19.1047 8.15375C20.0309 8.695 21.2162 8.37369 21.7502 7.43706ZM20.6968 14.5051C20.4494 11.6529 18.081 9.416 15.1941 9.416C14.3632 9.416 13.5744 9.60187 12.8668 9.935L11.5029 7.45888C12.6159 6.90119 13.8693 6.58781 15.1941 6.58781C15.951 6.58781 16.6831 6.69025 17.3797 6.88112C17.5027 7.67669 17.9669 8.41131 18.7103 8.84506C19.453 9.27881 20.3138 9.31825 21.0564 9.02844C22.4579 10.4339 23.3671 12.3406 23.5 14.461L20.6968 14.5051ZM9.67025 15.0001C9.67025 13.1106 10.5983 11.4408 12.0188 10.4304L10.5795 7.99869C8.91231 9.12406 7.66994 10.8412 7.14625 12.8535C7.76631 13.3585 8.16319 14.1322 8.16319 15.0001C8.16319 15.8679 7.76631 16.6416 7.14625 17.1466C7.67031 19.1593 8.91231 20.876 10.5795 22.0018L12.0188 19.5701C10.5983 18.5597 9.67025 16.8894 9.67025 15.0001ZM12.8668 20.0658C13.5744 20.3982 14.3632 20.5844 15.1941 20.5844C18.081 20.5844 20.4494 18.3473 20.6968 15.4947L23.5 15.5395C23.3671 17.6588 22.4579 19.5658 21.0564 20.972C20.3138 20.6826 19.453 20.7216 18.7103 21.1554C17.9669 21.5892 17.5027 22.3234 17.3797 23.1193C16.6831 23.3106 15.951 23.4127 15.1941 23.4127C13.8693 23.4127 12.6159 23.0996 11.5029 22.5419L12.8668 20.0658Z" fill="white"/>
</svg>
