<svg width="111" height="192" viewBox="0 0 111 192" fill="none" xmlns="http://www.w3.org/2000/svg">
<path d="M0 191.141C0 146.307 45.927 129.358 55.406 129.358C64.885 129.358 110.812 146.307 110.812 191.141H0Z" fill="#F36E50"/>
<path d="M74.2779 136.277L74.4799 135.743L74.4859 135.672C66.0709 131.321 58.63 129.358 55.407 129.358C52.16 129.358 44.6369 131.348 36.1479 135.764L36.3419 136.277C38.3569 141.609 45.681 159.004 55.31 159.004C64.938 159.005 72.2619 141.609 74.2779 136.277Z" fill="#F99073"/>
<path d="M68.5168 132.899L67.4278 99.5542H43.1898L42.0988 132.981C41.4128 133.267 40.7168 133.567 40.0068 133.889L40.0828 134.864C40.0828 134.864 47.6958 155.006 55.3098 155.006C62.9228 155.006 70.5368 134.864 70.5368 134.864L70.6198 133.805C69.9038 133.483 69.2048 133.184 68.5168 132.899Z" fill="#FFC1AE"/>
<path d="M68.2732 125.445L67.4282 99.5542H43.1902L42.5962 117.733C50.5212 121.978 59.3132 124.598 68.2732 125.445Z" fill="#EDAD9B"/>
<path d="M55.3091 117.928C77.3541 117.928 95.2251 97.9946 95.2251 73.4058C95.2251 48.817 77.3541 28.8838 55.3091 28.8838C33.2641 28.8838 15.3931 48.817 15.3931 73.4058C15.3931 97.9946 33.2641 117.928 55.3091 117.928Z" fill="#FFC1AE"/>
<path d="M96.5571 82.4322C101.08 82.4322 104.747 78.7652 104.747 74.2422C104.747 69.7192 101.08 66.0522 96.5571 66.0522H88.3911V82.4332L96.5571 82.4322Z" fill="#FFC1AE"/>
<path d="M100.863 75.829C100.855 75.829 100.846 75.828 100.838 75.828C100.632 75.815 100.475 75.637 100.488 75.43C100.564 74.247 100.25 73.05 99.6009 72.058C98.9529 71.066 97.9819 70.297 96.8689 69.892C96.6739 69.821 96.5739 69.606 96.6439 69.412C96.7149 69.217 96.9319 69.118 97.1239 69.187C98.3889 69.646 99.4909 70.52 100.228 71.647C100.964 72.774 101.322 74.134 101.235 75.478C101.224 75.677 101.059 75.829 100.863 75.829Z" fill="#EDAB99"/>
<path d="M14.0611 82.4322C9.5381 82.4322 5.87109 78.7652 5.87109 74.2422C5.87109 69.7192 9.5381 66.0522 14.0611 66.0522H22.2271V82.4332L14.0611 82.4322Z" fill="#FFC1AE"/>
<path d="M9.754 75.829C9.558 75.829 9.39301 75.677 9.38001 75.478C9.29301 74.135 9.65101 72.774 10.387 71.647C11.124 70.52 12.226 69.646 13.491 69.187C13.685 69.118 13.9 69.217 13.971 69.412C14.042 69.606 13.941 69.822 13.746 69.892C12.633 70.296 11.663 71.065 11.014 72.058C10.366 73.05 10.051 74.248 10.127 75.43C10.141 75.637 9.98401 75.815 9.77701 75.828C9.77101 75.829 9.763 75.829 9.754 75.829Z" fill="#EDAB99"/>
<path d="M55.2661 80.555C55.0071 80.555 54.7431 80.522 54.4831 80.454C53.7101 80.253 53.0681 79.767 52.7231 79.121C52.5931 78.877 52.6851 78.575 52.9281 78.444C53.1721 78.314 53.4751 78.405 53.6051 78.649C53.8191 79.05 54.2311 79.355 54.7351 79.485C55.2651 79.624 55.8281 79.547 56.2411 79.281C57.0901 78.735 57.4061 77.442 56.9181 76.512C56.4381 75.597 55.2341 75.066 54.1831 75.314C53.9121 75.378 53.6451 75.208 53.5831 74.94C53.5211 74.671 53.6881 74.402 53.9581 74.34C55.4611 73.993 57.1111 74.728 57.8051 76.048C58.5321 77.433 58.0641 79.298 56.7831 80.122C56.3391 80.408 55.8111 80.555 55.2661 80.555Z" fill="#F19086"/>
<path d="M43.297 67.3709C43.297 68.8509 42.097 70.0509 40.617 70.0509C39.137 70.0509 37.937 68.8509 37.937 67.3709C37.937 65.8909 39.137 64.6909 40.617 64.6909C42.097 64.6909 43.297 65.8909 43.297 67.3709Z" fill="#2A2E4E"/>
<path d="M70.0008 70.0509C71.4809 70.0509 72.6808 68.851 72.6808 67.3709C72.6808 65.8908 71.4809 64.6909 70.0008 64.6909C68.5207 64.6909 67.3208 65.8908 67.3208 67.3709C67.3208 68.851 68.5207 70.0509 70.0008 70.0509Z" fill="#2A2E4E"/>
<path d="M61.7511 89.0249C61.4051 90.3789 60.6261 91.6309 59.5341 92.6079C59.0011 93.1169 58.3331 93.4829 57.6391 93.7829C56.9361 94.0849 56.1631 94.1689 55.4051 94.2169C54.6471 94.1709 53.8741 94.0839 53.1701 93.7849C52.4771 93.4849 51.8081 93.1199 51.2741 92.6099C50.1821 91.6329 49.4031 90.3799 49.0581 89.0249C49.9521 90.0839 50.9201 90.9989 51.9811 91.6769C53.0461 92.3489 54.2111 92.7139 55.4041 92.7169C56.5971 92.7159 57.7621 92.3499 58.8281 91.6779C59.8911 91.0009 60.8591 90.0849 61.7511 89.0249Z" fill="#F19086"/>
<path d="M77.3232 85.3462C80.8191 85.3462 83.6532 84.1615 83.6532 82.7002C83.6532 81.2388 80.8191 80.0542 77.3232 80.0542C73.8272 80.0542 70.9932 81.2388 70.9932 82.7002C70.9932 84.1615 73.8272 85.3462 77.3232 85.3462Z" fill="#FFA492"/>
<path d="M33.2948 85.3462C36.7908 85.3462 39.6248 84.1615 39.6248 82.7002C39.6248 81.2388 36.7908 80.0542 33.2948 80.0542C29.7989 80.0542 26.9648 81.2388 26.9648 82.7002C26.9648 84.1615 29.7989 85.3462 33.2948 85.3462Z" fill="#FFA492"/>
<path d="M72.9358 25.8416C75.204 16.1061 69.1505 6.37525 59.4151 4.10708C49.6797 1.8389 39.9488 7.89233 37.6806 17.6278C35.4124 27.3632 41.4659 37.0941 51.2013 39.3623C60.9368 41.6304 70.6676 35.577 72.9358 25.8416Z" fill="#1F2232"/>
<path d="M55.3088 28.8838C35.5128 28.8838 19.0918 44.9608 15.9458 66.0448C15.9458 66.0448 31.6818 60.6628 37.9368 44.3608C37.9368 44.3608 51.5258 64.6908 94.6738 66.0528C91.5298 44.9648 75.1068 28.8838 55.3088 28.8838Z" fill="#1F2232"/>
</svg>
