<svg width="111" height="175" viewBox="0 0 111 175" fill="none" xmlns="http://www.w3.org/2000/svg">
<path d="M0 174.264C0 129.43 45.927 112.481 55.406 112.481C64.885 112.481 110.812 129.43 110.812 174.264H0Z" fill="#434B50"/>
<path d="M43.1901 82.6768L42.0301 118.217C41.8431 125.679 47.8411 131.829 55.3061 131.829H55.3101H55.3141C62.7781 131.829 68.7771 125.679 68.5901 118.217L67.4301 82.6768H43.1901Z" fill="#FFC1AE"/>
<path d="M68.2742 108.568L67.4292 82.6768H43.1902L42.5962 100.856C50.5212 105.101 59.3142 107.721 68.2742 108.568Z" fill="#EDAD9B"/>
<path d="M55.4062 101.051C77.4512 101.051 95.3222 81.1177 95.3222 56.5288C95.3222 31.94 77.4512 12.0068 55.4062 12.0068C33.3612 12.0068 15.4902 31.94 15.4902 56.5288C15.4902 81.1177 33.3612 101.051 55.4062 101.051Z" fill="#FFC1AE"/>
<path d="M96.6538 65.5548C101.177 65.5548 104.845 61.8878 104.845 57.3648C104.845 52.8418 101.178 49.1748 96.6538 49.1748H88.4878V65.5558L96.6538 65.5548Z" fill="#FFC1AE"/>
<path d="M100.96 58.9519C100.952 58.9519 100.944 58.9519 100.936 58.9509C100.73 58.9379 100.573 58.7599 100.586 58.5529C100.662 57.3689 100.347 56.1719 99.6989 55.1799C99.0509 54.1879 98.0799 53.4189 96.9669 53.0139C96.7729 52.9429 96.6719 52.7279 96.7419 52.5339C96.8129 52.3389 97.0309 52.2389 97.2219 52.3089C98.4879 52.7679 99.59 53.6419 100.326 54.7689C101.062 55.8949 101.421 57.2549 101.334 58.5999C101.321 58.7999 101.156 58.9519 100.96 58.9519Z" fill="#EDAB99"/>
<path d="M14.1578 65.5548C9.63478 65.5548 5.96777 61.8878 5.96777 57.3648C5.96777 52.8418 9.63478 49.1748 14.1578 49.1748H22.3238V65.5558L14.1578 65.5548Z" fill="#FFC1AE"/>
<path d="M9.85212 58.9518C9.65612 58.9518 9.49113 58.7998 9.47813 58.6008C9.39113 57.2558 9.75012 55.8958 10.4861 54.7698C11.2211 53.6428 12.3241 52.7688 13.5891 52.3098C13.7811 52.2388 13.9981 52.3398 14.0691 52.5348C14.1391 52.7288 14.0391 52.9448 13.8441 53.0148C12.7311 53.4188 11.7611 54.1878 11.1141 55.1808C10.4661 56.1718 10.1501 57.3688 10.2261 58.5538C10.2401 58.7608 10.0821 58.9388 9.8761 58.9518C9.8671 58.9518 9.85912 58.9518 9.85212 58.9518Z" fill="#EDAB99"/>
<path d="M55.3619 63.6778C55.1019 63.6778 54.8389 63.6448 54.5779 63.5768C53.8049 63.3758 53.1639 62.8898 52.8189 62.2438C52.6879 61.9998 52.7799 61.6978 53.0239 61.5668C53.2629 61.4378 53.5689 61.5278 53.6999 61.7718C53.9149 62.1728 54.3259 62.4778 54.8299 62.6078C55.3589 62.7458 55.9239 62.6698 56.3369 62.4038C57.1859 61.8578 57.5019 60.5648 57.0149 59.6348C56.5349 58.7198 55.3329 58.1898 54.2789 58.4368C54.0169 58.5008 53.7419 58.3308 53.6789 58.0628C53.6159 57.7938 53.7839 57.5248 54.0539 57.4628C55.5499 57.1168 57.2059 57.8498 57.8999 59.1708C58.6279 60.5558 58.1589 62.4208 56.8789 63.2448C56.4359 63.5308 55.9069 63.6778 55.3619 63.6778Z" fill="#F19086"/>
<path d="M40.7132 53.174C42.1933 53.174 43.3932 51.9741 43.3932 50.494C43.3932 49.0138 42.1933 47.814 40.7132 47.814C39.2331 47.814 38.0332 49.0138 38.0332 50.494C38.0332 51.9741 39.2331 53.174 40.7132 53.174Z" fill="#2A2E4E"/>
<path d="M70.098 53.174C71.5781 53.174 72.778 51.9741 72.778 50.494C72.778 49.0138 71.5781 47.814 70.098 47.814C68.6178 47.814 67.418 49.0138 67.418 50.494C67.418 51.9741 68.6178 53.174 70.098 53.174Z" fill="#2A2E4E"/>
<path d="M61.8478 72.1479C61.5018 73.5019 60.7228 74.7539 59.6308 75.7309C59.0978 76.2399 58.4298 76.606 57.7358 76.906C57.0328 77.208 56.2598 77.2919 55.5018 77.3399C54.7438 77.2939 53.9708 77.207 53.2668 76.908C52.5738 76.608 51.9048 76.2429 51.3708 75.7329C50.2788 74.7559 49.4998 73.5029 49.1548 72.1479C50.0488 73.2069 51.0168 74.1219 52.0778 74.7999C53.1428 75.4719 54.3078 75.8369 55.5008 75.8399C56.6938 75.8389 57.8588 75.4729 58.9248 74.8009C59.9878 74.1239 60.9558 73.2079 61.8478 72.1479Z" fill="#F19086"/>
<path d="M83.7498 65.8228C83.7498 67.2838 80.9158 68.4688 77.4198 68.4688C73.9238 68.4688 71.0898 67.2838 71.0898 65.8228C71.0898 64.3618 73.9238 63.1768 77.4198 63.1768C80.9158 63.1768 83.7498 64.3618 83.7498 65.8228Z" fill="#FFA492"/>
<path d="M27.062 65.8228C27.062 67.2838 29.896 68.4688 33.392 68.4688C36.888 68.4688 39.722 67.2838 39.722 65.8228C39.722 64.3618 36.888 63.1768 33.392 63.1768C29.896 63.1768 27.062 64.3618 27.062 65.8228Z" fill="#FFA492"/>
<path d="M93.999 40.4978C94.056 37.4648 94.349 34.3918 93.719 31.4248C93.444 30.1298 92.34 28.1888 90.947 26.3218C91.218 25.9758 91.486 25.6268 91.733 25.2618C94.189 21.6428 95.341 16.9678 94.046 12.7908C92.526 7.88783 87.857 4.41783 82.868 3.21083C77.879 2.00383 72.613 2.74884 67.656 4.07984C65.299 4.71284 62.987 5.49784 60.718 6.39384C56.347 8.24284 54.272 7.21683 53.733 6.40383C53.11 4.95983 53.509 3.05483 54.632 1.94483C55.188 1.39583 54.933 0.451836 54.176 0.260836C52.413 -0.185164 50.479 -0.0351658 48.73 0.527834C46.28 1.31583 44.133 2.83183 42.127 4.44483C39.115 6.86983 30.747 14.1438 27.163 20.6858C24.074 23.1588 20.833 26.8768 19.878 28.9368C18.419 32.0848 17.53 35.3858 17.171 38.8378C16.841 42.0088 16.511 45.1798 16.181 48.3518C16.135 48.6258 16.083 48.8958 16.042 49.1718C16.047 49.1688 16.067 49.1598 16.099 49.1428C16.094 49.1878 16.09 49.2318 16.085 49.2758C16.137 49.2058 16.193 49.1378 16.246 49.0678C17.961 48.1888 30.054 41.7288 33.231 32.8818C35.175 34.4168 38.518 35.4318 40.323 36.1218C46.481 38.4758 53.111 39.5778 59.698 39.4178C66.146 39.2608 72.572 37.8698 78.471 35.2598C83.058 43.5158 94.584 49.1748 94.584 49.1748H94.78C94.78 44.9558 93.942 43.5318 93.999 40.4978Z" fill="#22262C"/>
<path d="M53.6758 124.037H57.4617L62.4447 133.249L61.0487 141.474L44.0107 139.98V135.795L53.6758 124.037Z" fill="#434B50"/>
<path d="M42.2901 110.247C42.2901 110.247 56.6771 121.552 55.3091 124.561C53.9411 127.57 52.5061 134.223 49.5321 133.129C46.5581 132.035 37.6771 121.541 37.8031 118.049C37.9981 112.71 42.2901 110.247 42.2901 110.247Z" fill="#202B32"/>
<path d="M68.3212 110.247C68.3212 110.247 53.9342 121.552 55.3022 124.561C56.6692 127.569 58.1051 134.223 61.0791 133.129C64.0531 132.035 72.9342 121.541 72.8082 118.049C72.6132 112.71 68.3212 110.247 68.3212 110.247Z" fill="#202B32"/>
<path d="M56.8608 141.474C56.8608 142.262 56.2228 142.9 55.4348 142.9C54.6468 142.9 54.0088 142.261 54.0088 141.474C54.0088 140.687 54.6468 140.048 55.4348 140.048C56.2228 140.048 56.8608 140.687 56.8608 141.474Z" fill="#667278"/>
<path d="M56.8608 163.408C56.8608 164.196 56.2228 164.834 55.4348 164.834C54.6468 164.834 54.0088 164.196 54.0088 163.408C54.0088 162.62 54.6468 161.982 55.4348 161.982C56.2228 161.982 56.8608 162.62 56.8608 163.408Z" fill="#667278"/>
</svg>
