<svg width="111" height="167" viewBox="0 0 111 167" fill="none" xmlns="http://www.w3.org/2000/svg">
<path d="M43.2199 75.2183L42.0599 110.757C41.8729 118.219 47.8709 124.369 55.3359 124.369H55.3399H55.3439C62.8079 124.369 68.8069 118.219 68.6199 110.757L67.4599 75.2183H43.2199Z" fill="#FFC1AE"/>
<path d="M68.304 101.108L67.459 75.2168H43.22L42.626 93.3958C50.551 97.6418 59.344 100.262 68.304 101.108Z" fill="#EDAD9B"/>
<path d="M68.347 102.447L67.8059 102.62C63.6199 103.959 59.3639 104.637 55.1579 104.637C49.3689 104.637 45.032 103.349 42.961 102.58L42.3339 102.347L42.0589 110.757C41.8719 118.219 47.8699 124.369 55.3349 124.369H55.3389H55.3429C62.8069 124.369 68.805 118.219 68.619 110.757L68.347 102.447Z" fill="#2F5F79"/>
<path d="M55.436 93.5909C77.481 93.5909 95.352 73.6577 95.352 49.0689C95.352 24.4801 77.481 4.54688 55.436 4.54688C33.391 4.54688 15.52 24.4801 15.52 49.0689C15.52 73.6577 33.391 93.5909 55.436 93.5909Z" fill="#FFC1AE"/>
<path d="M96.6841 58.0958C101.208 58.0958 104.875 54.4288 104.875 49.9048C104.875 45.3808 101.208 41.7148 96.6841 41.7148H88.5181V58.0958H96.6841Z" fill="#FFC1AE"/>
<path d="M100.989 51.4932C100.981 51.4932 100.973 51.4933 100.965 51.4923C100.758 51.4783 100.602 51.3013 100.615 51.0943C100.692 49.9123 100.377 48.7152 99.7283 47.7222C99.0803 46.7302 98.1093 45.9603 96.9973 45.5563C96.8023 45.4853 96.7023 45.2703 96.7723 45.0763C96.8433 44.8813 97.0613 44.7792 97.2523 44.8512C98.5173 45.3112 99.6183 46.1852 100.355 47.3122C101.092 48.4402 101.45 49.8002 101.362 51.1432C101.351 51.3402 101.186 51.4932 100.989 51.4932Z" fill="#EDAB99"/>
<path d="M14.1871 58.0958C9.66407 58.0958 5.99707 54.4288 5.99707 49.9048C5.99707 45.3808 9.66407 41.7148 14.1871 41.7148H22.3531V58.0958H14.1871Z" fill="#FFC1AE"/>
<path d="M9.88122 51.4932C9.68522 51.4932 9.52021 51.3412 9.50721 51.1432C9.42121 49.7992 9.77821 48.4392 10.5142 47.3122C11.2512 46.1852 12.3532 45.3112 13.6172 44.8512C13.8122 44.7792 14.0272 44.8813 14.0982 45.0763C14.1692 45.2703 14.0682 45.4853 13.8742 45.5563C12.7612 45.9603 11.7912 46.7302 11.1422 47.7222C10.4942 48.7142 10.1792 49.9113 10.2552 51.0943C10.2692 51.3013 10.1122 51.4803 9.90522 51.4923C9.89722 51.4933 9.88922 51.4932 9.88122 51.4932Z" fill="#EDAB99"/>
<path d="M55.3923 56.219C55.1333 56.219 54.8703 56.186 54.6093 56.118C53.8363 55.917 53.1943 55.43 52.8483 54.784C52.7183 54.541 52.8093 54.238 53.0533 54.108C53.2973 53.974 53.5993 54.069 53.7303 54.313C53.9443 54.713 54.3573 55.018 54.8603 55.149C55.3903 55.289 55.9533 55.21 56.3653 54.945C57.2143 54.4 57.5313 53.107 57.0433 52.177C56.5633 51.261 55.3593 50.736 54.3073 50.979C54.0393 51.042 53.7693 50.872 53.7073 50.604C53.6453 50.335 53.8133 50.067 54.0823 50.004C55.5833 49.657 57.2363 50.393 57.9293 51.712C58.6563 53.098 58.1873 54.963 56.9063 55.786C56.4653 56.072 55.9383 56.219 55.3923 56.219Z" fill="#F19086"/>
<path d="M40.743 45.715C42.2231 45.715 43.423 44.5151 43.423 43.035C43.423 41.5549 42.2231 40.355 40.743 40.355C39.2629 40.355 38.063 41.5549 38.063 43.035C38.063 44.5151 39.2629 45.715 40.743 45.715Z" fill="#2A2E4E"/>
<path d="M70.1283 45.715C71.6084 45.715 72.8083 44.5151 72.8083 43.035C72.8083 41.5549 71.6084 40.355 70.1283 40.355C68.6481 40.355 67.4482 41.5549 67.4482 43.035C67.4482 44.5151 68.6481 45.715 70.1283 45.715Z" fill="#2A2E4E"/>
<path d="M61.8781 64.689C61.5321 66.043 60.7531 67.295 59.6611 68.272C59.1281 68.781 58.4601 69.147 57.7661 69.447C57.0631 69.749 56.2901 69.833 55.5321 69.881C54.7741 69.835 54.0011 69.7479 53.2971 69.4489C52.6041 69.1489 51.935 68.784 51.401 68.274C50.309 67.297 49.5301 66.044 49.1851 64.689C50.0791 65.748 51.047 66.663 52.108 67.341C53.173 68.012 54.3381 68.378 55.5311 68.381C56.7241 68.38 57.89 68.0139 58.955 67.3419C60.018 66.6639 60.9861 65.748 61.8781 64.689Z" fill="#F19086"/>
<path d="M83.7801 58.3643C83.7801 59.8253 80.9461 61.0103 77.4501 61.0103C73.9541 61.0103 71.1201 59.8263 71.1201 58.3643C71.1201 56.9033 73.9541 55.7183 77.4501 55.7183C80.9461 55.7183 83.7801 56.9033 83.7801 58.3643Z" fill="#FFA492"/>
<path d="M27.0923 58.3643C27.0923 59.8253 29.9263 61.0103 33.4223 61.0103C36.9183 61.0103 39.7523 59.8263 39.7523 58.3643C39.7523 56.9033 36.9183 55.7183 33.4223 55.7183C29.9263 55.7183 27.0923 56.9033 27.0923 58.3643Z" fill="#FFA492"/>
<path d="M101.447 14.605C101.119 13.833 101.078 12.9 101.144 12.063C101.21 11.226 101.312 10.379 101.179 9.55003C101.046 8.72103 100.635 7.89103 99.9103 7.48003C99.3603 7.16803 98.6633 7.13605 98.0873 7.39705C97.5113 7.65705 97.3163 8.18204 97.1803 8.80504C96.9423 7.83804 96.6033 6.85103 95.8953 6.15703C95.1883 5.46303 94.0203 5.16103 93.1943 5.70503C92.8903 5.90603 92.6693 6.20205 92.5143 6.53505C92.0763 5.73905 91.3953 5.06003 90.5423 4.75203C89.6453 4.42803 88.5683 4.55703 87.8503 5.18303C87.1313 5.80903 87.2403 6.65503 87.3103 7.60603C87.6333 11.999 81.8933 10.327 78.1473 7.61302C75.6103 5.72502 73.0723 3.84203 70.2783 2.38603C64.8193 -0.458966 55.5333 -1.29195 50.9843 2.87905C44.9513 -1.16095 37.8023 0.166045 31.4963 3.76705C25.1913 7.36805 20.8163 13.766 18.5073 20.65C16.1983 27.534 15.8913 34.457 16.0643 41.716C26.9853 43.605 33.9463 26.784 33.9463 26.784C37.4393 20.653 45.5343 18.652 52.4283 19.88C59.3223 21.108 65.4813 24.831 71.8513 27.764C74.2743 28.88 76.8223 29.888 79.4183 30.6V30.601C81.3273 31.066 84.9833 32.209 86.8333 34.87C89.0053 38.081 91.7853 42.325 94.7983 41.716C94.2363 37.944 93.2433 34.337 91.8903 30.949C91.9803 30.924 92.0703 30.906 92.1593 30.879C98.8713 28.86 104.206 21.107 101.447 14.605Z" fill="#CA6D5C"/>
<path d="M68.547 108.575L68.415 104.525C55.904 108.523 46.083 105.872 42.265 104.455L42.129 108.629C25.21 115.68 0 133.587 0 166.805H110.812C110.812 133.495 85.467 115.586 68.547 108.575Z" fill="#133848"/>
</svg>
