<svg width="111" height="168" viewBox="0 0 111 168" fill="none" xmlns="http://www.w3.org/2000/svg">
<path d="M0 167.933C0 123.099 45.927 106.15 55.406 106.15C64.885 106.15 110.812 123.099 110.812 167.933H0Z" fill="#40374F"/>
<path d="M91.2823 124.134C77.5573 111.499 60.7312 106.15 55.4062 106.15C50.0823 106.15 33.2563 111.499 19.5312 124.134C22.3753 128.789 33.6413 144.6 55.4073 144.6C77.1703 144.601 88.4383 128.788 91.2823 124.134Z" fill="#625586"/>
<path d="M55.4061 140.601C76.2311 140.601 86.4601 124.52 88.2131 121.471C75.1461 110.746 60.3401 106.151 55.4061 106.151C50.4721 106.151 35.6661 110.746 22.5991 121.471C24.3521 124.52 34.5811 140.601 55.4061 140.601Z" fill="#FFC1AE"/>
<path d="M93.0579 16.6238C86.4509 6.15579 66.5599 -5.31921 55.4359 2.67779C44.3109 -5.31921 24.3909 6.15479 17.7839 16.6238C11.1769 27.0918 5.26592 60.0508 5.99692 89.2908C6.72692 118.511 48.6729 106.167 55.4209 106.15C62.1689 106.167 104.115 118.511 104.845 89.2908C105.576 60.0508 99.6649 27.0928 93.0579 16.6238Z" fill="#CA6A5A"/>
<path d="M43.1901 76.3457L42.0301 111.886C41.8431 119.348 47.8421 125.498 55.3061 125.498H55.3101H55.3141C62.7781 125.498 68.7761 119.348 68.5901 111.886L67.4301 76.3457H43.1901Z" fill="#FFC1AE"/>
<path d="M68.2742 102.237L67.4292 76.3457H43.1902L42.5972 94.5247C50.5212 98.7697 59.3142 101.39 68.2742 102.237Z" fill="#EDAD9B"/>
<path d="M55.4062 94.7198C77.4512 94.7198 95.3223 74.7866 95.3223 50.1978C95.3223 25.609 77.4512 5.67578 55.4062 5.67578C33.3612 5.67578 15.4902 25.609 15.4902 50.1978C15.4902 74.7866 33.3612 94.7198 55.4062 94.7198Z" fill="#FFC1AE"/>
<path d="M96.6538 59.2237C101.177 59.2237 104.845 55.5567 104.845 51.0337C104.845 46.5107 101.178 42.8438 96.6538 42.8438H88.4878V59.2247L96.6538 59.2237Z" fill="#FFC1AE"/>
<path d="M100.96 52.6209C100.952 52.6209 100.944 52.6199 100.936 52.6199C100.729 52.6069 100.573 52.4279 100.586 52.2219C100.663 51.0399 100.348 49.8429 99.6989 48.8499C99.0509 47.8579 98.0809 47.0889 96.9679 46.6839C96.7739 46.6129 96.6729 46.3979 96.7429 46.2039C96.8129 46.0089 97.0319 45.9089 97.2229 45.9789C98.4879 46.4379 99.5899 47.3119 100.326 48.4389C101.063 49.5669 101.421 50.9269 101.333 52.2699C101.322 52.4689 101.156 52.6209 100.96 52.6209Z" fill="#EDAB99"/>
<path d="M14.1578 59.2237C9.63479 59.2237 5.9668 55.5567 5.9668 51.0337C5.9668 46.5107 9.63379 42.8438 14.1578 42.8438H22.3238V59.2247L14.1578 59.2237Z" fill="#FFC1AE"/>
<path d="M9.85094 52.621C9.65494 52.621 9.48994 52.469 9.47694 52.27C9.39094 50.926 9.74794 49.566 10.4839 48.439C11.2209 47.312 12.3229 46.438 13.5879 45.979C13.7819 45.91 13.9979 46.009 14.0679 46.204C14.1389 46.398 14.0379 46.614 13.8429 46.684C12.7299 47.088 11.7599 47.857 11.1109 48.85C10.4629 49.842 10.1479 51.039 10.2239 52.223C10.2379 52.43 10.0809 52.608 9.87394 52.621C9.86794 52.621 9.85994 52.621 9.85094 52.621Z" fill="#EDAB99"/>
<path d="M55.363 57.347C55.104 57.347 54.8399 57.314 54.5799 57.246C53.8069 57.045 53.165 56.559 52.82 55.913C52.69 55.669 52.781 55.367 53.025 55.236C53.269 55.106 53.572 55.197 53.702 55.441C53.916 55.842 54.3279 56.147 54.8319 56.277C55.3619 56.416 55.926 56.339 56.338 56.073C57.187 55.527 57.503 54.234 57.016 53.304C56.536 52.389 55.33 51.861 54.28 52.106C54.01 52.17 53.743 52 53.68 51.732C53.618 51.463 53.7849 51.194 54.0539 51.132C55.5569 50.785 57.2079 51.52 57.9009 52.84C58.6279 54.225 58.159 56.091 56.879 56.914C56.435 57.2 55.909 57.347 55.363 57.347Z" fill="#F19086"/>
<path d="M43.3942 44.1629C43.3942 45.6429 42.1942 46.8429 40.7142 46.8429C39.2342 46.8429 38.0342 45.6429 38.0342 44.1629C38.0342 42.6829 39.2342 41.4829 40.7142 41.4829C42.1942 41.4829 43.3942 42.6829 43.3942 44.1629Z" fill="#2A2E4E"/>
<path d="M70.0989 46.8429C71.5791 46.8429 72.779 45.643 72.779 44.1629C72.779 42.6828 71.5791 41.4829 70.0989 41.4829C68.6188 41.4829 67.4189 42.6828 67.4189 44.1629C67.4189 45.643 68.6188 46.8429 70.0989 46.8429Z" fill="#2A2E4E"/>
<path d="M61.8492 65.8169C61.5032 67.1709 60.7242 68.4229 59.6322 69.3999C59.0992 69.9089 58.4312 70.2749 57.7372 70.5749C57.0342 70.8769 56.2612 70.9609 55.5032 71.0089C54.7452 70.9629 53.9722 70.8759 53.2682 70.5769C52.5752 70.2769 51.9062 69.9119 51.3732 69.4019C50.2812 68.4249 49.5022 67.1719 49.1572 65.8169C50.0512 66.8759 51.0192 67.7909 52.0802 68.4689C53.1452 69.1409 54.3102 69.5059 55.5032 69.5089C56.6962 69.5079 57.8622 69.1419 58.9272 68.4699C59.9892 67.7929 60.9562 66.8769 61.8492 65.8169Z" fill="#F19086"/>
<path d="M77.4199 62.1377C80.9158 62.1377 83.7498 60.953 83.7498 59.4917C83.7498 58.0304 80.9158 56.8457 77.4199 56.8457C73.9239 56.8457 71.0898 58.0304 71.0898 59.4917C71.0898 60.953 73.9239 62.1377 77.4199 62.1377Z" fill="#FFA492"/>
<path d="M33.392 62.1377C36.888 62.1377 39.722 60.953 39.722 59.4917C39.722 58.0304 36.888 56.8457 33.392 56.8457C29.8961 56.8457 27.062 58.0304 27.062 59.4917C27.062 60.953 29.8961 62.1377 33.392 62.1377Z" fill="#FFA492"/>
<path d="M94.7708 42.8428C91.6268 21.7558 75.2048 5.67578 55.4068 5.67578C35.7438 5.67578 19.4138 21.5388 16.1118 42.4138L16.2308 42.8438C27.0558 43.2398 27.0008 27.9948 36.5228 28.1648C46.0448 28.3348 55.5038 18.1678 55.5038 18.1678C55.5038 18.1678 64.9628 28.3348 74.4848 28.1648C84.0038 27.9938 83.9508 43.2328 94.7708 42.8428Z" fill="#CA6A5A"/>
</svg>
