<svg width="50" height="50" viewBox="0 0 50 50" fill="none" xmlns="http://www.w3.org/2000/svg">
<g clip-path="url(#clip0_174_195)">
<path d="M42.5 0H7.5C3.35786 0 0 3.35786 0 7.5V42.5C0 46.6421 3.35786 50 7.5 50H42.5C46.6421 50 50 46.6421 50 42.5V7.5C50 3.35786 46.6421 0 42.5 0Z" fill="#5281B8"/>
<path d="M26.758 35.4493C27.2463 35.3516 28.1252 35.1563 28.1252 33.9844C28.1252 33.9844 28.0275 31.0547 29.3947 30.6641C30.7619 30.2735 32.5197 33.4962 34.3752 34.7657C35.7423 35.6446 36.8166 35.5469 36.8166 35.5469L41.797 35.4493C41.797 35.4493 44.3361 35.254 43.1642 33.2032C43.0666 33.0079 42.2853 31.7383 39.3556 29.1016C36.3283 26.1719 36.8166 26.6602 40.4298 21.6797C42.6759 18.6524 43.6525 16.7969 43.3595 16.1133C42.9689 15.4297 41.4064 15.5274 41.4064 15.5274H35.84C35.2541 15.5274 34.9611 15.6251 34.6681 16.1133C34.6681 16.1133 33.7892 18.5547 32.6173 20.5079C30.1759 24.7071 29.1994 24.9024 28.7111 24.6094C27.8322 24.1212 28.0275 22.2657 28.0275 20.9962C28.0275 16.6016 28.7111 15.0391 26.758 14.6485C25.4884 14.4532 20.9963 14.2579 19.6291 14.9415C18.9455 15.3321 18.5548 16.0157 18.8478 16.1133C19.1408 16.1133 20.0197 16.211 20.508 16.7969C21.2892 18.0665 21.3869 24.1212 20.3127 24.7071C18.8478 25.7813 15.1369 18.6524 14.258 16.3087C14.0627 15.7227 13.7697 15.6251 13.0861 15.4297H7.715C7.12907 15.4297 6.25016 15.5274 6.64079 16.6993C9.2775 22.168 14.7463 35.5469 24.6095 35.4493H26.758Z" fill="white"/>
</g>
<defs>
<clipPath id="clip0_174_195">
<rect width="50" height="50" fill="white"/>
</clipPath>
</defs>
</svg>
