<svg width="50" height="50" viewBox="0 0 50 50" fill="none" xmlns="http://www.w3.org/2000/svg">
<g clip-path="url(#clip0_174_199)">
<path d="M49.9971 37.3611C49.9971 37.6348 49.9888 38.2286 49.9723 38.6872C49.9321 39.8094 49.8431 41.2575 49.7086 41.9172C49.5064 42.9087 49.2012 43.8446 48.8032 44.6235C48.3324 45.545 47.7318 46.3704 47.0181 47.0827C46.306 47.7937 45.4814 48.3919 44.5613 48.8608C43.7783 49.2599 42.8366 49.5652 41.8395 49.7666C41.1862 49.8984 39.749 49.9857 38.634 50.0253C38.1749 50.0417 37.5811 50.05 37.3083 50.05L12.6879 50.046C12.4141 50.046 11.8205 50.0376 11.3618 50.0212C10.2396 49.981 8.79155 49.892 8.13174 49.7575C7.14023 49.5553 6.20435 49.2501 5.42544 48.8521C4.50395 48.3812 3.67861 47.7807 2.96626 47.067C2.25532 46.3549 1.65708 45.5303 1.18818 44.6103C0.789062 43.8272 0.483691 42.8855 0.282373 41.8884C0.150537 41.2352 0.0632813 39.798 0.023584 38.6829C0.00727539 38.2238 -0.000976562 37.63 -0.000976562 37.3573L0.00292969 12.7368C0.00292969 12.463 0.0112793 11.8693 0.0277344 11.4106C0.0680176 10.2884 0.156934 8.84038 0.291455 8.18062C0.493652 7.18911 0.798828 6.25322 1.19683 5.47427C1.66768 4.55283 2.26831 3.72744 2.98193 3.01509C3.69404 2.3042 4.51865 1.70591 5.43872 1.23696C6.22178 0.837939 7.16353 0.532568 8.16064 0.33125C8.81382 0.199365 10.2511 0.112109 11.3661 0.0724609C11.8252 0.0561035 12.4191 0.0478516 12.6917 0.0478516L37.3122 0.0518066C37.586 0.0518066 38.1797 0.0601563 38.6383 0.0766113C39.7605 0.116895 41.2085 0.205811 41.8684 0.340332C42.8599 0.542529 43.7958 0.847705 44.5747 1.2457C45.4961 1.71655 46.3215 2.31719 47.0338 3.03081C47.7447 3.74292 48.343 4.56748 48.8119 5.4876C49.211 6.27065 49.5164 7.21235 49.7177 8.20947C49.8496 8.8627 49.9368 10.2999 49.9765 11.415C49.9929 11.8741 50.0011 12.4679 50.0011 12.7407L49.9971 37.3611Z" fill="url(#paint0_linear_174_199)"/>
<path d="M38.2474 11.8773C34.8622 8.48931 30.3602 6.62251 25.5636 6.62061C15.6807 6.62061 7.63721 14.661 7.63325 24.544C7.63198 27.7032 8.45762 30.7869 10.0267 33.5051L7.48291 42.7936L16.988 40.3011C19.607 41.729 22.5555 42.4815 25.5565 42.4828H25.5639C35.4458 42.4828 43.49 34.4414 43.494 24.5583C43.4959 19.7689 41.6327 15.2654 38.2474 11.8773ZM25.5639 39.4555H25.5578C22.8836 39.4545 20.2607 38.7363 17.9726 37.3789L17.4284 37.0561L11.7879 38.5352L13.2935 33.0375L12.939 32.4739C11.4472 30.1019 10.6593 27.3602 10.6605 24.5452C10.6637 16.3309 17.3492 9.64795 25.5696 9.64795C29.5501 9.64946 33.292 11.2012 36.1057 14.0172C38.9194 16.8332 40.4681 20.5764 40.4666 24.5572C40.4634 32.7722 33.778 39.4555 25.5639 39.4555ZM33.7384 28.2976C33.2903 28.0734 31.0877 26.9898 30.6771 26.8404C30.2664 26.6909 29.9678 26.6162 29.669 27.0646C29.3704 27.5129 28.5118 28.5218 28.2504 28.8207C27.9891 29.1196 27.7277 29.157 27.2797 28.9328C26.8317 28.7086 25.3881 28.2356 23.6769 26.7098C22.3451 25.5224 21.4459 24.0556 21.1846 23.6071C20.9232 23.1587 21.1568 22.9164 21.3811 22.6931C21.5826 22.4924 21.8291 22.17 22.0531 21.9084C22.2771 21.647 22.3518 21.4601 22.5011 21.1612C22.6504 20.8623 22.5757 20.6007 22.4637 20.3765C22.3518 20.1523 21.4557 17.9479 21.0824 17.0511C20.7188 16.1778 20.3493 16.2959 20.0743 16.2822C19.8133 16.2692 19.5143 16.2665 19.2157 16.2665C18.917 16.2665 18.4316 16.3786 18.021 16.827C17.6104 17.2753 16.453 18.3589 16.453 20.5633C16.453 22.7678 18.0583 24.8975 18.2823 25.1964C18.5063 25.4953 21.4415 30.0192 25.9357 31.9592C27.0046 32.4206 27.8391 32.6962 28.4898 32.9026C29.563 33.2434 30.5397 33.1954 31.3117 33.0801C32.1725 32.9515 33.9623 31.9966 34.3357 30.9504C34.7091 29.9042 34.7091 29.0075 34.5971 28.8207C34.4851 28.6339 34.1864 28.5218 33.7384 28.2976Z" fill="white"/>
</g>
<defs>
<linearGradient id="paint0_linear_174_199" x1="25" y1="0.0478516" x2="25" y2="50.05" gradientUnits="userSpaceOnUse">
<stop stop-color="#61FD7D"/>
<stop offset="1" stop-color="#2BB826"/>
</linearGradient>
<clipPath id="clip0_174_199">
<rect width="50" height="50" fill="white"/>
</clipPath>
</defs>
</svg>
